<svg width="579" height="617" viewBox="0 0 579 617" fill="none" xmlns="http://www.w3.org/2000/svg">
<g clip-path="url(#clip0_96_2973)">
<path d="M560.058 301.843C561.753 376.552 550.791 450.955 539.844 524.992C505.781 525.557 471.458 523.908 437.212 523.816C312.565 523.496 187.902 523.175 63.255 522.854C51.9873 455.047 45.758 386.522 44.6129 317.921C43.6205 257.946 46.8573 196.368 72.141 141.127C145.106 -18.2764 410.646 -57.2264 511.338 100.299C549.676 160.258 558.501 233.471 560.058 301.843Z" fill="#B8F5ED"/>
<path d="M156.13 574.691C227.871 574.691 286.029 560.178 286.029 542.276C286.029 524.374 227.871 509.861 156.13 509.861C84.3883 509.861 26.2303 524.374 26.2303 542.276C26.2303 560.178 84.3883 574.691 156.13 574.691Z" fill="#C3DBDA"/>
<path d="M444.205 574.676C526.909 574.676 593.953 557.292 593.953 535.848C593.953 514.404 526.909 497.02 444.205 497.02C361.502 497.02 294.457 514.404 294.457 535.848C294.457 557.292 361.502 574.676 444.205 574.676Z" fill="#C3DBDA"/>
<path d="M311.359 558.842C394.062 558.842 461.107 538.177 461.107 512.685C461.107 487.194 394.062 466.529 311.359 466.529C228.655 466.529 161.611 487.194 161.611 512.685C161.611 538.177 228.655 558.842 311.359 558.842Z" fill="#EDEBCC"/>
<path d="M298.015 614.282C356.096 614.282 403.18 599.77 403.18 581.867C403.18 563.965 356.096 549.452 298.015 549.452C239.933 549.452 192.849 563.965 192.849 581.867C192.849 599.77 239.933 614.282 298.015 614.282Z" fill="#C3DBDA"/>
<path d="M393.256 461.414L426.754 208.659L241.844 258.45L279.205 500.272L393.256 461.414Z" fill="#D9A72A"/>
<path d="M426.754 208.659L246.715 266.588L138.618 197.375L306.763 169.373L329.513 176.824L360.003 186.81L426.754 208.659Z" fill="#F0C04A"/>
<path d="M360.033 470.407C366.339 389.27 364.079 301.782 360.796 220.233C361.56 220.431 362.323 220.614 363.102 220.813C345.086 207.041 326.092 196.215 306.55 188.581L264.441 205.224C283.984 212.843 307.634 224.828 325.65 238.601C324.886 238.402 324.123 238.219 323.344 238.02C326.627 319.569 328.886 407.058 322.581 488.195L360.033 470.407Z" fill="#8FB73A"/>
<path d="M360.003 186.81C347.406 189.482 334.551 191.467 322.046 193.971C313.374 195.711 303.893 196.627 295.465 199.315C280.945 203.926 266.105 199.162 251.402 198.109C276.09 186.932 302.565 179.725 329.512 176.824L360.003 186.81Z" fill="#8FB73A"/>
<path d="M138.618 197.375L189.979 449.733L279.205 500.272L241.844 258.449L138.618 197.375Z" fill="#BA8D1E"/>
<path d="M152.924 205.3C160.71 207.529 167.291 214.766 174.589 219.148C185.368 225.622 196.834 230.157 207.812 235.806C216.362 240.204 224.881 244.677 233.386 249.319C237.294 251.456 241.279 252.77 244.241 256.77C296.931 244.204 349.208 225.607 402.157 216.079C402.829 215.957 402.86 217.454 402.31 217.759C376.324 232.63 348.72 239.135 321.466 246.494C296.549 253.228 271.54 259.32 246.699 266.603C248.531 279.047 249.493 291.964 251.219 304.408C253.432 320.394 255.692 336.365 257.921 352.335C262.166 382.659 266.487 413.18 269.097 443.931C269.219 445.382 267.723 445.58 267.464 444.267C261.234 412.967 256.837 380.674 252.318 348.702C250.196 333.754 248.058 318.806 245.966 303.843C244.348 292.239 242.226 279.642 242.043 267.473C240.134 266.801 239.05 263.671 239.294 261.06C225.981 251.945 211.247 245.807 197.613 238.31C189.399 233.806 181.551 228.157 173.398 223.439C166.069 219.194 158.374 216.293 151.473 210.506C149.519 208.857 150.924 204.735 152.924 205.3Z" fill="#FFD878"/>
<path d="M276.502 201.468C260.761 204.964 247.936 213.972 232.195 217.469C219.003 220.401 204.224 225.515 192.33 231.776C192.834 231.699 180.681 226.538 181.169 226.355C172.467 222.874 173.291 218.996 164.604 215.515C189.338 209.361 216.255 200.475 241.432 196.46C247.676 195.467 254.013 194.459 260.303 195.208C266.578 195.956 272.899 198.704 276.579 203.849C275.922 203.361 275.266 202.888 274.594 202.399" fill="#6A872A"/>
<path d="M192.147 375.544C197.781 403.852 201.888 430.205 207.69 458.437C217.476 465.002 227.263 471.568 237.035 478.133C234.806 476.438 232.683 454.268 231.92 450.1C229.996 439.58 228.088 429.075 226.164 418.555C222.332 397.531 218.484 376.506 214.652 355.466C210.926 335.021 207.186 314.577 203.46 294.132C201.537 283.612 199.628 273.108 197.704 262.588C196.391 255.381 195.704 241.441 192.529 235.669C186.315 224.416 172.94 225.317 164.466 220.416C167.581 233.135 167.901 243.67 169.764 256.648C171.596 269.428 174.146 281.918 176.345 294.56C181.123 321.89 186.818 348.809 192.147 375.544Z" fill="#6A872A"/>
<path d="M322.23 134.378C320.352 146.577 318.489 158.792 316.611 170.992L322.23 134.378Z" fill="#E6369F"/>
<path d="M290.533 120.667C287.785 124.591 286.258 129.217 284.869 133.813C278.075 156.151 273.479 179.16 271.158 202.399C273.998 204.109 277.861 202.933 280.212 200.597C282.564 198.246 283.739 195.009 284.854 191.894C292.717 169.816 300.595 147.753 308.458 125.675C313.038 112.803 296.595 112.025 290.533 120.667Z" fill="#6A872A"/>
<path d="M331.207 143.462C332.826 135.935 331.558 123.461 323.909 119.018C320.718 117.17 314.825 116.544 311.145 115.765C308.672 115.246 297.206 116.33 296.045 115.277C309.359 127.308 300.9 148.394 296.32 162.563C291.74 176.733 283.571 188.856 277.892 202.384C287.159 206.216 305.007 188.016 310.611 182.107C320.764 171.389 328.108 157.937 331.207 143.462Z" fill="#8FB73A"/>
<path d="M219.782 146.348C217.812 139.248 224.973 136.912 230.683 137.996C240.287 139.813 249.203 146.333 255.723 153.341C263.738 161.983 269.494 172.488 274.136 183.328C276.701 189.298 278.884 196.429 275.586 202.017C266.028 197.91 259.845 188.657 254.379 179.801C248.913 170.946 243.127 161.556 233.874 156.807C231.187 155.418 228.271 154.486 225.629 152.99C223.019 151.494 220.591 149.28 219.782 146.348Z" fill="#6A872A"/>
<path d="M205.262 158.838C217.721 179.588 249.264 207.361 275.449 200.491C269.922 192.154 258.761 187.925 251.478 181.145C242.363 172.656 231.492 162.289 228.607 149.677C227.614 145.356 228.317 140.409 231.416 137.233C224.652 137.019 217.843 138.195 211.552 140.669C207.598 142.226 203.46 144.776 202.529 148.914C201.75 152.349 203.445 155.815 205.262 158.838Z" fill="#8FB73A"/>
<path d="M246.867 195.299C251.631 195.834 256.287 197.299 261.005 198.231C266.227 199.254 271.479 199.941 276.746 200.704C277.907 200.872 277.632 202.811 276.472 202.75C266.715 202.124 255.417 200.948 246.424 196.994C245.6 196.627 245.997 195.192 246.867 195.299Z" fill="#6A872A"/>
<path d="M302.824 293.399L295.114 290.804L288.136 294.941L288.213 286.819L282.106 281.459L289.862 279.016L293.083 271.565L297.786 278.177L305.878 278.94L301.038 285.46L302.824 293.399Z" fill="#FFD878"/>
<path d="M328.261 362.245L320.55 359.649L313.558 363.802L313.649 355.68L307.542 350.305L315.298 347.877L318.52 340.411L323.222 347.038L331.314 347.786L326.474 354.321L328.261 362.245Z" fill="#FFD878"/>
<path d="M320.184 462.803L312.473 460.208L305.496 464.345L305.572 456.222L299.465 450.863L307.221 448.42L310.443 440.969L315.145 447.581L323.237 448.344L318.397 454.864L320.184 462.803Z" fill="#FFD878"/>
<path d="M293.266 391.637L285.556 389.041L278.579 393.194L278.655 385.071L272.548 379.697L280.304 377.269L283.525 369.803L288.228 376.429L296.32 377.177L291.48 383.712L293.266 391.637Z" fill="#FFD878"/>
<path d="M231.141 285.46L225.416 281.887L219.492 285.093L220.484 277.047L216.331 270.924L222.667 269.52L226.042 262.557L228.958 269.733L235.187 271.535L230.653 277.368L231.141 285.46Z" fill="#D9A72A"/>
<path d="M202.346 430.892L196.636 427.319L190.696 430.51L191.704 422.464L187.551 416.357L193.887 414.952L197.246 407.974L200.178 415.15L206.407 416.952L201.873 422.8L202.346 430.892Z" fill="#D9A72A"/>
<path d="M237.569 376.704L231.859 373.146L225.92 376.338L226.912 368.291L222.774 362.184L229.111 360.779L232.47 353.801L235.386 360.977L241.615 362.779L237.096 368.627L237.569 376.704Z" fill="#D9A72A"/>
<path d="M186.544 339.434L180.818 335.861L174.894 339.052L175.887 331.021L171.734 324.898L178.07 323.493L181.444 316.516L184.36 323.692L190.59 325.509L186.055 331.341L186.544 339.434Z" fill="#D9A72A"/>
<path d="M238.012 328.334L235.508 326.761L232.882 328.166L233.325 324.623L231.492 321.936L234.286 321.31L235.767 318.241L237.065 321.402L239.798 322.196L237.813 324.761L238.012 328.334Z" fill="#D9A72A"/>
<path d="M225.706 340.243L223.187 338.67L220.576 340.075L221.019 336.533L219.186 333.845L221.98 333.219L223.461 330.15L224.744 333.311L227.492 334.105L225.492 336.67L225.706 340.243Z" fill="#D9A72A"/>
<path d="M250.73 433.075L248.211 431.503L245.6 432.907L246.027 429.365L244.211 426.678L246.989 426.052L248.486 422.983L249.768 426.144L252.501 426.937L250.516 429.518L250.73 433.075Z" fill="#D9A72A"/>
<path d="M250.73 399.454L248.211 397.882L245.6 399.286L246.027 395.744L244.211 393.042L246.989 392.431L248.486 389.362L249.768 392.522L252.501 393.316L250.516 395.881L250.73 399.454Z" fill="#D9A72A"/>
<path d="M186.33 371.528L183.826 369.955L181.2 371.375L181.643 367.833L179.81 365.131L182.604 364.52L184.085 361.436L185.383 364.596L188.116 365.405L186.131 367.97L186.33 371.528Z" fill="#D9A72A"/>
<path d="M164.802 251.747L162.283 250.174L159.672 251.594L160.115 248.052L158.283 245.349L161.077 244.739L162.558 241.654L163.84 244.815L166.588 245.624L164.604 248.189L164.802 251.747Z" fill="#D9A72A"/>
<path d="M215.431 299.995L212.911 298.423L210.301 299.827L210.743 296.285L208.911 293.598L211.705 292.972L213.186 289.903L214.469 293.063L217.217 293.857L215.217 296.438L215.431 299.995Z" fill="#D9A72A"/>
<path d="M166.955 288.3L164.436 286.727L161.825 288.132L162.268 284.589L160.435 281.902L163.229 281.276L164.71 278.207L165.993 281.368L168.741 282.162L166.741 284.742L166.955 288.3Z" fill="#D9A72A"/>
<path d="M273.113 239.456L265.372 239.746L259.204 244.433L258.211 238.891L251.646 236.875L258.776 233.135L260.883 227.21L266.273 230.447L274.151 228.798L270.365 234.539L273.113 239.456Z" fill="#FFD878"/>
<path d="M359.025 199.391L353.85 199.59L349.712 202.72L349.055 199.009L344.658 197.666L349.422 195.162L350.842 191.192L354.445 193.36L359.713 192.261L357.178 196.093L359.025 199.391Z" fill="#FFD878"/>
<path d="M196.284 201.437L191.109 201.651L186.971 204.781L186.315 201.071L181.917 199.712L186.681 197.223L188.101 193.253L191.704 195.422L196.972 194.322L194.437 198.155L196.284 201.437Z" fill="#FFD878"/>
<path d="M384.05 209.438L380.95 209.56L378.492 211.438L378.095 209.224L375.469 208.415L378.324 206.918L379.164 204.552L381.317 205.85L384.462 205.193L382.95 207.483L384.05 209.438Z" fill="#FFD878"/>
<path d="M267.83 214.797L264.731 214.919L262.273 216.782L261.876 214.568L259.265 213.774L262.105 212.278L262.944 209.911L265.097 211.209L268.242 210.552L266.731 212.843L267.83 214.797Z" fill="#FFD878"/>
<path d="M384.08 293.399L376.385 290.804L369.392 294.941L369.469 286.819L363.377 281.459L371.118 279.016L374.339 271.565L379.057 278.177L387.149 278.94L382.309 285.46L384.08 293.399Z" fill="#FFD878"/>
<path d="M399.287 362.245L391.577 359.649L384.599 363.802L384.676 355.68L378.568 350.305L386.324 347.877L389.546 340.411L394.249 347.038L402.341 347.786L397.501 354.321L399.287 362.245Z" fill="#FFD878"/>
<path d="M383.897 418.112L376.202 415.532L369.209 419.67L369.285 411.547L363.194 406.172L370.95 403.745L374.156 396.278L378.874 402.905L386.966 403.653L382.126 410.188L383.897 418.112Z" fill="#FFD878"/>
<path d="M378.385 250.296L375.652 249.38L373.179 250.861L373.209 247.975L371.041 246.067L373.789 245.212L374.935 242.555L376.599 244.907L379.469 245.181L377.759 247.487L378.385 250.296Z" fill="#FFD878"/>
<path d="M307.985 412.265L305.252 411.348L302.778 412.814L302.809 409.928L300.641 408.02L303.389 407.165L304.534 404.523L306.198 406.86L309.069 407.134L307.359 409.455L307.985 412.265Z" fill="#FFD878"/>
<path d="M407.852 301.919L405.119 301.003L402.646 302.469L402.661 299.583L400.508 297.674L403.257 296.819L404.402 294.178L406.066 296.514L408.936 296.789L407.211 299.109L407.852 301.919Z" fill="#FFD878"/>
<path d="M403.638 254.449L400.905 253.533L398.417 254.999L398.447 252.113L396.294 250.22L399.043 249.349L400.173 246.708L401.852 249.059L404.722 249.319L402.997 251.64L403.638 254.449Z" fill="#FFD878"/>
<path d="M382.599 326.883L379.866 325.967L377.393 327.433L377.423 324.547L375.255 322.654L378.003 321.784L379.149 319.142L380.828 321.478L383.698 321.753L381.973 324.074L382.599 326.883Z" fill="#FFD878"/>
<path d="M385.256 439.534L382.523 438.618L380.049 440.084L380.065 437.213L377.912 435.305L380.66 434.434L381.805 431.793L383.469 434.144L386.34 434.404L384.614 436.725L385.256 439.534Z" fill="#FFD878"/>
<path d="M295.74 323.204L293.007 322.287L290.533 323.753L290.564 320.867L288.396 318.959L291.144 318.104L292.289 315.462L293.954 317.798L296.824 318.073L295.114 320.394L295.74 323.204Z" fill="#FFD878"/>
<path d="M278.579 315.371L275.846 314.454L273.357 315.92L273.388 313.034L271.219 311.126L273.983 310.271L275.113 307.629L276.792 309.965L279.663 310.24L277.937 312.561L278.579 315.371Z" fill="#FFD878"/>
<path d="M193.033 226.325C188.544 224.111 184.024 221.973 179.52 219.82C175.49 217.897 171.291 215.133 166.848 214.431C164.42 214.049 162.1 216.904 164.237 218.92C167.535 222.019 172.1 223.622 176.116 225.622C180.589 227.852 185.063 230.096 189.567 232.264C193.521 234.158 197.002 228.294 193.033 226.325Z" fill="#8FB73A"/>
<path d="M359.606 224.431C350.72 227.057 341.773 229.5 332.948 232.295C320.657 236.188 318.336 235.608 323.466 247.868C335.192 242.708 350.781 237.318 363.484 235.638C364.613 235.501 367.255 222.172 359.606 224.431Z" fill="#AED164"/>
<path d="M326.78 149.311C326.535 148.242 324.993 147.478 324.047 148.196C320.413 150.96 319.634 155.052 317.619 159.067C314.855 164.594 311.618 169.877 307.893 174.794C304.397 179.405 300.458 183.665 296.183 187.543C291.862 191.467 286.686 194.582 282.854 198.964C281.815 200.139 282.793 202.079 284.426 201.651C295.541 198.704 305.511 187.421 312.428 178.748C316.031 174.244 319.298 169.435 322.016 164.35C324.428 159.831 327.94 154.563 326.78 149.311Z" fill="#AED164"/>
<path d="M320.153 134.347C318.978 134.393 317.634 135.401 317.771 136.729C317.787 136.897 317.802 137.065 317.817 137.233C317.939 138.439 318.794 139.615 320.138 139.554C321.497 139.493 322.337 138.531 322.459 137.233C322.474 137.065 322.489 136.897 322.504 136.729C322.657 135.493 321.344 134.302 320.153 134.347Z" fill="#AED164"/>
<path d="M498.88 375.91L488.513 420.112V420.128L486.482 428.785L472.314 489.264L470.39 497.447L456.633 556.155L408.891 545.436L402.509 544.001L357.896 533.985L351.651 532.58C351.636 532.58 351.636 532.58 351.636 532.58L327.665 527.206L321.97 498.852L320.978 493.966L313.237 455.429L312.26 450.558L306 419.425L305.252 415.73L300.962 394.4L299.923 389.255L294.961 364.535L293.999 359.771L289.785 338.792L315.802 343.404L322.367 344.579L348.353 349.19L355.438 350.442C355.453 350.442 355.453 350.442 355.453 350.442L384.401 355.588L390.462 356.672L430.479 363.772L437.9 365.085L482.619 373.024L488.467 374.063L498.88 375.91Z" fill="#BF2525"/>
<path d="M322.367 344.579C316.428 348.626 310.305 352.412 304.549 356.764C301.267 359.253 298.106 361.879 294.961 364.535L293.999 359.772C300.763 353.695 308.244 348.061 315.802 343.404L322.367 344.579Z" fill="#D93D2A"/>
<path d="M355.437 350.442C347.773 356.168 340.032 361.817 332.597 367.787C321.848 376.414 311.573 385.621 300.961 394.4L299.923 389.255C309.679 380.262 320.153 371.895 330.429 363.619C336.322 358.855 342.276 353.939 348.353 349.19L355.437 350.442Z" fill="#D93D2A"/>
<path d="M390.462 356.672C388.004 358.458 385.561 360.245 383.164 362.062C373.881 369.101 364.583 376.093 355.269 383.071C338.918 395.286 322.581 407.501 306 419.425L305.252 415.731C320.23 404.004 335.406 392.522 350.597 381.04C359.88 374.032 369.179 367.039 378.507 360.092C380.477 358.626 382.446 357.115 384.401 355.588L390.462 356.672Z" fill="#D93D2A"/>
<path d="M437.9 365.085C431.35 369.238 424.708 373.238 418.555 377.498C404.646 387.087 390.859 396.844 377.21 406.783C355.544 422.54 334.291 438.862 313.237 455.429L312.26 450.558C331.543 434.938 351.269 419.884 371.286 405.211C385.302 394.95 399.455 384.888 413.791 375.071C419.334 371.269 424.891 367.497 430.479 363.772L437.9 365.085Z" fill="#D93D2A"/>
<path d="M488.467 374.063C477.016 383.01 464.222 390.339 452.175 398.462C439.274 407.165 426.494 416.051 413.914 425.197C392.249 440.923 350.384 475.369 321.97 498.852L320.978 493.966C348.262 470.59 387.531 438.083 407.852 423.181C421.151 413.425 434.648 403.913 448.358 394.736C459.488 387.27 470.68 379.239 482.619 373.024L488.467 374.063Z" fill="#D93D2A"/>
<path d="M488.513 420.128L486.482 428.785C480.894 433.427 475.245 437.992 469.611 442.573C457.885 452.146 446.098 461.674 434.342 471.216C416.036 486.057 383.027 514.319 357.896 533.985L351.651 532.58C376.492 511.037 413.379 481.614 433.06 465.659C445.213 455.795 457.351 445.932 469.535 436.114C475.55 431.274 481.856 425.212 488.513 420.128Z" fill="#D93D2A"/>
<path d="M472.314 489.264L470.39 497.448C468.054 499.173 465.733 500.852 463.596 502.563C456.511 508.212 449.412 513.815 442.266 519.388C431.212 527.969 420.341 537.222 408.891 545.436L402.509 544.001C414.708 533.298 428.189 523.77 440.923 513.8C447.824 508.395 454.786 503.066 461.763 497.738C465.214 495.096 468.68 492.012 472.314 489.264Z" fill="#D93D2A"/>
<path d="M616 330.38L497.093 375.91L437.09 365.253C437.09 365.253 437.09 365.253 437.075 365.253L422.25 362.627H422.235L396.157 358H396.081L382.126 355.496C382.111 355.496 382.111 355.496 382.111 355.496L348.506 349.526H348.491L342.109 348.397L323.222 345.037H323.207L316 343.77L287.999 338.793L345.574 319.6L372.354 310.683L425.899 292.834L453.656 298.316L468.39 301.232L497.139 306.912C497.139 306.912 497.139 306.912 497.154 306.912L514.438 310.317C514.453 310.317 514.453 310.317 514.453 310.317L540.958 315.569C540.958 315.569 540.973 315.554 540.989 315.569L558.745 319.066C558.761 319.066 558.761 319.066 558.776 319.066L616 330.38Z" fill="#F04832"/>
<path d="M519.278 364.718C504.956 366.932 490.482 367.406 476.176 369.421C474.054 369.726 474.741 372.857 476.65 372.963C491.169 373.864 506.193 371.467 520.53 369.253C523.522 368.81 522.255 364.26 519.278 364.718Z" fill="#F77261"/>
<path d="M548.943 353.725C527.812 355.893 506.682 358.077 485.536 360.23C474.97 361.298 464.405 362.382 453.824 363.405C448.312 363.94 442.709 364.703 437.09 365.253C437.09 365.253 437.09 365.253 437.075 365.253L422.25 362.627C432.006 360.321 442.358 359.985 452.313 358.947C462.878 357.863 473.459 356.825 484.024 355.771C505.659 353.618 527.309 351.511 548.943 349.404C551.737 349.129 551.692 353.45 548.943 353.725Z" fill="#F77261"/>
<path d="M595.923 333.326C560.868 338.915 525.293 342.182 490.055 346.534C472.023 348.763 454.007 350.992 435.976 353.16C422.845 354.748 409.471 356.962 396.157 358H396.081L382.126 355.496C399.104 351.236 417.12 350 434.464 347.816C451.992 345.602 469.52 343.419 487.047 341.251C523.034 336.808 559.096 331.158 595.205 327.982C598.259 327.707 598.93 332.838 595.923 333.326Z" fill="#F77261"/>
<path d="M558.745 319.066C522.85 321.89 487.032 325.906 451.412 331.204C416.921 336.334 382.843 343.572 348.506 349.526H348.491L342.109 348.397C342.093 347.694 342.475 347.007 343.406 346.763C379.21 337.067 416.357 331.311 453.03 325.937C482.238 321.646 511.552 318.195 540.958 315.569C540.958 315.569 540.973 315.554 540.989 315.569L558.745 319.066Z" fill="#F77261"/>
<path d="M514.438 310.317C498.742 313.355 482.543 314.714 466.771 317.173C450.007 319.783 433.289 322.623 416.601 325.692C399.424 328.838 382.294 332.243 365.224 335.876C351.315 338.839 337.33 342.869 323.222 345.038H323.207L316 343.77C316.092 343.022 316.519 342.304 317.283 342.014C333.467 336.014 351.33 333.311 368.186 329.754C384.782 326.257 401.424 322.99 418.112 319.936C435.289 316.806 452.496 313.905 469.764 311.264C478.802 309.874 487.963 308.21 497.139 306.912C497.139 306.912 497.139 306.912 497.154 306.912L514.438 310.317Z" fill="#F77261"/>
<path d="M468.39 301.232C446.511 304.759 424.662 308.286 402.737 311.523C391.363 313.203 379.988 314.852 368.583 316.409C361.178 317.417 353.285 319.081 345.574 319.6L372.354 310.683C382.523 309.248 392.676 307.767 402.829 306.256C419.776 303.721 436.739 301.125 453.656 298.316L468.39 301.232Z" fill="#F77261"/>
<path d="M599.434 336.304C590.64 337.968 583.189 343.358 574.929 346.625C562.745 351.45 549.783 354.824 537.355 359.038C527.675 362.321 518.041 365.65 508.437 369.116C504.025 370.703 499.521 371.681 496.162 374.673C436.571 365.298 377.469 351.45 317.588 344.335C316.825 344.243 316.794 345.358 317.42 345.587C346.796 356.672 378.019 361.512 408.829 366.993C436.999 372.001 465.275 376.551 493.368 381.972C491.292 391.24 490.208 400.874 488.253 410.157C485.749 422.067 483.2 433.976 480.68 445.886C475.886 468.483 471 491.248 468.038 514.151C467.901 515.235 469.596 515.388 469.886 514.395C476.924 491.065 481.902 466.987 487.017 443.152C489.414 432.006 491.841 420.876 494.192 409.714C496.025 401.057 498.437 391.667 498.62 382.613C500.788 382.109 501.994 379.773 501.735 377.834C516.789 371.039 533.446 366.459 548.882 360.871C558.165 357.511 567.051 353.297 576.273 349.786C584.563 346.625 593.266 344.457 601.068 340.151C603.267 338.96 601.694 335.876 599.434 336.304Z" fill="#F77261"/>
<path d="M365.239 535.833C358.109 475.354 360.659 408.218 364.369 347.435C363.499 347.572 362.629 347.725 361.774 347.862C382.141 337.602 403.623 329.525 425.716 323.845L468.054 337.113C445.961 342.793 424.479 350.87 404.112 361.13C404.982 360.993 405.852 360.84 406.707 360.703C402.997 421.487 400.447 484.775 407.577 545.253L365.239 535.833Z" fill="#D6C48B"/>
<path d="M488.085 334.609C471.458 335.8 454.664 341.19 438.266 335.968C428.739 332.93 418.021 331.907 408.203 329.937C388.401 325.967 367.804 323.142 348.368 317.768C359.545 310.286 377.973 308.714 390.996 309.721C424.464 312.302 457.488 320.761 488.085 334.609Z" fill="#E2D4A7"/>
<path d="M615.603 330.379L614.061 335.387L612.366 340.854L595.602 395.194L593.648 401.485V401.5L576.96 455.581V455.596L574.349 464.009V464.025L557.539 518.487L482.482 546.505L475.337 549.177L456.633 556.155L498.88 375.91L615.603 330.379Z" fill="#D93D2A"/>
<path d="M614.061 335.388L612.366 340.854C604.457 347.587 595.098 353.084 586.67 358.993C576.044 366.459 565.402 373.925 554.776 381.392C533.752 396.141 513.048 413.028 490.559 425.472C489.276 426.174 487.795 424.403 488.956 423.38C507.689 407.012 529.812 393.713 550.165 379.422C560.806 371.971 571.433 364.505 582.075 357.038C592.426 349.786 602.702 340.976 614.061 335.388Z" fill="#F04832"/>
<path d="M595.602 395.194L593.648 401.485V401.5C575.815 413.517 558.303 426.006 541.141 438.969C519.049 455.658 498.376 474.178 476.314 490.852C474.909 491.905 473.321 489.645 474.482 488.485C493.75 469.277 516.239 452.65 537.905 436.251C556.73 421.991 575.983 408.31 595.602 395.194Z" fill="#F04832"/>
<path d="M576.96 455.597L574.349 464.01V464.025C571.845 465.918 569.219 467.72 566.853 469.613C562.486 473.079 558.15 476.591 553.844 480.148C545.264 487.264 536.805 494.562 528.515 502.028C512.667 516.289 498.193 532.107 482.482 546.505L475.337 549.177C475.291 548.75 475.413 548.276 475.749 547.849C490.437 528.962 509.262 512.518 527.034 496.608C536.042 488.531 545.218 480.683 554.577 473.018C561.493 467.384 568.853 459.902 576.96 455.597Z" fill="#F04832"/>
<path d="M459.687 338.411C477.489 342.365 495.292 346.304 513.094 350.259C528.011 353.572 543.966 352.32 557.432 359.389C556.852 359.298 556.302 359.145 555.753 358.931C565.585 354.992 575.418 351.053 585.25 347.114C557.28 340.151 527.828 337.281 499.353 332.746C492.284 331.616 485.123 330.486 478.024 331.341C470.924 332.196 463.779 335.296 459.611 341.113C460.359 340.563 461.107 340.014 461.855 339.479" fill="#ECE1C3"/>
<path d="M555.081 463.2C548.516 484.24 543.89 504.99 537.34 526.03C525.95 531.069 503.689 538.642 504.3 538.367C506.834 537.1 509.231 521.877 510.102 518.762C512.27 510.929 514.438 503.081 516.606 495.249C520.942 479.568 525.278 463.902 529.614 448.222C533.828 432.984 538.042 417.746 542.271 402.508C544.439 394.675 546.607 386.827 548.775 378.994C550.256 373.62 551.035 363.237 554.623 358.932C561.646 350.549 576.761 351.221 586.35 347.572C582.823 357.054 582.456 364.902 580.365 374.582C578.288 384.109 575.403 393.423 572.914 402.844C567.57 423.151 561.142 443.107 555.081 463.2Z" fill="#ECE1C3"/>
<path d="M407.974 262.557C410.097 276.36 412.204 290.163 414.326 303.965L407.974 262.557Z" fill="#00B2C5"/>
<path d="M443.824 247.044C446.938 251.472 448.664 256.724 450.236 261.9C457.916 287.17 463.122 313.187 465.748 339.464C462.542 341.403 458.16 340.075 455.504 337.418C452.847 334.762 451.519 331.112 450.251 327.57C441.35 302.606 432.449 277.657 423.548 252.693C418.372 238.143 436.968 237.272 443.824 247.044Z" fill="#D6C48B"/>
<path d="M397.821 272.817C395.989 264.313 397.424 250.205 406.066 245.182C409.669 243.09 416.326 242.372 420.509 241.502C423.303 240.906 436.266 242.143 437.594 240.952C422.54 254.572 432.098 278.391 437.289 294.422C442.465 310.454 451.717 324.15 458.13 339.449C447.656 343.785 427.456 323.204 421.135 316.531C409.639 304.393 401.333 289.185 397.821 272.817Z" fill="#ECE1C3"/>
<path d="M523.828 276.085C526.041 268.053 517.965 265.412 511.491 266.634C500.636 268.679 490.543 276.069 483.184 283.994C474.115 293.766 467.611 305.645 462.359 317.905C459.458 324.654 456.985 332.716 460.725 339.037C471.535 334.395 478.528 323.936 484.711 313.92C490.895 303.904 497.429 293.292 507.903 287.918C510.957 286.36 514.239 285.292 517.217 283.597C520.179 281.887 522.911 279.383 523.828 276.085Z" fill="#D6C48B"/>
<path d="M540.256 290.208C526.179 313.676 490.513 345.068 460.893 337.312C467.138 327.891 479.749 323.112 487.994 315.432C498.299 305.828 510.59 294.102 513.858 279.841C514.972 274.955 514.178 269.367 510.682 265.763C518.331 265.519 526.026 266.847 533.141 269.657C537.614 271.413 542.286 274.298 543.34 278.986C544.21 282.864 542.302 286.788 540.256 290.208Z" fill="#ECE1C3"/>
<path d="M493.2 331.433C487.81 332.044 482.543 333.708 477.215 334.747C471.321 335.907 465.367 336.686 459.427 337.541C458.13 337.724 458.42 339.938 459.733 339.846C470.756 339.129 483.535 337.816 493.719 333.327C494.635 332.93 494.192 331.326 493.2 331.433Z" fill="#E2D4A7"/>
<path d="M405.913 358.168C400.279 355.237 393.562 354.489 387.409 353.053C380.431 351.435 373.408 349.511 366.324 348.488C363.468 348.076 362.232 351.954 365.102 352.901C371.896 355.16 379.026 356.565 385.973 358.245C392.126 359.726 398.524 362.108 404.875 362.001C406.845 361.955 407.791 359.13 405.913 358.168Z" fill="#ECE1C3"/>
<path d="M583.006 345.48C577.952 345.45 573.754 349.313 568.944 350.916C563.707 352.672 558.18 353.572 553.005 355.435C551.31 356.046 551.447 358.794 553.447 358.733C559.066 358.565 564.761 356.779 570.089 355.084C572.715 354.244 575.25 353.053 577.891 352.275C581.189 351.282 582.334 351.817 584.548 349.206C585.739 347.801 584.991 345.495 583.006 345.48Z" fill="#FFFCF5"/>
<path d="M525.415 290.697C519.217 302.408 511.125 310.622 501.216 319.234C499.658 320.592 501.643 322.638 503.277 321.906C515.003 316.592 524.728 304.942 529.797 293.262C531.08 290.33 526.988 287.735 525.415 290.697Z" fill="#FFFCF5"/>
<path d="M529.568 277.81C527.889 277.81 526.286 279.276 526.362 281.016C526.438 282.757 527.767 284.223 529.568 284.223C531.248 284.223 532.851 282.757 532.775 281.016C532.698 279.276 531.37 277.81 529.568 277.81Z" fill="#FFFCF5"/>
<path d="M432.709 292.269C431.289 285.368 426.83 279.352 425.258 272.283C423.548 264.572 423.762 256.877 424.174 249.044C424.265 247.258 421.609 246.983 421.12 248.632C418.815 256.358 418.83 264.435 420.311 272.344C421.609 279.291 424.143 289.353 429.93 293.888C431.212 294.896 433.06 293.995 432.709 292.269Z" fill="#FFFCF5"/>
<path d="M254.99 542.444L288.488 375.834L103.578 408.662L140.938 568.065L254.99 542.444Z" fill="#8FB73A"/>
<path d="M290.06 375.834L168.115 335.189L0 368.398L105.166 408.661L290.06 375.834Z" fill="#A4CC4B"/>
<path d="M221.751 548.368C228.057 494.883 225.797 437.214 222.515 383.453C223.278 383.576 224.042 383.713 224.82 383.835C206.804 374.75 187.811 367.62 168.268 362.597L130.816 374.323C150.359 379.346 169.352 386.492 187.368 395.561C186.605 395.439 185.841 395.302 185.063 395.18C188.345 448.94 190.605 506.609 184.299 560.095L221.751 548.368Z" fill="#D93D2A"/>
<path d="M113.12 372.139C127.823 373.193 142.679 377.957 157.183 373.346C165.611 370.658 175.093 369.758 183.78 368.017C201.292 364.505 219.507 362.016 236.699 357.253C226.805 350.641 210.514 349.252 199.002 350.138C169.382 352.413 140.175 359.894 113.12 372.139Z" fill="#F04832"/>
<path d="M0.351135 368.398L51.7125 534.749L140.938 568.065L103.578 408.661L0.351135 368.398Z" fill="#6A872A"/>
<path d="M14.6572 373.636C22.4438 375.101 29.0243 379.88 36.3224 382.766C47.1015 387.026 58.5678 390.019 69.5454 393.744C78.0954 396.645 86.615 399.592 95.1192 402.661C99.0278 404.066 103.013 404.936 105.975 407.577C158.664 399.287 210.942 387.041 263.891 380.751C264.563 380.674 264.593 381.652 264.044 381.865C238.058 391.668 210.453 395.958 183.2 400.798C158.283 405.226 133.274 409.242 108.433 414.051C110.265 422.25 111.227 430.77 112.952 438.969C115.166 449.505 117.426 460.025 119.655 470.56C123.899 490.546 128.22 510.67 130.831 530.932C130.953 531.894 129.457 532.016 129.197 531.161C122.968 510.533 118.571 489.233 114.051 468.163C111.929 458.315 109.792 448.466 107.7 438.603C106.082 430.954 103.959 422.647 103.776 414.631C101.868 414.189 100.784 412.127 101.028 410.402C87.7142 404.402 72.9807 400.355 59.3464 395.408C51.1323 392.431 43.2846 388.721 35.1315 385.606C27.8029 382.812 20.1078 380.903 13.2067 377.086C11.2524 375.972 12.6418 373.254 14.6572 373.636Z" fill="#B4D66D"/>
<path d="M138.236 375.498C122.495 378.995 106.753 382.476 91.0122 385.973C77.8207 388.904 63.7131 387.79 51.8041 394.05C52.308 393.973 52.7965 393.836 53.2851 393.653C44.5824 390.172 35.8949 386.675 27.1922 383.194C51.9263 377.041 77.9733 374.506 103.15 370.475C109.395 369.483 115.731 368.475 122.021 369.223C128.296 369.971 134.617 372.72 138.297 377.865C137.64 377.377 136.984 376.903 136.312 376.415" fill="#F04832"/>
<path d="M53.8805 485.844C59.5144 504.502 63.6215 521.877 69.4233 540.49C79.21 544.811 88.9968 549.147 98.7683 553.468C96.5391 552.353 94.4169 537.741 93.6535 534.993C91.7297 528.061 89.8212 521.129 87.8975 514.197C84.0652 500.334 80.2177 486.47 76.3855 472.621C72.6601 459.139 68.9194 445.672 65.1941 432.19C63.2703 425.258 61.3618 418.327 59.4381 411.395C58.125 406.646 57.438 397.454 54.2622 393.653C48.0482 386.232 34.6735 386.828 26.1998 383.606C29.3144 391.988 29.6351 398.936 31.4977 407.486C33.3299 415.914 35.8796 424.144 38.0782 432.48C42.8571 450.482 48.552 468.224 53.8805 485.844Z" fill="#BF2525"/>
<path d="M183.963 308.409C182.085 320.608 180.223 332.823 178.345 345.023L183.963 308.409Z" fill="#E6369F"/>
<path d="M152.252 294.698C149.504 298.622 147.977 303.248 146.587 307.844C139.793 330.182 135.198 353.191 132.877 376.43C135.717 378.14 139.579 376.964 141.931 374.628C144.282 372.277 145.458 369.04 146.572 365.925C154.435 343.847 162.313 321.784 170.176 299.706C174.772 286.834 158.328 286.056 152.252 294.698Z" fill="#BF2525"/>
<path d="M192.941 317.493C194.559 309.966 193.292 297.492 185.643 293.048C182.452 291.201 176.558 290.575 172.879 289.796C170.405 289.277 158.939 290.361 157.779 289.308C171.092 301.339 162.634 322.425 158.054 336.594C153.473 350.763 145.305 362.887 139.625 376.414C148.893 380.247 166.741 362.047 172.344 356.138C182.498 345.404 189.841 331.968 192.941 317.493Z" fill="#F04832"/>
<path d="M81.5155 320.379C79.5459 313.28 86.7066 310.943 92.4168 312.027C102.02 313.844 110.937 320.364 117.456 327.372C125.472 336.014 131.228 346.519 135.869 357.36C138.434 363.33 140.618 370.46 137.32 376.048C127.762 371.941 121.579 362.688 116.113 353.833C110.647 344.977 104.86 335.587 95.6078 330.838C92.9206 329.449 90.0045 328.517 87.3631 327.021C84.737 325.51 82.3247 323.296 81.5155 320.379Z" fill="#D93D2A"/>
<path d="M66.9957 332.869C79.4543 353.619 110.998 381.392 137.182 374.521C131.655 366.185 120.495 361.955 113.212 355.176C104.097 346.687 93.226 336.32 90.3403 323.708C89.3479 319.387 90.0503 314.44 93.1496 311.264C86.386 311.05 79.5765 312.226 73.2861 314.699C69.3317 316.257 65.1941 318.807 64.2627 322.944C63.4841 326.38 65.1788 329.846 66.9957 332.869Z" fill="#F04832"/>
<path d="M170.069 382.11C164.405 380.338 158.603 379.514 152.771 379.59C149.916 379.636 143.656 379.438 148.465 374.109C149.595 372.857 151.183 372.093 152.756 371.452C168.237 365.162 188.742 367.314 203.063 375.804C218.728 385.102 228.653 403.318 227.981 421.518C227.736 427.961 226.271 434.313 226.179 440.756C226.072 447.199 227.569 454.085 232.225 458.544C223.263 457.17 215.324 450.512 212.407 441.932C212.636 448.512 212.881 455.093 213.11 461.674C204.911 461.292 198.361 454.085 195.888 446.268C193.414 438.45 194.071 430.037 194.391 421.838C194.712 413.639 194.574 405.043 190.727 397.79C186.559 389.973 178.528 384.766 170.069 382.11Z" fill="#BF2525"/>
<path d="M171.551 377.895C165.764 376.552 159.916 376.155 154.099 376.674C151.259 376.934 145 377.208 149.397 371.529C150.435 370.185 151.962 369.315 153.473 368.566C168.436 361.131 189.048 361.741 203.964 369.147C220.286 377.239 231.538 394.676 232.225 412.876C232.47 419.319 231.477 425.762 231.859 432.19C232.241 438.618 234.241 445.382 239.218 449.474C230.179 448.787 221.751 442.726 218.209 434.389C218.942 440.939 219.66 447.474 220.393 454.024C212.194 454.253 205.125 447.566 202.071 439.947C199.018 432.328 199.048 423.899 198.758 415.7C198.468 407.501 197.689 398.951 193.307 392.004C188.59 384.491 180.192 379.896 171.551 377.895Z" fill="#F04832"/>
<path d="M140.053 373.056C147.87 366.918 158.588 361.864 169.474 360.077C170.222 359.696 170.955 359.283 171.673 358.825C174.054 357.283 176.039 355.359 178.024 353.344C178.711 352.657 179.994 353.573 179.414 354.413C178.162 356.199 176.497 357.955 174.635 359.467C181.948 358.993 189.139 360.154 195.384 363.635C196.361 364.185 195.704 365.879 194.605 365.482C185.139 362.062 175.81 361.329 166.024 364.017C161.336 365.299 156.832 367.177 152.527 369.422C148.817 371.346 145.381 374.048 141.381 375.3C140.144 375.682 138.969 373.895 140.053 373.056Z" fill="#D93D2A"/>
<path d="M108.601 369.33C113.364 369.864 118.021 371.33 122.739 372.261C127.961 373.284 133.213 373.972 138.48 374.735C139.64 374.903 139.366 376.842 138.205 376.781C128.449 376.155 117.151 374.979 108.158 371.025C107.334 370.658 107.715 369.223 108.601 369.33Z" fill="#BF2525"/>
<path d="M149.58 441.336C148.71 441.229 148.038 441.535 147.259 441.886C145.091 442.832 145.091 446.68 147.259 447.611C148.038 447.947 148.71 448.253 149.58 448.161C151.351 447.947 153.076 446.741 152.985 444.756C152.893 442.71 151.488 441.565 149.58 441.336Z" fill="#B4D66D"/>
<path d="M171.413 472.652C169.779 472.728 168.039 474.072 168.176 475.889C168.192 475.996 168.192 476.103 168.207 476.21C168.344 477.874 169.581 479.492 171.413 479.416C173.261 479.34 174.467 478.011 174.619 476.21C174.635 476.103 174.635 475.996 174.65 475.889C174.772 474.194 173.062 472.576 171.413 472.652Z" fill="#B4D66D"/>
<path d="M151.504 511.617C148.343 511.617 148.328 516.534 151.504 516.534C154.679 516.534 154.679 511.617 151.504 511.617Z" fill="#B4D66D"/>
<path d="M174.619 532.932C169.978 532.932 169.963 540.154 174.619 540.154C179.261 540.154 179.276 532.932 174.619 532.932Z" fill="#B4D66D"/>
<path d="M244.211 522.061C244.119 521.908 244.012 521.74 243.92 521.587C242.73 519.694 240.042 519.694 238.852 521.587C238.76 521.74 238.653 521.908 238.561 522.061C237.233 524.183 238.958 526.993 241.386 526.993C243.814 526.993 245.539 524.183 244.211 522.061Z" fill="#B4D66D"/>
<path d="M258.715 486.699C254.883 486.699 254.868 492.653 258.715 492.653C262.547 492.653 262.563 486.699 258.715 486.699Z" fill="#B4D66D"/>
<path d="M242.562 470.957C242.607 470.988 242.638 471.003 242.684 471.033C241.096 469.11 237.981 470.758 237.981 472.988C237.981 475.217 241.111 476.851 242.684 474.942C242.638 474.973 242.607 474.988 242.562 475.018C244.088 474.163 244.088 471.812 242.562 470.957Z" fill="#B4D66D"/>
<path d="M261.28 422.938C257.997 422.938 257.997 428.037 261.28 428.037C264.563 428.037 264.578 422.938 261.28 422.938Z" fill="#B4D66D"/>
<path d="M245.585 412.967C244.76 411.547 243.142 411.547 242.317 412.967C241.6 414.204 242.516 415.823 243.951 415.823C245.386 415.823 246.318 414.219 245.585 412.967Z" fill="#B4D66D"/>
<path d="M85.1493 426.449C84.9355 424.907 83.9279 423.396 82.172 423.472C80.3857 423.548 79.4238 424.785 79.1948 426.449C79.0879 427.213 79.3017 427.9 79.7139 428.526C80.9506 430.343 83.3782 430.343 84.6149 428.526C85.0577 427.885 85.2562 427.197 85.1493 426.449Z" fill="#B4D66D"/>
<path d="M98.8598 458.36C94.9054 458.36 94.9054 464.498 98.8598 464.498C102.814 464.498 102.83 458.36 98.8598 458.36Z" fill="#B4D66D"/>
<path d="M96.9361 499.57C93.1344 499.57 93.1191 505.479 96.9361 505.479C100.738 505.479 100.753 499.57 96.9361 499.57Z" fill="#B4D66D"/>
<path d="M115.838 545.712C115.594 544.948 115.273 544.383 114.677 543.849C113.67 542.963 112.341 542.963 111.318 543.849C110.708 544.383 110.387 544.933 110.158 545.712C109.578 547.559 111.135 549.437 112.998 549.437C114.845 549.452 116.403 547.559 115.838 545.712Z" fill="#B4D66D"/>
<path d="M53.9874 512.06C53.9721 511.953 53.9416 511.861 53.9263 511.754C53.3767 509.22 49.3307 509.22 48.7963 511.754C48.781 511.861 48.7505 511.953 48.7352 512.06C48.3688 513.785 49.5292 515.51 51.3613 515.51C53.1935 515.526 54.3691 513.785 53.9874 512.06Z" fill="#B4D66D"/>
<path d="M26.3219 424.006C22.7797 424.006 22.7797 429.518 26.3219 429.518C29.8641 429.518 29.8641 424.006 26.3219 424.006Z" fill="#B4D66D"/>
<path d="M171.413 413.837C171.306 413.837 171.199 413.822 171.092 413.822C167.642 413.639 167.642 419.365 171.092 419.181C171.199 419.181 171.306 419.166 171.413 419.166C174.833 418.983 174.833 414.005 171.413 413.837Z" fill="#B4D66D"/>
<path d="M119.411 392.233C117.807 392.233 116.265 393.638 116.342 395.302C116.418 396.966 117.685 398.371 119.411 398.371C121.014 398.371 122.556 396.966 122.479 395.302C122.403 393.638 121.136 392.233 119.411 392.233Z" fill="#B4D66D"/>
<path d="M150.221 387.561C147.687 387.561 147.687 391.485 150.221 391.485C152.756 391.5 152.756 387.561 150.221 387.561Z" fill="#B4D66D"/>
<path d="M57.7739 371.483C57.7433 371.391 57.7128 371.284 57.667 371.193C56.8425 368.765 53.5599 368.765 52.7354 371.193C52.7049 371.284 52.6744 371.391 52.6286 371.483C52.0637 373.147 53.5446 374.857 55.1936 374.857C56.8578 374.857 58.3388 373.147 57.7739 371.483Z" fill="#B4D66D"/>
<path d="M77.9886 361.681C77.9123 361.635 77.8207 361.589 77.7443 361.543C75.9885 360.581 73.7441 361.787 73.7441 363.849C73.7441 365.91 75.9885 367.116 77.7443 366.154C77.8207 366.108 77.9123 366.063 77.9886 366.017C79.607 365.116 79.607 362.581 77.9886 361.681Z" fill="#B4D66D"/>
<path d="M222.973 367.666C222.53 366.872 221.614 366.368 220.713 366.368C220.591 366.368 220.454 366.368 220.332 366.368C216.973 366.398 216.973 371.544 220.332 371.589C220.454 371.589 220.591 371.589 220.713 371.589C221.614 371.605 222.53 371.086 222.973 370.292C223.462 369.406 223.462 368.566 222.973 367.666Z" fill="#B4D66D"/>
<path d="M247.218 372.964C247.203 372.842 247.173 372.598 247.112 372.17C247.112 372.155 247.096 372.155 247.096 372.139C246.806 370.445 245.02 369.132 243.279 369.697C242.745 369.864 242.409 370.292 241.936 370.475C242.378 370.109 242.378 370.109 241.936 370.46C241.691 370.613 241.493 370.811 241.34 371.055C240.546 372.078 240.562 373.162 240.775 374.369C241.065 376.079 243.264 377.193 244.852 376.69C246.47 376.155 247.447 374.628 247.218 372.964Z" fill="#B4D66D"/>
<path d="M232.943 592.556L209.659 476.759L313.176 499.57L312.214 610.359L232.943 592.556Z" fill="#D6C48B"/>
<path d="M208.255 476.453L291.557 449.199L385.195 470.499L313.741 500.807L208.255 476.453Z" fill="#ECE1C3"/>
<path d="M254.272 598.571C249.89 561.392 251.463 520.121 253.738 482.759C253.203 482.851 252.669 482.943 252.135 483.019C264.654 476.713 277.861 471.751 291.434 468.254L317.466 476.408C303.878 479.904 290.686 484.867 278.166 491.172C278.701 491.081 279.235 490.989 279.77 490.913C277.495 528.275 275.922 567.179 280.304 604.358L254.272 598.571Z" fill="#BA8D1E"/>
<path d="M329.772 474.881C319.558 475.614 309.237 478.927 299.145 475.721C293.282 473.858 286.701 473.217 280.655 472.011C268.471 469.568 255.814 467.842 243.875 464.529C250.745 459.933 262.074 458.971 270.075 459.582C290.671 461.17 310.977 466.377 329.772 474.881Z" fill="#D9A72A"/>
<path d="M384.95 470.499L372.461 587.914L310.443 611.076L311.405 500.273L384.95 470.499Z" fill="#ECE1C3"/>
<path d="M311.359 477.858L338.475 489.31L336.719 601.258L353.437 595.014L359.209 481.279L323.1 472.026L311.359 477.858Z" fill="#F0C04A"/>
<path d="M280.533 430.587C281.831 439.076 283.129 447.55 284.442 456.039L280.533 430.587Z" fill="#00B2C5"/>
<path d="M302.58 421.06C304.488 423.793 305.557 426.999 306.519 430.19C311.237 445.718 314.443 461.72 316.046 477.874C314.077 479.065 311.39 478.255 309.756 476.622C308.122 474.988 307.298 472.743 306.534 470.575C301.068 455.231 295.587 439.886 290.121 424.556C286.93 415.593 298.366 415.044 302.58 421.06Z" fill="#BA8D1E"/>
<path d="M274.304 436.893C273.174 431.656 274.059 422.984 279.373 419.899C281.587 418.617 285.678 418.174 288.243 417.64C289.953 417.273 297.923 418.037 298.748 417.304C289.495 425.671 295.373 440.313 298.564 450.177C301.755 460.025 307.435 468.453 311.374 477.859C304.931 480.515 292.518 467.873 288.64 463.766C281.556 456.299 276.457 446.955 274.304 436.893Z" fill="#F0C04A"/>
<path d="M351.743 438.909C353.102 433.977 348.139 432.343 344.155 433.091C337.482 434.359 331.284 438.893 326.749 443.764C321.176 449.765 317.176 457.078 313.939 464.606C312.153 468.759 310.641 473.706 312.932 477.599C319.573 474.744 323.863 468.316 327.665 462.163C331.467 456.009 335.482 449.474 341.925 446.176C343.803 445.215 345.819 444.558 347.651 443.52C349.498 442.481 351.193 440.939 351.743 438.909Z" fill="#BA8D1E"/>
<path d="M361.85 447.581C353.193 462.01 331.268 481.309 313.069 476.53C316.916 470.743 324.657 467.796 329.726 463.078C336.062 457.185 343.62 449.978 345.62 441.199C346.307 438.191 345.819 434.755 343.666 432.541C348.368 432.389 353.101 433.213 357.468 434.938C360.216 436.023 363.087 437.794 363.728 440.664C364.278 443.077 363.102 445.489 361.85 447.581Z" fill="#F0C04A"/>
<path d="M290.198 481.813C294.137 480.576 298.167 480.011 302.229 480.057C304.214 480.088 308.565 479.95 305.221 476.255C304.427 475.385 303.328 474.85 302.244 474.408C291.48 470.026 277.235 471.522 267.28 477.431C256.394 483.889 249.493 496.562 249.967 509.205C250.135 513.678 251.158 518.106 251.219 522.58C251.295 527.053 250.257 531.848 247.02 534.947C253.249 534.001 258.776 529.359 260.792 523.404C260.624 527.985 260.471 532.55 260.303 537.131C265.998 536.871 270.548 531.863 272.273 526.412C273.998 520.977 273.54 515.129 273.311 509.434C273.082 503.738 273.189 497.768 275.846 492.73C278.731 487.279 284.319 483.66 290.198 481.813Z" fill="#BA8D1E"/>
<path d="M289.159 478.882C293.175 477.95 297.251 477.675 301.282 478.042C303.252 478.225 307.603 478.408 304.549 474.469C303.832 473.538 302.763 472.927 301.71 472.408C291.312 467.247 276.991 467.659 266.609 472.805C255.265 478.439 247.432 490.547 246.959 503.204C246.791 507.678 247.478 512.167 247.218 516.64C246.959 521.114 245.554 525.802 242.104 528.657C248.379 528.168 254.242 523.969 256.7 518.167C256.196 522.717 255.692 527.267 255.188 531.817C260.883 531.97 265.799 527.328 267.922 522.03C270.044 516.732 270.029 510.869 270.227 505.174C270.426 499.479 270.975 493.524 274.014 488.699C277.311 483.477 283.159 480.286 289.159 478.882Z" fill="#D9A72A"/>
<path d="M311.054 475.523C305.618 471.247 298.168 467.751 290.595 466.499C290.076 466.224 289.556 465.949 289.068 465.629C287.404 464.56 286.03 463.216 284.655 461.827C284.182 461.353 283.281 461.979 283.694 462.575C284.564 463.812 285.724 465.033 287.022 466.087C281.938 465.766 276.93 466.56 272.609 468.988C271.937 469.369 272.395 470.545 273.143 470.27C279.724 467.888 286.213 467.384 293.007 469.247C296.259 470.148 299.389 471.446 302.397 473.003C304.977 474.347 307.359 476.225 310.153 477.095C310.993 477.355 311.817 476.103 311.054 475.523Z" fill="#D9A72A"/>
<path d="M332.933 472.927C329.619 473.308 326.383 474.316 323.1 474.973C319.482 475.69 315.817 476.163 312.168 476.683C311.359 476.805 311.557 478.148 312.367 478.103C319.146 477.66 327.009 476.851 333.253 474.102C333.803 473.843 333.528 472.85 332.933 472.927Z" fill="#F0C04A"/>
<path d="M353.712 447.52C351.59 454.467 347.269 459.445 340.734 462.636C339.147 463.414 340.261 466.102 341.941 465.506C349.407 462.895 355.483 456.253 357.224 448.482C357.743 446.192 354.399 445.26 353.712 447.52Z" fill="#FFD878"/>
<path d="M359.01 439.626C358.934 439.534 358.842 439.443 358.766 439.366C358.109 438.71 357.01 438.71 356.354 439.366C356.262 439.443 356.186 439.534 356.109 439.626C354.934 440.924 355.712 443.138 357.56 443.138C359.407 443.138 360.186 440.924 359.01 439.626Z" fill="#FFD878"/>
<path d="M292.259 440.13C290.869 435.992 289.785 431.763 288.564 427.579C287.999 425.64 284.93 425.961 284.976 428.068C285.129 435.519 287.022 447.886 293.602 452.497C294.442 453.093 295.541 452.284 295.572 451.367C295.664 447.505 293.48 443.748 292.259 440.13Z" fill="#FFD878"/>
<path d="M286.564 419.777C286.396 419.792 286.228 419.792 286.06 419.807C284.228 419.899 284.228 422.556 286.06 422.647C286.228 422.663 286.396 422.663 286.564 422.678C288.427 422.77 288.427 419.685 286.564 419.777Z" fill="#FFD878"/>
<path d="M352.308 480.561C349.269 481.889 346.216 483.202 343.177 484.546C340.75 485.63 337.65 486.5 336.429 489.019C336.047 489.813 336.368 490.714 337.238 490.989C339.925 491.859 342.674 490.241 345.147 489.218C348.216 487.951 351.269 486.653 354.338 485.37C357.804 483.904 355.834 479.018 352.308 480.561Z" fill="#FFD878"/>
<path d="M189.933 303.782C189.292 301.706 186.177 302.087 186.131 304.301C185.902 318.425 184.253 330.227 175.642 342.03C174.848 343.129 176.543 344.32 177.474 343.434C187.536 333.861 194.193 317.707 189.933 303.782Z" fill="#F77261"/>
<path d="M182.452 297.049C181.841 294.316 177.535 294.316 176.925 297.049C176.833 297.461 176.742 297.904 176.787 298.316C176.94 299.812 178.009 301.293 179.688 301.217C181.383 301.141 182.421 299.935 182.589 298.316C182.62 297.904 182.543 297.461 182.452 297.049Z" fill="#F77261"/>
<path d="M194.987 372.933C192.987 372.475 191.964 375.04 193.628 376.17C199.857 380.445 205.766 384.339 209.919 390.858C213.766 396.889 214.728 403.516 216.835 410.188C217.263 411.547 219.354 411.685 219.736 410.188C223.431 395.362 209.323 376.17 194.987 372.933Z" fill="#F77261"/>
<path d="M99.8523 349.878C96.6002 345.511 92.8596 341.633 90.2182 336.808C87.5921 332.029 87.073 326.273 84.3248 321.708C83.424 320.211 80.7368 320.333 80.3704 322.227C79.2558 327.8 82.3094 334.075 84.9202 338.915C87.7753 344.244 91.7297 349.618 97.043 352.687C98.6919 353.649 101.135 351.603 99.8523 349.878Z" fill="#F77261"/>
</g>
<defs>
<clipPath id="clip0_96_2973">
<rect width="616" height="617" fill="white"/>
</clipPath>
</defs>
</svg>
