<svg width="265" height="27" viewBox="0 0 265 27" fill="none" xmlns="http://www.w3.org/2000/svg">
<path d="M48.71 20C48.578 20 48.47 19.958 48.386 19.874C48.302 19.79 48.26 19.682 48.26 19.55V7.85C48.26 7.718 48.302 7.61 48.386 7.526C48.47 7.442 48.578 7.4 48.71 7.4H51.032C51.164 7.4 51.272 7.442 51.356 7.526C51.44 7.61 51.482 7.718 51.482 7.85V12.188H52.58L55.244 7.742C55.304 7.646 55.388 7.568 55.496 7.508C55.604 7.436 55.742 7.4 55.91 7.4H58.502C58.622 7.4 58.718 7.442 58.79 7.526C58.862 7.598 58.898 7.682 58.898 7.778C58.898 7.85 58.874 7.922 58.826 7.994L55.478 13.466L59.15 19.388C59.186 19.436 59.204 19.502 59.204 19.586C59.204 19.706 59.162 19.808 59.078 19.892C59.006 19.964 58.91 20 58.79 20H56.126C55.934 20 55.79 19.958 55.694 19.874C55.61 19.79 55.544 19.718 55.496 19.658L52.706 15.068H51.482V19.55C51.482 19.682 51.44 19.79 51.356 19.874C51.272 19.958 51.164 20 51.032 20H48.71ZM60.1611 20C60.0651 20 59.9751 19.964 59.8911 19.892C59.8191 19.808 59.7831 19.718 59.7831 19.622C59.7831 19.562 59.7891 19.508 59.8011 19.46L64.0311 7.904C64.0671 7.772 64.1391 7.658 64.2471 7.562C64.3671 7.454 64.5291 7.4 64.7331 7.4H67.3971C67.6011 7.4 67.7571 7.454 67.8651 7.562C67.9851 7.658 68.0631 7.772 68.0991 7.904L72.3111 19.46C72.3351 19.508 72.3471 19.562 72.3471 19.622C72.3471 19.718 72.3051 19.808 72.2211 19.892C72.1491 19.964 72.0591 20 71.9511 20H69.7371C69.5571 20 69.4191 19.958 69.3231 19.874C69.2391 19.778 69.1851 19.694 69.1611 19.622L68.4591 17.786H63.6531L62.9691 19.622C62.9451 19.694 62.8911 19.778 62.8071 19.874C62.7231 19.958 62.5791 20 62.3751 20H60.1611ZM64.3911 15.194H67.7391L66.0471 10.442L64.3911 15.194ZM82.2079 20C82.0759 20 81.9679 19.958 81.8839 19.874C81.7999 19.79 81.7579 19.682 81.7579 19.55V10.28H78.4099V11.918C78.4099 13.37 78.3379 14.606 78.1939 15.626C78.0619 16.634 77.8159 17.462 77.4559 18.11C77.1079 18.746 76.6099 19.214 75.9619 19.514C75.3259 19.814 74.5039 19.976 73.4959 20C73.3759 20 73.2679 19.958 73.1719 19.874C73.0759 19.778 73.0279 19.664 73.0279 19.532V17.642C73.0279 17.378 73.1779 17.228 73.4779 17.192C73.8139 17.132 74.0959 16.958 74.3239 16.67C74.5519 16.382 74.7379 15.998 74.8819 15.518C75.0259 15.026 75.1279 14.444 75.1879 13.772C75.2479 13.088 75.2779 12.332 75.2779 11.504V7.85C75.2779 7.718 75.3199 7.61 75.4039 7.526C75.4999 7.442 75.6139 7.4 75.7459 7.4H84.5299C84.6619 7.4 84.7699 7.442 84.8539 7.526C84.9379 7.61 84.9799 7.718 84.9799 7.85V19.55C84.9799 19.682 84.9379 19.79 84.8539 19.874C84.7699 19.958 84.6619 20 84.5299 20H82.2079ZM88.6284 20C88.4964 20 88.3884 19.958 88.3044 19.874C88.2204 19.79 88.1784 19.682 88.1784 19.55V17.642C88.1784 17.51 88.2204 17.402 88.3044 17.318C88.3884 17.234 88.4964 17.192 88.6284 17.192H89.3124C89.6364 17.192 89.9124 17.132 90.1404 17.012C90.3684 16.88 90.5724 16.688 90.7524 16.436C90.9444 16.184 91.1304 15.848 91.3104 15.428L94.6584 7.778C94.7064 7.646 94.7784 7.55 94.8744 7.49C94.9704 7.43 95.0784 7.4 95.1984 7.4H97.5564C97.6644 7.4 97.7544 7.442 97.8264 7.526C97.8984 7.598 97.9344 7.682 97.9344 7.778C97.9344 7.826 97.9284 7.88 97.9164 7.94C97.9044 8 97.8864 8.054 97.8624 8.102L94.2804 16.328C93.9804 17.012 93.6864 17.588 93.3984 18.056C93.1224 18.524 92.8164 18.902 92.4804 19.19C92.1444 19.478 91.7424 19.688 91.2744 19.82C90.8184 19.94 90.2544 20 89.5824 20H88.6284ZM91.1664 16.76L86.4324 7.958C86.4084 7.91 86.3964 7.856 86.3964 7.796C86.3964 7.7 86.4384 7.61 86.5224 7.526C86.6064 7.442 86.7084 7.4 86.8284 7.4H89.3124C89.4444 7.4 89.5464 7.436 89.6184 7.508C89.7024 7.568 89.7744 7.658 89.8344 7.778L92.8224 13.61L91.1664 16.76ZM99.6338 20C99.5018 20 99.3938 19.958 99.3098 19.874C99.2258 19.79 99.1838 19.682 99.1838 19.55V7.85C99.1838 7.718 99.2258 7.61 99.3098 7.526C99.3938 7.442 99.5018 7.4 99.6338 7.4H107.392C107.524 7.4 107.632 7.442 107.716 7.526C107.8 7.61 107.842 7.718 107.842 7.85V9.65C107.842 9.782 107.8 9.896 107.716 9.992C107.632 10.076 107.524 10.118 107.392 10.118H102.406V19.55C102.406 19.682 102.364 19.79 102.28 19.874C102.196 19.958 102.088 20 101.956 20H99.6338ZM108.624 20C108.528 20 108.438 19.964 108.354 19.892C108.282 19.808 108.246 19.718 108.246 19.622C108.246 19.562 108.252 19.508 108.264 19.46L112.494 7.904C112.53 7.772 112.602 7.658 112.71 7.562C112.83 7.454 112.992 7.4 113.196 7.4H115.86C116.064 7.4 116.22 7.454 116.328 7.562C116.448 7.658 116.526 7.772 116.562 7.904L120.774 19.46C120.798 19.508 120.81 19.562 120.81 19.622C120.81 19.718 120.768 19.808 120.684 19.892C120.612 19.964 120.522 20 120.414 20H118.2C118.02 20 117.882 19.958 117.786 19.874C117.702 19.778 117.648 19.694 117.624 19.622L116.922 17.786H112.116L111.432 19.622C111.408 19.694 111.354 19.778 111.27 19.874C111.186 19.958 111.042 20 110.838 20H108.624ZM112.854 15.194H116.202L114.51 10.442L112.854 15.194ZM126.277 15.896C126.145 15.896 126.037 15.854 125.953 15.77C125.869 15.686 125.827 15.578 125.827 15.446V13.754C125.827 13.622 125.869 13.514 125.953 13.43C126.037 13.346 126.145 13.304 126.277 13.304H131.911C132.043 13.304 132.151 13.346 132.235 13.43C132.319 13.514 132.361 13.622 132.361 13.754V15.446C132.361 15.578 132.319 15.686 132.235 15.77C132.151 15.854 132.043 15.896 131.911 15.896H126.277ZM141.693 20C141.561 20 141.453 19.958 141.369 19.874C141.285 19.79 141.243 19.682 141.243 19.55V10.226H138.039C137.907 10.226 137.799 10.184 137.715 10.1C137.631 10.004 137.589 9.896 137.589 9.776V7.85C137.589 7.718 137.631 7.61 137.715 7.526C137.799 7.442 137.907 7.4 138.039 7.4H147.723C147.855 7.4 147.963 7.442 148.047 7.526C148.131 7.61 148.173 7.718 148.173 7.85V9.776C148.173 9.896 148.131 10.004 148.047 10.1C147.963 10.184 147.855 10.226 147.723 10.226H144.519V19.55C144.519 19.682 144.477 19.79 144.393 19.874C144.309 19.958 144.201 20 144.069 20H141.693ZM149.089 20C148.993 20 148.903 19.964 148.819 19.892C148.747 19.808 148.711 19.718 148.711 19.622C148.711 19.562 148.717 19.508 148.729 19.46L152.959 7.904C152.995 7.772 153.067 7.658 153.175 7.562C153.295 7.454 153.457 7.4 153.661 7.4H156.325C156.529 7.4 156.685 7.454 156.793 7.562C156.913 7.658 156.991 7.772 157.027 7.904L161.239 19.46C161.263 19.508 161.275 19.562 161.275 19.622C161.275 19.718 161.233 19.808 161.149 19.892C161.077 19.964 160.987 20 160.879 20H158.665C158.485 20 158.347 19.958 158.251 19.874C158.167 19.778 158.113 19.694 158.089 19.622L157.387 17.786H152.581L151.897 19.622C151.873 19.694 151.819 19.778 151.735 19.874C151.651 19.958 151.507 20 151.303 20H149.089ZM153.319 15.194H156.667L154.975 10.442L153.319 15.194ZM163.144 20C163.012 20 162.904 19.958 162.82 19.874C162.736 19.79 162.694 19.682 162.694 19.55V7.85C162.694 7.718 162.736 7.61 162.82 7.526C162.904 7.442 163.012 7.4 163.144 7.4H165.466C165.598 7.4 165.706 7.442 165.79 7.526C165.874 7.61 165.916 7.718 165.916 7.85V17.12H168.706V7.85C168.706 7.718 168.748 7.61 168.832 7.526C168.928 7.442 169.036 7.4 169.156 7.4H171.478C171.61 7.4 171.718 7.442 171.802 7.526C171.898 7.61 171.946 7.718 171.946 7.85V17.12H174.718V7.85C174.718 7.718 174.76 7.61 174.844 7.526C174.94 7.442 175.048 7.4 175.168 7.4H177.49C177.622 7.4 177.73 7.442 177.814 7.526C177.91 7.61 177.958 7.718 177.958 7.85V19.55C177.958 19.682 177.91 19.79 177.814 19.874C177.73 19.958 177.622 20 177.49 20H163.144ZM180.915 20C180.783 20 180.675 19.958 180.591 19.874C180.507 19.778 180.465 19.67 180.465 19.55V7.85C180.465 7.718 180.507 7.61 180.591 7.526C180.687 7.442 180.795 7.4 180.915 7.4H183.237C183.369 7.4 183.477 7.442 183.561 7.526C183.645 7.61 183.687 7.718 183.687 7.85V15.104L188.817 7.742C188.877 7.646 188.955 7.568 189.051 7.508C189.147 7.436 189.273 7.4 189.429 7.4H191.517C191.637 7.4 191.739 7.442 191.823 7.526C191.919 7.61 191.967 7.718 191.967 7.85V19.55C191.967 19.682 191.919 19.79 191.823 19.874C191.739 19.958 191.637 20 191.517 20H189.195C189.063 20 188.949 19.958 188.853 19.874C188.769 19.79 188.727 19.682 188.727 19.55V12.566L183.615 19.658C183.555 19.742 183.477 19.82 183.381 19.892C183.297 19.964 183.171 20 183.003 20H180.915ZM194.925 20C194.793 20 194.685 19.958 194.601 19.874C194.517 19.79 194.475 19.682 194.475 19.55V7.85C194.475 7.718 194.517 7.61 194.601 7.526C194.685 7.442 194.793 7.4 194.925 7.4H199.965C200.961 7.4 201.825 7.556 202.557 7.868C203.301 8.168 203.877 8.624 204.285 9.236C204.705 9.848 204.915 10.622 204.915 11.558C204.915 12.482 204.705 13.244 204.285 13.844C203.877 14.444 203.301 14.888 202.557 15.176C201.825 15.464 200.961 15.608 199.965 15.608H197.823V19.55C197.823 19.682 197.775 19.79 197.679 19.874C197.595 19.958 197.487 20 197.355 20H194.925ZM197.769 13.124H199.875C200.391 13.124 200.799 12.992 201.099 12.728C201.411 12.464 201.567 12.062 201.567 11.522C201.567 11.066 201.435 10.682 201.171 10.37C200.907 10.058 200.475 9.902 199.875 9.902H197.769V13.124ZM210.417 20C210.285 20 210.171 19.958 210.075 19.874C209.991 19.79 209.949 19.682 209.949 19.55V18.272C209.949 18.188 209.973 18.062 210.021 17.894C210.069 17.714 210.195 17.546 210.399 17.39L212.271 15.554C213.231 14.822 214.017 14.204 214.629 13.7C215.253 13.184 215.715 12.728 216.015 12.332C216.315 11.936 216.465 11.564 216.465 11.216C216.465 10.808 216.357 10.472 216.141 10.208C215.937 9.932 215.577 9.794 215.061 9.794C214.713 9.794 214.419 9.872 214.179 10.028C213.951 10.172 213.777 10.364 213.657 10.604C213.537 10.844 213.453 11.09 213.405 11.342C213.357 11.498 213.273 11.606 213.153 11.666C213.045 11.726 212.925 11.756 212.793 11.756H210.543C210.435 11.756 210.345 11.72 210.273 11.648C210.201 11.576 210.165 11.486 210.165 11.378C210.177 10.802 210.297 10.262 210.525 9.758C210.765 9.254 211.095 8.81 211.515 8.426C211.947 8.03 212.457 7.724 213.045 7.508C213.645 7.292 214.317 7.184 215.061 7.184C216.081 7.184 216.945 7.346 217.653 7.67C218.373 7.994 218.919 8.45 219.291 9.038C219.663 9.614 219.849 10.292 219.849 11.072C219.849 11.66 219.717 12.212 219.453 12.728C219.201 13.232 218.835 13.718 218.355 14.186C217.887 14.642 217.329 15.116 216.681 15.608L215.025 17.282H219.651C219.783 17.282 219.891 17.324 219.975 17.408C220.071 17.492 220.119 17.6 220.119 17.732V19.55C220.119 19.682 220.071 19.79 219.975 19.874C219.891 19.958 219.783 20 219.651 20H210.417ZM227.85 20C227.73 20 227.622 19.958 227.526 19.874C227.442 19.79 227.4 19.682 227.4 19.55V17.516H221.802C221.682 17.516 221.574 17.474 221.478 17.39C221.394 17.306 221.352 17.198 221.352 17.066V15.356C221.352 15.248 221.37 15.152 221.406 15.068C221.454 14.972 221.502 14.882 221.55 14.798L226.788 7.706C226.944 7.502 227.166 7.4 227.454 7.4H230.064C230.196 7.4 230.304 7.442 230.388 7.526C230.484 7.61 230.532 7.718 230.532 7.85V14.834H232.116C232.26 14.834 232.374 14.882 232.458 14.978C232.542 15.062 232.584 15.164 232.584 15.284V17.066C232.584 17.198 232.536 17.306 232.44 17.39C232.356 17.474 232.254 17.516 232.134 17.516H230.532V19.55C230.532 19.682 230.484 19.79 230.388 19.874C230.304 19.958 230.196 20 230.064 20H227.85ZM224.448 14.96H227.472V10.712L224.448 14.96ZM235.216 20C235.108 20 235.018 19.964 234.946 19.892C234.874 19.808 234.838 19.712 234.838 19.604C234.838 19.556 234.85 19.502 234.874 19.442L239.032 10.118H233.632C233.512 10.118 233.404 10.076 233.308 9.992C233.224 9.896 233.182 9.782 233.182 9.65V7.85C233.182 7.718 233.224 7.61 233.308 7.526C233.404 7.442 233.512 7.4 233.632 7.4H242.056C242.2 7.4 242.314 7.442 242.398 7.526C242.482 7.61 242.524 7.718 242.524 7.85V9.452C242.524 9.632 242.506 9.782 242.47 9.902C242.434 10.022 242.386 10.142 242.326 10.262L238.168 19.568C238.132 19.64 238.066 19.73 237.97 19.838C237.874 19.946 237.73 20 237.538 20H235.216ZM249.098 20.18C248.234 20.18 247.484 20.06 246.848 19.82C246.212 19.568 245.684 19.226 245.264 18.794C244.856 18.362 244.544 17.858 244.328 17.282C244.112 16.706 243.986 16.088 243.95 15.428C243.938 15.104 243.926 14.738 243.914 14.33C243.914 13.91 243.914 13.49 243.914 13.07C243.926 12.638 243.938 12.254 243.95 11.918C243.986 11.258 244.112 10.646 244.328 10.082C244.556 9.506 244.88 9.008 245.3 8.588C245.732 8.156 246.26 7.82 246.884 7.58C247.52 7.34 248.258 7.22 249.098 7.22C249.95 7.22 250.688 7.34 251.312 7.58C251.936 7.82 252.458 8.156 252.878 8.588C253.31 9.008 253.64 9.506 253.868 10.082C254.096 10.646 254.222 11.258 254.246 11.918C254.27 12.254 254.282 12.638 254.282 13.07C254.294 13.49 254.294 13.91 254.282 14.33C254.282 14.738 254.27 15.104 254.246 15.428C254.222 16.088 254.096 16.706 253.868 17.282C253.652 17.858 253.334 18.362 252.914 18.794C252.506 19.226 251.984 19.568 251.348 19.82C250.724 20.06 249.974 20.18 249.098 20.18ZM249.098 17.57C249.722 17.57 250.172 17.372 250.448 16.976C250.736 16.568 250.886 16.022 250.898 15.338C250.922 14.99 250.934 14.624 250.934 14.24C250.946 13.856 250.946 13.472 250.934 13.088C250.934 12.704 250.922 12.35 250.898 12.026C250.886 11.366 250.736 10.832 250.448 10.424C250.172 10.016 249.722 9.806 249.098 9.794C248.474 9.806 248.024 10.016 247.748 10.424C247.472 10.832 247.322 11.366 247.298 12.026C247.286 12.35 247.274 12.704 247.262 13.088C247.262 13.472 247.262 13.856 247.262 14.24C247.274 14.624 247.286 14.99 247.298 15.338C247.322 16.022 247.478 16.568 247.766 16.976C248.054 17.372 248.498 17.57 249.098 17.57ZM260.216 20C260.096 20 259.988 19.958 259.892 19.874C259.808 19.79 259.766 19.682 259.766 19.55V10.982L257.3 12.872C257.192 12.956 257.078 12.986 256.958 12.962C256.85 12.938 256.754 12.872 256.67 12.764L255.608 11.378C255.536 11.27 255.506 11.156 255.518 11.036C255.542 10.904 255.614 10.802 255.734 10.73L259.874 7.526C259.946 7.478 260.012 7.448 260.072 7.436C260.144 7.412 260.222 7.4 260.306 7.4H262.556C262.676 7.4 262.778 7.442 262.862 7.526C262.958 7.61 263.006 7.718 263.006 7.85V19.55C263.006 19.682 262.958 19.79 262.862 19.874C262.778 19.958 262.676 20 262.556 20H260.216Z" fill="#264F36"/>
<path fill-rule="evenodd" clip-rule="evenodd" d="M22.629 0.090956C19.895 1.94496 19.028 5.57096 20.722 8.43796L31.492 26.678C31.638 26.926 31.972 26.994 32.212 26.83C34.947 24.975 35.814 21.35 34.119 18.481L23.35 0.242956C23.314 0.184167 23.2663 0.133332 23.21 0.0935478C23.1537 0.0537642 23.0898 0.025865 23.0224 0.0115502C22.9549 -0.00276461 22.8853 -0.0031953 22.8176 0.0102844C22.75 0.023764 22.6858 0.0508718 22.629 0.089956M11.86 0.090956C9.12601 1.94496 8.26001 5.57096 9.95401 8.43796L20.724 26.678C20.87 26.926 21.204 26.994 21.444 26.83C24.179 24.975 25.045 21.35 23.35 18.481L12.582 0.242956C12.546 0.184024 12.4983 0.133062 12.4419 0.0931859C12.3855 0.0533096 12.3215 0.0253566 12.2539 0.0110359C12.1864 -0.00328475 12.1166 -0.00367215 12.0488 0.00989739C11.9811 0.0234669 11.9169 0.0507083 11.86 0.089956" fill="#EE7203"/>
<path fill-rule="evenodd" clip-rule="evenodd" d="M12.892 20.6229C12.892 17.1449 10.006 14.3259 6.446 14.3259C2.886 14.3259 0 17.1459 0 20.6229C0 24.0999 2.886 26.9209 6.446 26.9209C10.006 26.9209 12.892 24.1009 12.892 20.6229Z" fill="#FB471F"/>
</svg>
