<svg width="592" height="615" viewBox="0 0 592 615" fill="none" xmlns="http://www.w3.org/2000/svg">
<g clip-path="url(#clip0_96_2718)">
<path d="M609.798 615C607.488 597.537 562.763 576.092 527.233 577.18C491.688 578.269 460.633 601.305 444.281 597.91C430.396 595.03 417.027 588.455 403.443 583.426C389.056 578.097 375.501 580.661 361.042 584.544C352.12 586.936 343.198 589.328 334.29 591.721C307.452 598.927 304.856 580.49 277.659 579.215C261.45 578.455 245.586 584.114 229.578 587.079C212.781 590.188 195.654 590.46 178.986 585.604C159.392 579.902 138.722 568.298 119.2 580.805C111.812 585.532 104.899 591.85 96.9233 594.142C76.9132 599.886 54.3929 591.52 40.7803 615H609.798Z" fill="white"/>
<path d="M233.106 508.403L228.531 595.073C228.66 597.838 226.752 600.173 224.356 600.173H152.091C149.767 600.173 148.204 597.523 148.935 594.987C151.474 586.248 158.273 579.974 169.806 576.478L180.707 507.185C192.842 503.776 211.963 505.366 233.106 508.403Z" fill="#5B1E27"/>
<path d="M265.137 508.059L260.934 595.073C260.805 597.838 262.713 600.173 265.108 600.173H337.374C339.698 600.173 341.261 597.523 340.53 594.987C337.991 586.248 331.192 579.974 319.659 576.478L317.522 506.841C304.999 508.904 285.864 510.666 265.137 508.059Z" fill="#5B1E27"/>
<path d="M186.029 584.959C180.535 576.435 169.949 577.008 169.834 577.008L169.763 575.934C169.877 575.92 181.08 575.304 186.918 584.372L186.029 584.959Z" fill="#8C4956"/>
<path d="M306.821 580.919L306.018 580.203C310.163 575.604 319.315 575.919 319.702 575.934L319.659 577.008C319.558 577.008 310.622 576.693 306.821 580.919Z" fill="#8C4956"/>
<path d="M285.104 166.507C303.292 175.69 342.681 222.406 357.585 227.076C375.687 232.104 407.402 221.045 409.281 219.87L420.226 293.89C420.226 293.89 375.415 300.752 340.687 282.745C305.96 264.738 296.981 220.3 296.981 220.3L285.104 166.507Z" fill="#EA475B"/>
<path d="M406.613 219.125C410.17 214.412 415.435 211.418 422.176 211.418C424.07 211.103 429.492 211.876 432.906 216.604C440.508 223.652 455.512 267.947 449.975 287.874C447.451 296.956 436.779 299.105 428.574 298.861C423.898 298.733 418.691 297.758 415.219 294.378C411.347 290.581 408.951 285.438 406.914 280.496C406.871 280.396 406.828 280.295 406.785 280.195C401.922 268.291 399.756 254.982 400.316 242.161C400.531 237.218 401.191 232.276 402.539 227.505C403.443 224.382 404.806 221.532 406.613 219.125Z" fill="white"/>
<path d="M442.244 290.352C425.619 294.635 411.777 221.03 426.322 217.907C439.977 216.532 453.203 287.014 442.244 290.352Z" fill="#5B1E27"/>
<path d="M353.009 239.811L352.306 239.696C353.152 234.668 354.788 230.471 357.284 226.875L357.872 227.29C355.433 230.786 353.841 234.883 353.009 239.811Z" fill="#561922"/>
<path d="M461.852 214.655C455.311 214.999 448.512 218.752 443.104 222.348C443.104 222.348 447.164 211.375 443.248 208.438C434.512 203.481 426.221 220.514 422.234 230.528C421.373 232.663 420.226 233.551 420.226 233.551C420.355 246.917 422.42 259.724 426.68 271.886C432.016 270.525 451.496 262.775 456.459 260.411C464.778 256.472 473.758 250.828 477.645 242.118C482.823 230.528 475.924 213.91 461.852 214.655Z" fill="#EA475B"/>
<path d="M204.906 170.074C178.226 191.347 170.537 227.491 150.556 227.505C131.779 226.617 105.142 206.203 103.722 204.498C103.995 238.894 98.831 275.109 76.7841 278.275C76.7841 278.275 110.536 291.899 149.165 285.653C187.793 279.407 210.242 240.012 210.242 240.012C210.242 240.012 217.543 158.184 204.906 170.074Z" fill="#EA475B"/>
<path d="M120.892 214.913C118.497 209.512 114.021 205.415 107.452 203.911C105.687 203.18 100.222 202.722 95.8187 206.561C86.825 211.733 62.2535 251.515 63.1571 272.187C63.5731 281.599 73.4993 286.097 81.532 287.702C86.1221 288.619 91.4151 288.848 95.5462 286.326C100.179 283.504 103.665 279.02 106.749 274.665C106.806 274.579 106.878 274.493 106.935 274.393C114.351 263.892 119.458 251.415 121.796 238.78C122.7 233.909 123.159 228.952 122.929 223.996C122.8 220.758 122.126 217.664 120.892 214.913Z" fill="white"/>
<path d="M157.355 243.522L156.638 243.464C157.47 233.952 152.306 227.677 152.263 227.62L152.808 227.162C152.865 227.219 158.216 233.708 157.355 243.522Z" fill="#561922"/>
<path d="M70.1571 276.327C85.3905 284.221 115.427 215.601 101.958 209.298C88.9622 204.914 60.2453 270.64 70.1571 276.327Z" fill="#5B1E27"/>
<path d="M94.6425 302.515L94.5565 301.741C93.8966 296.24 90.9991 291.369 86.825 287.745C83.7123 285.037 81.575 281.212 81.0873 276.8C80.3128 269.823 83.8701 263.377 89.5934 260.111L75.9665 145.72C75.5935 142.655 77.2861 139.904 79.739 139.56L85.8209 138.686C88.3598 138.328 90.7553 140.663 91.0852 143.844L103.005 258.606C109.317 260.526 114.208 266.041 114.983 273.018C115.47 277.43 114.237 281.628 111.798 284.951C108.528 289.421 106.763 294.807 107.337 300.308L107.423 301.082C111.597 302.873 114.71 306.769 115.255 311.597C115.8 316.496 113.548 321.052 109.776 323.702L138.077 594.084C138.392 597.179 136.656 599.886 134.189 600.159C131.708 600.431 129.427 598.167 129.054 595.087L97.3249 325.092C93.0647 323.344 89.8659 319.39 89.3209 314.491C88.7901 309.663 90.9705 305.179 94.6425 302.515Z" fill="#EDAC5F"/>
<path d="M89.8086 309.348C89.6364 315.207 94.3556 322.155 103.177 321.124C112.056 320.078 114.939 311.712 113.62 306.712C114.452 308.187 115.026 309.835 115.226 311.626C115.757 316.425 113.591 320.909 109.948 323.573L97.0954 325.006C92.9499 323.215 89.8516 319.318 89.3209 314.519C89.12 312.7 89.3209 310.967 89.8086 309.348Z" fill="#DD9547"/>
<path d="M83.2676 266.4C83.5545 267.273 82.7512 285.352 99.0031 283.748C115.255 282.143 111.224 264.15 111.224 264.15C113.233 266.6 114.595 269.637 114.968 273.032C115.456 277.445 114.222 281.642 111.784 284.966C108.513 289.435 106.749 294.822 107.323 300.323L107.38 300.853L94.6138 302.271L94.5565 301.741C93.8966 296.24 90.9991 291.369 86.825 287.745C83.7123 285.037 81.575 281.212 81.0873 276.8C80.657 273.032 81.5033 269.437 83.2676 266.4Z" fill="#DD9547"/>
<path d="M77.2574 177.036L79.8824 176.75C79.9541 176.735 79.9685 176.635 79.9111 176.592C77.4583 174.558 75.7083 171.406 75.2923 167.739L73.198 148.915C72.5095 142.698 75.6366 136.71 80.8004 135.205C87.241 133.329 93.6097 138.658 94.4417 146.107L96.5933 165.375C97.0093 169.042 95.9765 172.509 94.0401 175.031C93.997 175.088 94.0401 175.188 94.1118 175.174L96.7368 174.887C98.5441 174.687 100.395 175.904 100.954 177.939C101.671 180.589 100.151 183.153 97.913 183.397L78.0033 185.617C75.7657 185.861 73.7144 183.698 73.8435 180.961C73.9153 178.841 75.4501 177.237 77.2574 177.036Z" fill="white"/>
<path d="M79.6529 176.764C75.5791 173.856 75.2923 167.739 75.2923 167.739L73.8578 154.903C76.1386 175.475 97.4539 173.24 95.1445 152.539L96.5789 165.375C97.2818 171.621 94.2982 175.145 94.2982 175.145L79.6529 176.764Z" fill="#F4E6DC"/>
<path d="M95.2019 183.683L80.6713 185.302L81.0299 188.54L95.5318 186.921L95.2019 183.683Z" fill="#DD9547"/>
<path d="M112.101 322.892C117.674 317.472 117.792 308.565 112.364 302.999C106.937 297.433 98.0186 297.315 92.4454 302.736C86.8722 308.157 86.7543 317.063 92.182 322.629C97.6097 328.195 106.528 328.313 112.101 322.892Z" fill="white"/>
<path d="M115.499 307.973C114.853 315.15 108.829 320.78 101.47 320.78C95.3884 320.78 90.2246 316.926 88.2451 311.54C88.202 311.955 88.1877 312.371 88.1877 312.8C88.1877 320.565 94.4991 326.868 102.274 326.868C110.048 326.868 116.36 320.565 116.36 312.8C116.36 311.096 116.044 309.477 115.499 307.973Z" fill="#F4E6DC"/>
<path d="M100.495 176.879C100.036 178.985 98.2429 180.546 95.9335 180.775L79.366 182.365C77.0566 182.58 74.9767 181.534 74.1017 179.558C73.3271 180.575 73.614 185.732 77.8886 185.632C77.8886 185.632 97.2531 183.468 97.9847 183.382C99.1035 183.297 102.79 181.406 100.495 176.879Z" fill="#F4E6DC"/>
<path d="M89.7512 260.426L89.4213 259.781C93.8679 257.518 98.4581 256.93 103.077 258.048L102.905 258.75C98.4581 257.675 94.0401 258.248 89.7512 260.426Z" fill="#561922"/>
<path d="M120.462 106.081C122.097 104.634 120.907 101.941 118.741 102.156L92.4479 104.792C91.4725 104.892 90.5544 104.348 90.1528 103.46L79.5238 79.2923C78.6488 77.2867 75.7226 77.5876 75.2493 79.7221L69.6264 105.508C69.4255 106.468 68.6223 107.17 67.6469 107.27L41.3541 109.906C39.1738 110.121 38.557 113.001 40.4361 114.089L63.2576 127.398C64.1039 127.885 64.5342 128.873 64.319 129.819L58.6961 155.605C58.2371 157.74 60.776 159.215 62.3969 157.768L82.1201 140.205C82.8516 139.56 83.9131 139.446 84.7594 139.947L107.581 153.256C109.474 154.359 111.669 152.396 110.78 150.405L100.151 126.237C99.7634 125.349 99.9785 124.304 100.71 123.645L120.462 106.081ZM95.4171 112.986L87.327 120.192C87.284 120.221 87.2696 120.278 87.2983 120.335L91.6589 130.249C91.702 130.363 91.5872 130.464 91.4868 130.406L82.1201 124.948C82.0771 124.92 82.0197 124.934 81.9767 124.962L73.8866 132.168C73.8005 132.254 73.6571 132.168 73.6857 132.054L75.9951 121.467C76.0095 121.41 75.9808 121.367 75.9378 121.338L66.5711 115.88C66.4706 115.823 66.4993 115.665 66.6141 115.651L77.4009 114.576C77.4582 114.576 77.5013 114.533 77.5156 114.476L79.825 103.889C79.8537 103.775 80.0115 103.761 80.0545 103.861L84.4151 113.774C84.4295 113.817 84.4869 113.846 84.5442 113.846L95.331 112.771C95.4458 112.771 95.5175 112.915 95.4171 112.986Z" fill="#EDAC5F"/>
<path d="M66.9297 145.906C66.8293 145.906 66.7288 145.878 66.6284 145.821C66.4133 145.692 66.2985 145.434 66.3559 145.19L70.7165 125.149L52.9728 114.806C52.7433 114.677 52.6429 114.419 52.6859 114.175C52.7433 113.917 52.9441 113.745 53.2023 113.717L73.6427 111.668L78.0033 91.6266C78.0607 91.3687 78.2615 91.1825 78.5197 91.1682C78.7779 91.1395 79.0218 91.2828 79.1222 91.512L87.3844 110.293L107.825 108.244C108.083 108.216 108.327 108.359 108.427 108.588C108.528 108.817 108.47 109.09 108.284 109.261L92.9786 122.914L101.241 141.695C101.341 141.924 101.284 142.196 101.097 142.368C100.911 142.54 100.624 142.569 100.409 142.44L82.6652 132.097L67.3313 145.749C67.2165 145.864 67.0731 145.906 66.9297 145.906ZM53.6757 114.376L71.1612 124.576C71.3907 124.705 71.4911 124.962 71.4481 125.206L67.1448 144.961L82.2635 131.495C82.45 131.323 82.7369 131.294 82.9521 131.423L100.438 141.623L92.2901 123.114C92.1897 122.885 92.2471 122.613 92.4335 122.441L107.552 108.975L87.3987 110.995C87.1549 111.024 86.8967 110.88 86.7963 110.651L78.6488 92.1423L74.3456 111.897C74.2882 112.141 74.0874 112.327 73.8292 112.356L53.6757 114.376Z" fill="#561922"/>
<path d="M80.8435 199.728C80.8435 199.728 95.8331 197.264 100.438 206.146C105.042 215.028 108.642 236.287 106.95 240.27C105.257 244.252 88.5319 251.472 88.5319 251.472L88.9623 255.125C88.9623 255.125 74.2308 254.123 71.4194 230.313C69.9563 216.002 70.9173 203.911 80.8435 199.728Z" fill="#DD4B57"/>
<path d="M108.284 205.143C105.243 200.631 101.356 199.513 96.9376 200.387L97.1241 202.565C97.1241 202.565 98.9314 223.638 104.899 220.987C113.505 218.208 108.284 205.143 108.284 205.143Z" fill="#DD4B57"/>
<path d="M103.536 221.431C100.739 221.431 98.8023 219.798 97.5974 218.28C94.7429 214.67 93.8823 208.882 95.0585 206.49L95.704 206.805C94.6138 209.011 95.4745 214.426 98.1712 217.836C99.4765 219.483 101.743 221.302 105.128 220.529L105.286 221.231C104.669 221.374 104.081 221.431 103.536 221.431Z" fill="#561922"/>
<path d="M300.768 181.878C293.366 169.945 282.895 162.682 269.956 162.682C269.956 162.682 257.764 162.682 251.61 162.682C251.037 162.682 250.707 162.682 250.707 162.682H247.737H244.768C244.768 162.682 244.438 162.682 243.864 162.682C237.711 162.682 225.518 162.682 225.518 162.682C212.58 162.682 202.123 169.945 194.707 181.878C184.236 198.84 130.747 452.318 125.913 516.396C130.273 516.712 221.229 545.549 367.726 515.236C362.261 425.557 311.225 198.84 300.768 181.878Z" fill="#EA475B"/>
<path d="M126.845 515.308C206.971 531.009 286.337 523.015 366.851 508.704C368.242 508.46 369.548 509.52 369.749 511.067L373.32 538C373.507 539.404 372.746 540.851 371.484 541.123C288.546 559.331 206.01 559.044 123.919 541.094C122.7 540.822 121.954 539.461 122.068 538.1L123.876 517.786C124.034 516.153 125.396 515.021 126.845 515.308Z" fill="white"/>
<path d="M304.397 176.879C300.438 172.251 276.669 162.582 276.669 162.582L209.539 164.286C209.539 164.286 191.221 175.116 187.937 181.248C184.824 187.007 200.789 253.005 233.164 260.741C239.131 262.159 259.084 261.371 263.918 260.211C293.409 254.294 308.356 181.506 304.397 176.879Z" fill="white"/>
<path d="M214.172 518.674C182.859 518.674 153.21 515.694 125.855 509.821L126.013 509.119C156.164 515.608 189.156 518.545 224.027 517.872L227.699 259.867L228.416 259.881L224.729 518.574H224.385C220.957 518.631 217.543 518.674 214.172 518.674Z" fill="#561922"/>
<path d="M279.639 516.339L279.624 515.967L266.313 259.881L267.03 259.838L280.313 515.566C307.954 513.13 335.394 509.305 366.578 503.546L366.708 504.248C335.351 510.036 307.796 513.875 279.997 516.31L279.639 516.339Z" fill="#561922"/>
<path d="M233.106 248.507L231.342 534.934L275.895 532.799L260.934 248.507H233.106Z" fill="white"/>
<path d="M247.651 242.636L246.934 242.651L253.277 554.673L253.994 554.658L247.651 242.636Z" fill="#561922"/>
<path d="M176.855 238.467L169.132 278.896L169.836 279.03L177.559 238.601L176.855 238.467Z" fill="#561922"/>
<path d="M320.852 245.808L320.146 245.937L324.873 271.796L325.579 271.667L320.852 245.808Z" fill="#561922"/>
<path d="M245.83 211.776C262.297 211.776 290.296 204.728 290.296 188.282C297.856 182.838 290.483 151.035 279.553 134.847C277.659 130.421 275.924 127.298 275.092 122.556C272.624 108.545 260.532 96.3398 245.83 96.3398C231.27 96.3398 219.852 106.325 217.242 120.135C216.281 125.22 213.9 130.736 211.934 135.52C200.359 152.697 193.588 176.521 199.297 185.546C199.297 201.992 229.363 211.776 245.83 211.776Z" fill="white"/>
<path d="M245.83 177.065C259.83 177.065 271.276 165.633 271.276 151.651V123.759C271.276 109.777 259.83 98.3452 245.83 98.3452C231.83 98.3452 220.383 109.777 220.383 123.759V151.651C220.383 165.633 231.83 177.065 245.83 177.065Z" fill="#FFBA9C"/>
<path d="M266.944 128.615C269.627 126.424 273.442 125.034 276.583 127.154C279.51 129.131 281.417 133.042 280.284 136.581C279.596 138.729 278.004 140.148 276.067 141.122C272.997 142.655 267.231 143.729 264.707 140.577C264.348 140.133 264.104 139.603 263.989 139.045C262.641 132.14 266.93 128.63 266.944 128.615Z" fill="#FFBA9C"/>
<path d="M224.701 128.615C222.018 126.424 218.203 125.034 215.061 127.154C212.135 129.131 210.228 133.042 211.361 136.581C212.049 138.729 213.641 140.148 215.578 141.122C218.648 142.655 224.414 143.729 226.938 140.577C227.297 140.133 227.541 139.603 227.656 139.045C229.018 132.14 224.729 128.63 224.701 128.615Z" fill="#FFBA9C"/>
<path d="M268.135 111.568L264.678 141.494C269.627 146.293 271.879 145.677 272.911 142.597C272.911 142.597 268.006 128.673 273.7 126.323C279.395 123.96 268.135 111.568 268.135 111.568Z" fill="white"/>
<path d="M223.496 111.568L226.953 141.494C223.969 144.187 221.186 145.19 218.719 143.471C218.719 143.471 223.625 128.673 217.93 126.323C213.813 124.017 223.496 111.568 223.496 111.568Z" fill="white"/>
<path d="M207.631 214.97H285.333C285.778 213.552 286.309 212.163 286.911 210.802C287.141 211.461 287.37 212.134 287.6 212.793C289.866 206.59 291.258 200.072 291.717 193.468C292.176 194.384 292.635 195.301 293.108 196.218C295.001 176.033 288.288 158.728 288.288 158.728C288.288 158.728 281.977 160.175 278.319 154.76C276.999 152.797 275.895 150.949 274.432 149.388C273.987 148.428 273.499 147.583 272.94 147.01C272.94 147.01 260.791 127.527 245.873 135.033C228.731 127.283 218.805 147.01 218.805 147.01C218.762 147.067 218.719 147.181 218.691 147.253C218.676 147.296 218.662 147.339 218.633 147.382C217.686 147.869 216.754 148.37 215.865 148.943C209.195 153.241 203.988 158.9 203.988 158.9C203.988 158.9 198.795 173.67 200.861 191.548C201.506 189.743 202.496 188.067 203.73 186.62C202.109 196.189 203.558 206.217 207.631 214.97Z" fill="white"/>
<path d="M245.729 125.349C245.313 126.108 244.926 126.882 244.553 127.656C244.194 128.429 243.864 129.231 243.692 130.034C243.477 130.864 243.692 131.337 244.295 131.853C244.869 132.326 245.643 132.684 246.36 132.942L245.901 134.245C245.012 133.873 244.223 133.414 243.506 132.698C243.162 132.34 242.832 131.896 242.703 131.337C242.573 130.764 242.731 130.22 242.875 129.804C243.205 128.931 243.649 128.186 244.123 127.426C244.596 126.681 245.112 125.979 245.657 125.306L245.729 125.349Z" fill="#E28F71"/>
<path d="M219.852 144.531C221.301 146.866 223.338 148.972 225.877 149.975C226.508 150.19 227.182 150.376 227.813 150.405C228.43 150.405 229.076 150.175 229.693 149.918C230.926 149.359 232.074 148.6 233.178 147.783C235.387 146.136 237.453 144.288 239.461 142.368C240.465 141.408 241.44 140.434 242.416 139.431L243.864 137.927L244.582 137.168L244.94 136.781L245.471 136.194L246.002 136.781L246.36 137.168L247.078 137.927L248.526 139.431C249.502 140.42 250.477 141.408 251.481 142.368C253.489 144.273 255.555 146.136 257.764 147.783C258.868 148.6 260.03 149.359 261.25 149.918C261.866 150.175 262.512 150.405 263.129 150.405C263.76 150.39 264.434 150.19 265.065 149.975C267.59 148.972 269.627 146.866 271.09 144.531L271.176 144.574C269.827 147.009 267.891 149.244 265.266 150.462C264.592 150.734 263.918 150.963 263.157 151.035C262.368 151.064 261.666 150.849 260.977 150.605C259.629 150.075 258.409 149.345 257.233 148.571C254.881 146.995 252.7 145.219 250.563 143.385C249.502 142.468 248.455 141.523 247.422 140.577L245.887 139.13L245.485 138.744L245.084 139.13L243.549 140.577C242.516 141.537 241.483 142.468 240.408 143.385C238.285 145.219 236.09 146.995 233.738 148.571C232.561 149.345 231.342 150.089 229.994 150.605C229.32 150.849 228.602 151.078 227.813 151.035C227.039 150.963 226.379 150.734 225.705 150.462C223.066 149.244 221.143 147.009 219.795 144.574L219.852 144.531Z" fill="#E8D6CA"/>
<path d="M254.723 120.192C254.623 120.292 254.522 120.392 254.407 120.478C256.459 120.593 258.553 120.708 260.403 121.381C260.073 121.367 259.743 121.424 259.457 121.553C259.457 121.553 262.87 123.014 263.918 124.934C263.444 124.733 262.928 124.604 262.383 124.547C262.928 125.378 262.842 126.71 262.842 126.71C262.842 126.71 261.336 126.237 259.772 126.366C259.758 126.638 259.801 126.925 259.873 127.183C257.979 126.194 255.698 125.664 253.418 125.722C253.575 125.607 253.733 125.492 253.905 125.378C251.998 125.392 250.821 125.793 249.66 126.252C249.789 125.908 250.076 125.507 249.989 124.905C248.828 124.79 247.91 125.206 247.91 125.206C247.91 125.206 248.727 121.037 254.723 120.192Z" fill="white"/>
<path d="M235.043 120.135C235.143 120.235 235.244 120.335 235.358 120.421C233.307 120.536 231.213 120.65 229.363 121.324C229.692 121.309 230.022 121.367 230.309 121.495C230.309 121.495 226.895 122.957 225.848 124.876C226.322 124.676 226.838 124.547 227.383 124.49C226.838 125.32 226.924 126.653 226.924 126.653C226.924 126.653 228.43 126.18 229.994 126.309C230.008 126.581 229.965 126.868 229.893 127.125C231.787 126.137 234.067 125.607 236.348 125.664C236.19 125.55 236.033 125.435 235.86 125.32C237.768 125.335 238.944 125.736 240.106 126.194C239.977 125.85 239.69 125.449 239.776 124.848C240.938 124.733 241.856 125.148 241.856 125.148C241.856 125.148 241.039 120.994 235.043 120.135Z" fill="white"/>
<path d="M288.819 158.556C289.45 166.664 288.891 174.887 287.126 182.852C286.28 186.849 285.046 190.746 283.684 194.585C282.278 198.41 280.6 202.135 278.735 205.773C274.977 213.022 270.372 219.798 265.122 226.044C259.844 232.261 254.034 238.035 247.465 242.948L247.278 243.092L247.078 242.977C239.819 238.679 233.264 233.35 227.326 227.419C221.416 221.46 216.195 214.784 212.078 207.449C207.961 200.129 205.006 192.135 203.529 183.855C202.769 179.715 202.467 175.517 202.467 171.32C202.51 167.123 202.941 162.94 203.701 158.828C202.711 167.123 202.711 175.546 204.246 183.74C205.709 191.935 208.635 199.857 212.709 207.106C216.783 214.383 221.961 221.001 227.828 226.918C233.723 232.806 240.264 238.121 247.422 242.361L247.049 242.375C253.518 237.533 259.327 231.774 264.563 225.6C269.77 219.397 274.346 212.65 278.075 205.458C279.911 201.848 281.575 198.152 282.981 194.356C284.329 190.545 285.548 186.677 286.409 182.709C288.288 174.801 288.919 166.679 288.819 158.556Z" fill="#E8D6CA"/>
<path d="M265.051 138.228C266.629 139.531 268.235 141.122 269.842 142.855C268.493 140.362 267.002 138.07 265.295 136.065L265.051 138.228Z" fill="#E8D6CA"/>
<path d="M226.494 137.555C224.916 138.858 223.309 140.448 221.703 142.182C223.051 139.689 224.543 137.397 226.25 135.391L226.494 137.555Z" fill="#E8D6CA"/>
<path d="M234.742 128.916C236.879 128.902 237.783 130.621 237.783 130.621C237.438 129.26 236.205 128.257 234.742 128.257C233.279 128.257 232.045 129.26 231.701 130.621C231.701 130.635 232.604 128.931 234.742 128.916Z" fill="#5B1E27"/>
<path d="M237.783 130.994C237.654 130.994 237.524 130.922 237.467 130.807C237.438 130.75 236.621 129.289 234.756 129.289H234.742C232.863 129.303 232.045 130.75 232.016 130.807C231.93 130.965 231.744 131.037 231.572 130.965C231.399 130.893 231.313 130.721 231.356 130.549C231.758 129.002 233.149 127.914 234.742 127.914C236.334 127.914 237.725 129.002 238.127 130.549C238.17 130.721 238.084 130.908 237.912 130.965C237.869 130.979 237.826 130.994 237.783 130.994Z" fill="#5B1E27"/>
<path d="M256.143 128.916C258.28 128.902 259.184 130.621 259.184 130.621C258.84 129.26 257.606 128.257 256.143 128.257C254.68 128.257 253.446 129.26 253.102 130.621C253.102 130.635 254.02 128.931 256.143 128.916Z" fill="#5B1E27"/>
<path d="M259.184 130.994C259.055 130.994 258.926 130.922 258.868 130.807C258.84 130.75 258.036 129.289 256.157 129.289H256.143C254.264 129.303 253.446 130.75 253.418 130.807C253.332 130.965 253.131 131.037 252.973 130.965C252.801 130.893 252.715 130.721 252.758 130.549C253.159 129.002 254.551 127.914 256.143 127.914C257.735 127.914 259.127 129.002 259.528 130.549C259.571 130.721 259.485 130.908 259.313 130.965C259.27 130.979 259.227 130.994 259.184 130.994Z" fill="#5B1E27"/>
<path d="M266.27 92.171C258.596 86.5267 247.006 83.6902 236.42 85.5095C233.895 85.9393 231.471 86.6842 229.348 87.816C225.992 89.578 223.238 91.9847 221.402 94.7209C219.566 97.4571 217.686 101.182 219.752 104.119C220.77 105.565 222.606 106.568 224.486 107.385C227.885 108.846 231.6 109.806 235.373 110.594C240.881 111.74 246.561 112.542 252.27 112.513C257.979 112.485 263.76 111.625 268.809 109.634C270.329 109.032 271.864 108.273 272.897 107.227C274.088 106.01 275.278 106.511 274.805 105.121C274.131 100.05 270.918 95.5948 266.27 92.171Z" fill="#DD4B57"/>
<path d="M219.164 119.748C218.475 119.934 217.73 120.135 217.041 119.92C216.066 119.619 215.535 118.602 215.176 117.671C213.398 113.029 212.523 107.471 214 102.657C214.631 100.609 215.865 98.1305 217.93 97.1993C220.283 96.1249 222.936 95.7668 225.518 95.6808C229.434 95.5519 233.379 95.5949 237.281 95.7381C243.104 95.953 248.914 96.4974 254.68 97.3856C260.791 98.3168 266.872 99.5058 272.653 101.669C273.786 102.099 274.92 102.557 275.881 103.273C277.76 104.649 278.376 106.969 278.893 109.118C279.883 113.273 279.725 117.685 278.448 121.754C276.885 126.71 273.198 124.031 269.784 122.67C265.897 121.123 261.881 119.877 257.793 118.96C249.617 117.126 241.139 116.553 232.777 117.313C228.172 117.714 223.611 118.53 219.164 119.748Z" fill="white"/>
<path d="M246.117 116.525C246.375 116.525 246.59 116.31 246.59 116.052L246.604 99.0042C246.604 98.7464 246.389 98.5315 246.131 98.5315C245.873 98.5315 245.658 98.7464 245.658 99.0042L245.643 116.052C245.643 116.31 245.858 116.525 246.117 116.525Z" fill="#E8D6CA"/>
<path d="M245.787 101.741C245.973 101.927 246.26 101.927 246.446 101.741L248.412 99.7779C248.598 99.5917 248.598 99.3052 248.412 99.1189C248.225 98.9327 247.938 98.9327 247.752 99.1189L245.787 101.082C245.614 101.268 245.614 101.569 245.787 101.741Z" fill="#E8D6CA"/>
<path d="M246.446 101.741C246.26 101.927 245.959 101.927 245.787 101.741L243.821 99.7779C243.635 99.5917 243.635 99.2908 243.821 99.1189C244.008 98.9327 244.295 98.9327 244.481 99.1189L246.446 101.082C246.633 101.268 246.633 101.569 246.446 101.741Z" fill="#E8D6CA"/>
<path d="M246.461 113.072C246.274 112.886 245.987 112.886 245.801 113.072L243.836 115.035C243.649 115.221 243.649 115.507 243.836 115.694C244.022 115.88 244.309 115.88 244.496 115.694L246.461 113.731C246.633 113.559 246.647 113.258 246.461 113.072Z" fill="#E8D6CA"/>
<path d="M245.801 113.072C245.987 112.886 246.289 112.886 246.461 113.072L248.426 115.035C248.612 115.221 248.612 115.522 248.426 115.694C248.239 115.88 247.938 115.88 247.766 115.694L245.801 113.731C245.614 113.559 245.614 113.258 245.801 113.072Z" fill="#E8D6CA"/>
<path d="M240.321 107.857C240.508 107.671 240.508 107.385 240.321 107.198L238.356 105.236C238.17 105.05 237.883 105.05 237.696 105.236C237.51 105.422 237.51 105.709 237.696 105.895L239.662 107.857C239.848 108.044 240.135 108.044 240.321 107.857Z" fill="#E8D6CA"/>
<path d="M240.321 107.199C240.508 107.385 240.508 107.671 240.321 107.857L238.356 109.82C238.17 110.006 237.869 110.006 237.696 109.82C237.51 109.634 237.51 109.333 237.696 109.161L239.662 107.199C239.848 107.012 240.149 107.012 240.321 107.199Z" fill="#E8D6CA"/>
<path d="M251.911 107.199C251.725 107.385 251.725 107.671 251.911 107.857L253.877 109.82C254.063 110.006 254.35 110.006 254.536 109.82C254.723 109.634 254.723 109.347 254.536 109.161L252.571 107.199C252.385 107.027 252.098 107.027 251.911 107.199Z" fill="#E8D6CA"/>
<path d="M251.911 107.872C251.725 107.686 251.725 107.385 251.911 107.213L253.877 105.25C254.063 105.064 254.364 105.064 254.536 105.25C254.723 105.437 254.723 105.737 254.536 105.909L252.571 107.872C252.385 108.044 252.098 108.044 251.911 107.872Z" fill="#E8D6CA"/>
<path d="M241.785 103.674C242.043 103.674 242.258 103.459 242.258 103.202V100.422C242.258 100.165 242.043 99.9497 241.785 99.9497C241.526 99.9497 241.311 100.165 241.311 100.422V103.202C241.326 103.459 241.526 103.674 241.785 103.674Z" fill="#E8D6CA"/>
<path d="M242.258 103.202C242.258 103.46 242.043 103.675 241.785 103.675H239.002C238.744 103.675 238.528 103.46 238.528 103.202C238.528 102.944 238.744 102.729 239.002 102.729H241.785C242.043 102.729 242.258 102.944 242.258 103.202Z" fill="#E8D6CA"/>
<path d="M250.448 111.396C250.19 111.396 249.975 111.611 249.975 111.869V114.648C249.975 114.906 250.19 115.121 250.448 115.121C250.707 115.121 250.922 114.906 250.922 114.648V111.869C250.907 111.597 250.707 111.396 250.448 111.396Z" fill="#E8D6CA"/>
<path d="M249.975 111.854C249.975 111.596 250.19 111.382 250.448 111.382H253.231C253.489 111.382 253.705 111.596 253.705 111.854C253.705 112.112 253.489 112.327 253.231 112.327H250.448C250.19 112.327 249.975 112.112 249.975 111.854Z" fill="#E8D6CA"/>
<path d="M242.258 111.854C242.258 111.596 242.043 111.382 241.785 111.382H239.002C238.744 111.382 238.528 111.596 238.528 111.854C238.528 112.112 238.744 112.327 239.002 112.327H241.785C242.043 112.313 242.258 112.112 242.258 111.854Z" fill="#E8D6CA"/>
<path d="M241.785 111.382C242.043 111.382 242.258 111.596 242.258 111.854V114.634C242.258 114.891 242.043 115.106 241.785 115.106C241.526 115.106 241.311 114.891 241.311 114.634V111.854C241.311 111.596 241.526 111.382 241.785 111.382Z" fill="#E8D6CA"/>
<path d="M249.975 103.202C249.975 103.46 250.19 103.675 250.448 103.675H253.231C253.489 103.675 253.705 103.46 253.705 103.202C253.705 102.944 253.489 102.729 253.231 102.729H250.448C250.19 102.743 249.989 102.944 249.975 103.202Z" fill="#E8D6CA"/>
<path d="M250.448 103.674C250.19 103.674 249.975 103.459 249.975 103.202V100.422C249.975 100.165 250.19 99.9497 250.448 99.9497C250.707 99.9497 250.922 100.165 250.922 100.422V103.202C250.922 103.459 250.707 103.674 250.448 103.674Z" fill="#E8D6CA"/>
<path d="M255.125 107.542C255.125 107.284 254.909 107.069 254.651 107.069L237.582 107.055C237.324 107.055 237.108 107.27 237.108 107.528C237.108 107.786 237.324 108.001 237.582 108.001L254.651 108.015C254.909 108.001 255.125 107.8 255.125 107.542Z" fill="#E8D6CA"/>
<path d="M252.485 113.889C252.672 113.702 252.672 113.416 252.485 113.23L240.422 101.168C240.235 100.981 239.949 100.981 239.762 101.168C239.576 101.354 239.576 101.64 239.762 101.826L251.825 113.889C251.998 114.075 252.299 114.075 252.485 113.889Z" fill="#E8D6CA"/>
<path d="M252.5 101.182C252.313 100.995 252.026 100.995 251.84 101.182L239.762 113.23C239.576 113.416 239.576 113.702 239.762 113.889C239.949 114.075 240.235 114.075 240.422 113.889L252.5 101.841C252.672 101.654 252.672 101.354 252.5 101.182Z" fill="#E8D6CA"/>
<path d="M217.801 130.306C216.352 130.363 214.932 131.581 214.861 132.884C214.818 133.529 215.105 134.159 215.535 134.69C215.951 135.234 216.553 135.664 217.141 136.093L216.281 137.239C215.664 136.681 215.047 136.108 214.588 135.349C214.129 134.632 213.814 133.687 214 132.784C214.172 131.882 214.775 131.151 215.463 130.693C216.152 130.234 216.984 129.962 217.816 130.048L217.801 130.306Z" fill="#E28F71"/>
<path d="M273.256 130.034C274.088 129.948 274.92 130.22 275.608 130.678C276.297 131.137 276.899 131.867 277.071 132.77C277.258 133.687 276.942 134.618 276.483 135.334C276.038 136.093 275.407 136.666 274.79 137.225L273.93 136.079C274.518 135.664 275.12 135.234 275.536 134.675C275.967 134.145 276.268 133.515 276.211 132.87C276.139 131.566 274.719 130.334 273.27 130.291L273.256 130.034Z" fill="#E28F71"/>
<path d="M212.006 177.351C206.039 163.326 210.643 143.743 210.687 143.543L211.389 143.715C211.346 143.915 206.785 163.269 212.666 177.079L212.006 177.351Z" fill="#E8D6CA"/>
<path d="M268.594 200.86L268.077 200.372C268.178 200.258 278.477 189.313 281.36 175.317L282.063 175.46C279.122 189.657 268.694 200.745 268.594 200.86Z" fill="#E8D6CA"/>
<path d="M217.73 120.407C217.371 120.407 217.156 120.321 217.127 120.306L217.414 119.647L217.271 119.977L217.414 119.647C217.428 119.647 217.701 119.762 218.189 119.633C218.834 119.476 224.213 118.186 224.213 118.186L224.385 118.888C224.385 118.888 219.006 120.178 218.361 120.335C218.117 120.392 217.902 120.407 217.73 120.407Z" fill="#E8D6CA"/>
<path d="M275.379 124.977C274.905 124.977 274.389 124.891 273.801 124.719L266.858 121.94L267.131 121.281L274.045 124.046C274.59 124.203 275.092 124.289 275.522 124.26L275.551 124.977C275.493 124.977 275.436 124.977 275.379 124.977Z" fill="#E8D6CA"/>
<path d="M245.428 142.497C244.18 142.497 242.932 142.024 241.942 141.093L242.43 140.577C244.123 142.182 246.705 142.182 248.426 140.577L248.914 141.107C247.924 142.024 246.676 142.497 245.428 142.497Z" fill="#E8D6CA"/>
<path d="M403.142 471.557C402.467 470.11 403.314 467.962 406.943 465.942C415.291 463.033 438.873 455.985 472.481 460.283C487.686 462.231 489.924 465.856 501.012 465.211C521.968 463.979 534.62 461.529 535.251 470.712C534.017 474.351 529.184 481.299 529.184 481.299L499.319 487.888C499.319 487.888 467.69 489.751 466.887 489.923C466.084 490.095 436.377 489.923 436.377 489.923L410.816 480.196L403.142 471.557Z" fill="#D32946"/>
<path d="M499.477 426.46C499.477 426.46 489.364 411.132 481.36 413.753C473.356 416.375 477.803 428.738 477.803 428.738L499.606 431.961L499.477 426.46Z" fill="#DD4B57"/>
<path d="M502.962 426.976C502.962 426.976 517.12 415.243 524.12 420.085C531.134 424.927 523.302 435.485 523.302 435.485L501.27 432.219L502.962 426.976Z" fill="#DD4B57"/>
<path d="M493.883 431.13C493.883 431.13 494.313 425.271 500.71 426.074C507.108 426.876 506.993 433.079 506.993 433.079L493.883 431.13Z" fill="#DD4B57"/>
<path d="M528.395 448.439L467.208 439.591L456.783 511.502L517.969 520.35L528.395 448.439Z" fill="#C2C460"/>
<path d="M534.921 436.924L464.223 426.701L462.455 438.894L533.153 449.118L534.921 436.924Z" fill="#C2C460"/>
<path d="M481.95 429.269L464.219 426.705L462.451 438.898L480.182 441.462L481.95 429.269Z" fill="#ADAD40"/>
<path d="M467.217 439.568L466.241 446.33L456.789 511.469L473.5 513.89L483.096 447.763L483.928 441.989L467.217 439.568Z" fill="#ADAD40"/>
<path d="M504.387 432.267L496.565 431.136L484.336 515.482L492.159 516.613L504.387 432.267Z" fill="#DD4B57"/>
<path d="M493.825 430.916L493.108 430.815C493.825 425.715 499.075 425.5 499.133 425.5L499.161 426.217C498.975 426.217 494.456 426.417 493.825 430.916Z" fill="#561922"/>
<path d="M507.61 432.864L506.893 432.849C506.979 428.881 503.106 426.976 503.063 426.962L503.378 426.317C503.551 426.389 507.71 428.423 507.61 432.864Z" fill="#561922"/>
<path d="M528.337 448.765L467.159 439.926L467.274 439.21L528.452 448.063L528.337 448.765Z" fill="#561922"/>
<path d="M504.296 432.849L496.479 431.718L496.579 431.001L504.411 432.133L504.296 432.849Z" fill="#561922"/>
<path d="M441.268 444.668C441.268 444.668 430.883 435.686 425.891 439.382C420.914 443.078 426.723 451.143 426.723 451.143L442.574 448.665L441.268 444.668Z" fill="#DD4B57"/>
<path d="M444.166 444.224C444.166 444.224 451.324 432.506 457.19 434.511C463.057 436.517 459.987 445.972 459.987 445.972L444.137 448.45L444.166 444.224Z" fill="#DD4B57"/>
<path d="M437.223 449.51C437.223 449.51 436.147 445.141 442.1 444.095C448.053 443.049 449.502 447.59 449.502 447.59L437.223 449.51Z" fill="#DD4B57"/>
<path d="M436.865 449.539C436.578 445.27 440.738 444.009 440.781 443.995L440.982 444.682C440.838 444.725 437.338 445.8 437.582 449.481L436.865 449.539Z" fill="#561922"/>
<path d="M450.42 447.533C449.129 444.138 444.438 444.253 444.395 444.253L444.367 443.536C444.582 443.536 449.617 443.422 451.08 447.29L450.42 447.533Z" fill="#561922"/>
<path d="M425.805 526.009L412.078 462.604L458.682 455.341L461.68 520.408L425.805 526.009Z" fill="#DD9547"/>
<path d="M436.391 524.361L424.156 460.713L468.436 453.808L475.25 518.302L436.391 524.361Z" fill="#EDAC5F"/>
<path d="M470.444 457.533L410.529 466.887L407.617 454.037L469.297 444.425L470.444 457.533Z" fill="#DD9547"/>
<path d="M419.795 452.146L422.592 465.011L470.444 457.533L469.297 444.425L419.795 452.146Z" fill="#EDAC5F"/>
<path d="M450.095 460.711L440.968 462.134L450.45 522.769L459.577 521.345L450.095 460.711Z" fill="#DD4B57"/>
<path d="M448.522 447.659L438.488 449.224L440.518 462.203L450.552 460.638L448.522 447.659Z" fill="#DD4B57"/>
<path d="M468.779 457.403L412.856 466.12L412.967 466.827L468.889 458.111L468.779 457.403Z" fill="#561922"/>
<path d="M549.337 576.378C549.337 576.378 545.091 537.083 527.261 499.478C526.042 496.914 528.509 495.324 528.925 492.86C529.341 490.381 525.225 490.396 527.348 488.003C530.345 484.637 536.958 475.511 536.958 469.681C519.329 484.006 417.012 488.848 401.793 471.214C401.793 477.03 406.269 484.637 409.267 488.003C411.39 490.396 407.273 490.396 407.689 492.86C408.105 495.338 410.572 496.914 409.353 499.478C391.509 537.083 387.277 576.378 387.277 576.378C387.277 576.378 372.947 597.265 376.777 599.657C381.869 602.666 554.73 602.666 559.823 599.657C563.667 597.265 549.337 576.378 549.337 576.378Z" fill="#EA475B"/>
<path d="M402.668 473.52C402.668 473.52 398.882 468.32 406.943 465.942C402.166 469.122 405.91 472.718 416.295 476.514C425.82 479.995 452.285 484.135 475.45 482.989C518.239 480.167 531.206 472.259 531.206 472.259C538.794 468.692 531.048 465.039 531.048 465.039C537.733 467.288 539.181 470.196 533.157 474.079C499.104 492.057 418.834 488.318 402.668 473.52Z" fill="#EA475B"/>
<path d="M466.414 486.499C465.955 486.499 465.496 486.499 465.037 486.499C438.887 486.37 415.435 482.202 405.265 475.898L405.638 475.297C415.707 481.543 439.016 485.654 465.037 485.797C465.496 485.797 465.955 485.797 466.414 485.797C494.27 485.797 518.469 481.428 532.97 473.764L533.3 474.394C518.712 482.101 494.385 486.499 466.414 486.499Z" fill="#561922"/>
<path d="M455.082 475.397C458.582 474.609 462.225 475.067 465.768 475.597C466.614 475.726 467.461 475.855 468.307 475.741C469.211 475.626 470.057 475.225 470.889 474.824C474.475 473.133 478.061 471.429 481.633 469.738C485.649 467.833 490.584 465.985 494.27 468.463C497.096 470.368 498.157 474.136 498.631 477.331C498.831 478.663 498.803 480.411 497.799 481.413C496.78 482.416 495.231 482.517 493.911 482.789C491.301 483.347 488.59 483.562 485.936 483.835C483.168 484.121 480.399 484.307 477.616 484.408C476.368 484.451 475.121 484.494 473.873 484.522C473.801 484.522 473.729 484.522 473.643 484.522C468.623 484.651 463.617 484.622 458.596 484.479C456.33 484.422 454.006 484.465 451.768 484.135C450.363 483.935 448.297 483.706 447.695 482.201C446.992 480.468 448.742 478.677 449.99 477.717C451.481 476.586 453.274 475.798 455.082 475.397Z" fill="white"/>
<path d="M427.541 497.071C414.359 495.367 409.582 489.035 409.381 488.777L409.955 488.361C409.998 488.419 414.775 494.708 427.627 496.369L427.541 497.071Z" fill="#561922"/>
<path d="M508.098 497.086L508.069 496.369C508.184 496.369 519.989 495.925 526.501 489.121L527.018 489.622C520.304 496.627 508.212 497.071 508.098 497.086Z" fill="#561922"/>
<path d="M431.184 510.423C422.133 508.647 413.957 503.862 409.826 497.931L410.414 497.516C414.445 503.303 422.463 507.973 431.328 509.707L431.184 510.423Z" fill="#561922"/>
<path d="M500.381 507.171L500.323 506.454C500.481 506.44 515.628 505.036 526.745 497.429L527.147 498.017C515.858 505.724 500.538 507.156 500.381 507.171Z" fill="#561922"/>
<path d="M438.629 449.568L438.514 448.866L448.469 447.304L448.584 448.02L438.629 449.568Z" fill="#561922"/>
<path d="M470.143 595.417C449.301 595.417 428.301 591.248 407.316 582.925L407.588 582.266C449.387 598.855 491.2 598.855 531.837 582.266L532.11 582.925C511.698 591.248 490.985 595.417 470.143 595.417Z" fill="#561922"/>
<path d="M374.855 104.133C374.669 105.823 374.669 107.657 375.458 109.204C376.189 110.665 377.595 111.668 379.015 112.442C380.048 113 381.152 113.473 382.328 113.459C384.064 113.43 385.613 112.556 386.89 111.439C388.095 110.379 389.529 108.989 389.988 107.413C390.404 105.995 390.06 104.319 389.357 103.044C387.736 100.079 384.121 99.0759 380.966 99.0186C378.24 98.9613 375.171 101.225 374.855 104.133Z" fill="white"/>
<path d="M553.296 191.677C553.11 193.367 553.11 195.201 553.899 196.748C554.63 198.209 556.036 199.212 557.456 199.986C558.489 200.545 559.593 201.017 560.769 201.003C562.505 200.974 564.054 200.1 565.331 198.983C566.536 197.923 567.97 196.533 568.429 194.958C568.845 193.539 568.501 191.863 567.798 190.588C566.177 187.623 562.562 186.62 559.407 186.563C556.696 186.491 553.612 188.755 553.296 191.677Z" fill="white"/>
<path d="M60.6469 501.67C60.4605 503.36 60.4605 505.194 61.235 506.741C61.9666 508.202 63.3723 509.205 64.7924 509.978C65.8252 510.537 66.9297 511.01 68.1059 510.996C69.8415 510.967 71.3907 510.093 72.6673 508.976C73.8722 507.916 75.3066 506.526 75.7656 504.95C76.1816 503.532 75.8374 501.856 75.1345 500.581C73.5136 497.615 69.8989 496.613 66.7432 496.555C64.0321 496.498 60.9482 498.761 60.6469 501.67Z" fill="white"/>
<path d="M569.046 262.947C568.859 264.638 568.859 266.471 569.648 268.018C570.38 269.48 571.786 270.483 573.206 271.256C574.238 271.815 575.343 272.288 576.519 272.273C578.255 272.245 579.804 271.371 581.081 270.253C582.286 269.193 583.72 267.804 584.179 266.228C584.595 264.81 584.251 263.133 583.548 261.858C581.927 258.893 578.312 257.89 575.157 257.833C572.431 257.761 569.347 260.025 569.046 262.947Z" fill="white"/>
<path d="M292.95 329.476C292.764 331.166 292.764 333 293.553 334.547C294.284 336.008 295.69 337.011 297.11 337.785C298.143 338.343 299.247 338.816 300.423 338.802C302.159 338.773 303.708 337.899 304.985 336.782C306.19 335.722 307.624 334.332 308.083 332.756C308.499 331.338 308.155 329.662 307.452 328.387C305.831 325.422 302.216 324.419 299.061 324.361C296.335 324.304 293.251 326.568 292.95 329.476Z" fill="white"/>
<path d="M46.8909 398.511C46.7045 400.201 46.7045 402.035 47.4791 403.582C48.2106 405.043 49.6163 406.046 51.0364 406.82C52.0692 407.378 53.1737 407.851 54.3499 407.837C56.0855 407.808 57.6347 406.934 58.9113 405.817C60.1162 404.757 61.5506 403.367 62.0097 401.791C62.4256 400.373 62.0814 398.697 61.3785 397.422C59.7576 394.457 56.1429 393.454 52.9872 393.397C50.2762 393.339 47.1922 395.603 46.8909 398.511Z" fill="white"/>
<path d="M395.783 329.476C395.597 331.166 395.597 333 396.371 334.547C397.103 336.008 398.509 337.011 399.929 337.785C400.961 338.343 402.066 338.816 403.242 338.802C404.978 338.773 406.527 337.899 407.804 336.782C409.008 335.722 410.443 334.332 410.902 332.756C411.318 331.338 410.974 329.662 410.271 328.387C408.65 325.422 405.035 324.419 401.879 324.361C399.183 324.304 396.099 326.568 395.783 329.476Z" fill="white"/>
<path d="M497.641 396.72C497.454 398.41 497.454 400.244 498.229 401.791C498.96 403.252 500.366 404.255 501.786 405.029C502.819 405.587 503.924 406.06 505.1 406.046C506.835 406.017 508.385 405.143 509.661 404.026C510.866 402.966 512.3 401.576 512.759 400C513.175 398.582 512.831 396.906 512.128 395.631C510.507 392.666 506.893 391.663 503.737 391.606C501.04 391.548 497.956 393.812 497.641 396.72Z" fill="white"/>
<path d="M588.712 565.319C588.525 567.009 588.525 568.843 589.3 570.39C590.031 571.851 591.437 572.854 592.857 573.627C593.89 574.186 594.994 574.659 596.171 574.645C597.906 574.616 599.455 573.742 600.732 572.625C601.937 571.565 603.371 570.175 603.83 568.599C604.246 567.181 603.902 565.505 603.199 564.23C601.578 561.264 597.964 560.262 594.808 560.204C592.097 560.133 589.027 562.396 588.712 565.319Z" fill="white"/>
<path d="M162.046 484.837C161.859 486.528 161.859 488.361 162.634 489.908C163.365 491.37 164.771 492.372 166.191 493.146C167.224 493.705 168.328 494.177 169.504 494.163C171.24 494.134 172.789 493.261 174.066 492.143C175.271 491.083 176.705 489.694 177.164 488.118C177.58 486.699 177.236 485.023 176.533 483.748C174.912 480.783 171.298 479.78 168.142 479.723C165.431 479.651 162.361 481.915 162.046 484.837Z" fill="white"/>
<path d="M186.861 25.8289C186.675 27.5194 186.674 29.3531 187.449 30.9002C188.181 32.3614 189.586 33.3642 191.006 34.1378C192.039 34.6965 193.144 35.1693 194.32 35.1549C196.056 35.1263 197.605 34.2524 198.881 33.135C200.086 32.0749 201.521 30.6853 201.98 29.1095C202.396 27.6913 202.051 26.0152 201.349 24.7402C199.728 21.7748 196.113 20.772 192.957 20.7147C190.261 20.6574 187.177 22.9208 186.861 25.8289Z" fill="white"/>
<path d="M7.58803 208.567C7.40155 210.257 7.40155 212.091 8.17614 213.638C8.90769 215.099 10.3134 216.102 11.7335 216.876C12.7663 217.435 13.8708 217.907 15.047 217.893C16.7826 217.864 18.3318 216.99 19.6084 215.873C20.8133 214.813 22.2477 213.423 22.7067 211.848C23.1227 210.429 22.7785 208.753 22.0756 207.478C20.4547 204.513 16.84 203.51 13.6843 203.453C10.9732 203.395 7.9036 205.659 7.58803 208.567Z" fill="white"/>
<path d="M175.285 351.823C175.099 353.514 175.099 355.347 175.888 356.895C176.619 358.356 178.025 359.359 179.445 360.132C180.478 360.691 181.582 361.164 182.758 361.149C184.494 361.121 186.043 360.247 187.32 359.129C188.525 358.069 189.959 356.68 190.418 355.104C190.834 353.686 190.49 352.01 189.787 350.735C188.166 347.769 184.551 346.766 181.396 346.709C178.67 346.652 175.586 348.915 175.285 351.823Z" fill="white"/>
<path d="M448.526 526.983C448.34 528.673 448.34 530.507 449.129 532.054C449.86 533.515 451.266 534.518 452.686 535.292C453.719 535.851 454.824 536.323 456 536.309C457.735 536.28 459.285 535.406 460.561 534.289C461.766 533.229 463.201 531.839 463.66 530.264C464.076 528.845 463.731 527.169 463.028 525.894C461.407 522.929 457.793 521.926 454.637 521.869C451.926 521.811 448.842 524.075 448.526 526.983Z" fill="white"/>
<path d="M420.699 150.906C420.226 151.336 419.953 151.938 419.881 152.711C419.81 153.442 419.967 154.23 420.469 154.76C421.56 155.892 424.027 156.035 424.916 154.602C425.203 154.144 425.332 153.6 425.404 153.07C425.49 152.454 425.49 151.78 425.146 151.25C424.529 150.29 423.252 150.061 422.191 150.233C421.588 150.333 421.086 150.548 420.699 150.906Z" fill="white"/>
<path d="M509.948 83.9769C509.475 84.4067 509.202 85.0084 509.13 85.7819C509.059 86.5125 509.216 87.3005 509.719 87.8305C510.809 88.9622 513.276 89.1055 514.165 87.6729C514.452 87.2145 514.581 86.6701 514.653 86.1401C514.739 85.5241 514.739 84.8508 514.395 84.3207C513.778 83.3609 512.501 83.1317 511.44 83.3036C510.837 83.4039 510.335 83.6331 509.948 83.9769Z" fill="white"/>
<path d="M507.151 320.336C506.678 320.765 506.405 321.367 506.333 322.141C506.262 322.871 506.419 323.659 506.921 324.189C508.012 325.321 510.479 325.464 511.368 324.032C511.655 323.573 511.784 323.029 511.856 322.499C511.942 321.883 511.942 321.209 511.598 320.679C510.981 319.72 509.704 319.49 508.643 319.662C508.04 319.763 507.538 319.992 507.151 320.336Z" fill="white"/>
<path d="M467.045 109.362C466.571 109.792 466.299 110.393 466.227 111.167C466.155 111.898 466.313 112.685 466.815 113.216C467.905 114.347 470.373 114.49 471.262 113.058C471.549 112.6 471.678 112.055 471.75 111.525C471.836 110.909 471.836 110.236 471.491 109.706C470.875 108.746 469.598 108.517 468.537 108.689C467.934 108.789 467.432 109.018 467.045 109.362Z" fill="white"/>
<path d="M37.4525 33.3788C36.9791 33.8085 36.7066 34.4102 36.6349 35.1838C36.5631 35.9144 36.7209 36.7023 37.223 37.2324C38.3131 38.3641 40.7803 38.5073 41.6697 37.0748C41.9565 36.6164 42.0856 36.072 42.1574 35.5419C42.2434 34.9259 42.2434 34.2526 41.8992 33.7226C41.2824 32.7628 40.0057 32.5335 38.9443 32.7055C38.3275 32.8057 37.8254 33.0349 37.4525 33.3788Z" fill="white"/>
<path d="M463.229 433.709C462.756 434.139 462.483 434.741 462.412 435.514C462.34 436.245 462.498 437.033 463 437.563C464.09 438.694 466.557 438.838 467.446 437.405C467.733 436.947 467.862 436.402 467.934 435.872C468.02 435.256 468.02 434.583 467.676 434.053C467.059 433.093 465.783 432.864 464.721 433.036C464.119 433.136 463.617 433.365 463.229 433.709Z" fill="white"/>
<path d="M470.244 572.625C469.77 573.054 469.498 573.656 469.426 574.43C469.354 575.16 469.512 575.948 470.014 576.478C471.104 577.61 473.571 577.753 474.461 576.321C474.748 575.862 474.877 575.318 474.948 574.788C475.034 574.172 475.034 573.498 474.69 572.968C474.073 572.009 472.797 571.779 471.735 571.951C471.133 572.052 470.631 572.281 470.244 572.625Z" fill="white"/>
<path d="M320.247 385.317C319.774 385.747 319.501 386.348 319.429 387.122C319.358 387.853 319.515 388.641 320.017 389.171C321.108 390.302 323.575 390.446 324.464 389.013C324.751 388.555 324.88 388.01 324.952 387.48C325.038 386.864 325.038 386.191 324.694 385.661C324.077 384.701 322.8 384.472 321.739 384.644C321.136 384.744 320.62 384.973 320.247 385.317Z" fill="white"/>
<path d="M380.865 183.597C380.392 184.027 380.119 184.629 380.048 185.402C379.976 186.133 380.134 186.921 380.636 187.451C381.726 188.583 384.193 188.726 385.082 187.293C385.369 186.835 385.498 186.29 385.57 185.76C385.656 185.144 385.656 184.471 385.312 183.941C384.695 182.981 383.418 182.752 382.357 182.924C381.755 183.024 381.253 183.253 380.865 183.597Z" fill="white"/>
<path d="M560.884 453.32C560.411 453.75 560.138 454.352 560.066 455.125C559.995 455.856 560.152 456.644 560.655 457.174C561.745 458.306 564.212 458.449 565.101 457.016C565.388 456.558 565.517 456.014 565.589 455.484C565.675 454.868 565.675 454.194 565.331 453.664C564.714 452.704 563.437 452.475 562.376 452.647C561.773 452.747 561.257 452.977 560.884 453.32Z" fill="white"/>
<path d="M190.504 249.968C190.031 250.398 189.759 251 189.687 251.773C189.615 252.504 189.773 253.292 190.275 253.822C191.365 254.953 193.832 255.097 194.722 253.664C195.008 253.206 195.138 252.661 195.209 252.131C195.295 251.515 195.295 250.842 194.951 250.312C194.334 249.352 193.058 249.123 191.996 249.295C191.394 249.395 190.892 249.624 190.504 249.968Z" fill="white"/>
<path d="M398.293 415.243C397.82 415.673 397.547 416.275 397.476 417.048C397.404 417.779 397.562 418.567 398.064 419.097C399.154 420.229 401.621 420.372 402.511 418.939C402.797 418.481 402.927 417.936 402.998 417.406C403.084 416.79 403.084 416.117 402.74 415.587C402.123 414.627 400.847 414.398 399.785 414.57C399.183 414.67 398.681 414.899 398.293 415.243Z" fill="white"/>
<path d="M167.683 163.928C167.21 164.358 166.937 164.96 166.865 165.733C166.794 166.464 166.951 167.252 167.453 167.782C168.544 168.914 171.011 169.057 171.9 167.624C172.187 167.166 172.316 166.622 172.388 166.091C172.474 165.475 172.474 164.802 172.13 164.272C171.513 163.312 170.236 163.083 169.175 163.255C168.572 163.355 168.07 163.585 167.683 163.928Z" fill="white"/>
<path d="M52.5282 364.459C52.0548 364.888 51.7823 365.49 51.7105 366.264C51.6388 366.994 51.7966 367.782 52.2987 368.312C53.3888 369.444 55.856 369.587 56.7453 368.155C57.0322 367.696 57.1613 367.152 57.233 366.622C57.3191 366.006 57.3191 365.332 56.9748 364.802C56.358 363.843 55.0814 363.613 54.02 363.785C53.4175 363.886 52.9011 364.115 52.5282 364.459Z" fill="white"/>
<path d="M339.081 15.973C338.607 16.4028 338.335 17.0044 338.263 17.778C338.192 18.5086 338.349 19.2965 338.851 19.8266C339.941 20.9583 342.409 21.1016 343.298 19.669C343.585 19.2106 343.714 18.6662 343.786 18.1362C343.872 17.5202 343.872 16.8469 343.528 16.3168C342.911 15.357 341.634 15.1278 340.573 15.2997C339.97 15.4 339.468 15.6292 339.081 15.973Z" fill="white"/>
<path d="M494.327 357.238C493.854 357.668 493.581 358.27 493.51 359.043C493.438 359.774 493.596 360.562 494.098 361.092C495.188 362.224 497.655 362.367 498.544 360.934C498.831 360.476 498.96 359.932 499.032 359.402C499.118 358.786 499.118 358.112 498.774 357.582C498.157 356.622 496.881 356.393 495.819 356.565C495.217 356.665 494.715 356.88 494.327 357.238Z" fill="white"/>
<path d="M323.044 217.907C322.571 218.337 322.298 218.939 322.226 219.712C322.155 220.443 322.313 221.231 322.815 221.761C323.905 222.893 326.372 223.036 327.261 221.603C327.548 221.145 327.677 220.601 327.749 220.07C327.835 219.454 327.835 218.781 327.491 218.251C326.874 217.291 325.597 217.062 324.536 217.234C323.919 217.334 323.417 217.549 323.044 217.907Z" fill="white"/>
<path d="M0.831936 315.408C0.358579 315.837 0.086041 316.439 0.0143204 317.213C-0.0574002 317.943 0.100385 318.731 0.60243 319.261C1.69258 320.393 4.15977 320.536 5.04911 319.104C5.33599 318.645 5.46509 318.101 5.53681 317.571C5.62287 316.955 5.62287 316.281 5.27862 315.751C4.66182 314.792 3.38519 314.562 2.32372 314.734C1.72127 314.835 1.21923 315.064 0.831936 315.408Z" fill="white"/>
<path d="M346.568 527.069C346.095 527.499 345.822 528.1 345.751 528.874C345.679 529.605 345.837 530.392 346.339 530.923C347.429 532.054 349.896 532.198 350.786 530.765C351.072 530.307 351.202 529.762 351.273 529.232C351.359 528.616 351.359 527.943 351.015 527.413C350.398 526.453 349.122 526.224 348.06 526.396C347.458 526.496 346.956 526.725 346.568 527.069Z" fill="white"/>
<path d="M443.047 340.449C442.574 340.879 442.301 341.48 442.229 342.254C442.158 342.984 442.315 343.772 442.818 344.302C443.908 345.434 446.375 345.577 447.264 344.145C447.551 343.686 447.68 343.142 447.752 342.612C447.838 341.996 447.838 341.323 447.494 340.793C446.877 339.833 445.6 339.604 444.539 339.776C443.936 339.876 443.42 340.105 443.047 340.449Z" fill="white"/>
<path d="M293.682 282.688C293.208 283.118 292.936 283.719 292.864 284.493C292.792 285.223 292.95 286.011 293.452 286.541C294.542 287.673 297.009 287.816 297.899 286.384C298.186 285.925 298.315 285.381 298.387 284.851C298.473 284.235 298.473 283.562 298.128 283.032C297.512 282.072 296.235 281.843 295.173 282.015C294.571 282.115 294.069 282.33 293.682 282.688Z" fill="white"/>
<path d="M394.507 275.898C394.033 276.327 393.761 276.929 393.689 277.703C393.617 278.433 393.775 279.221 394.277 279.751C395.367 280.883 397.834 281.026 398.724 279.594C399.011 279.135 399.14 278.591 399.211 278.061C399.297 277.445 399.297 276.771 398.953 276.241C398.336 275.282 397.06 275.052 395.998 275.224C395.396 275.325 394.894 275.554 394.507 275.898Z" fill="white"/>
<path d="M40.2496 457.26C39.7762 457.69 39.5037 458.292 39.432 459.065C39.3603 459.796 39.518 460.584 40.0201 461.114C41.1102 462.246 43.5774 462.389 44.4668 460.956C44.7537 460.498 44.8828 459.954 44.9545 459.424C45.0405 458.808 45.0405 458.134 44.6963 457.604C44.0795 456.644 42.8029 456.415 41.7414 456.587C41.1246 456.687 40.6225 456.917 40.2496 457.26Z" fill="white"/>
<path d="M142.251 454.524C141.777 454.954 141.505 455.555 141.433 456.329C141.361 457.06 141.519 457.848 142.021 458.378C143.111 459.509 145.579 459.653 146.468 458.22C146.755 457.762 146.884 457.217 146.956 456.687C147.042 456.071 147.042 455.398 146.697 454.868C146.081 453.908 144.804 453.679 143.743 453.851C143.14 453.951 142.624 454.18 142.251 454.524Z" fill="white"/>
<path d="M3.62905 427.463C3.1557 427.893 2.88316 428.494 2.81144 429.268C2.73972 429.999 2.8975 430.787 3.39955 431.317C4.4897 432.448 6.95689 432.592 7.84623 431.159C8.13311 430.701 8.26221 430.156 8.33393 429.626C8.41999 429.01 8.41999 428.337 8.07574 427.807C7.45894 426.847 6.18231 426.618 5.12084 426.79C4.51839 426.89 4.01635 427.119 3.62905 427.463Z" fill="white"/>
<path d="M139.454 555.734C138.98 556.164 138.708 556.766 138.636 557.54C138.564 558.27 138.722 559.058 139.224 559.588C140.314 560.72 142.781 560.863 143.671 559.431C143.958 558.972 144.087 558.428 144.158 557.898C144.245 557.282 144.245 556.608 143.9 556.078C143.283 555.118 142.007 554.889 140.945 555.061C140.343 555.161 139.841 555.391 139.454 555.734Z" fill="white"/>
<path d="M176.863 86.713C176.39 87.1428 176.117 87.7444 176.045 88.518C175.974 89.2486 176.132 90.0365 176.634 90.5666C177.724 91.6983 180.191 91.8416 181.08 90.409C181.367 89.9506 181.496 89.4062 181.568 88.8762C181.654 88.2602 181.654 87.5869 181.31 87.0568C180.693 86.097 179.416 85.8678 178.355 86.0397C177.752 86.14 177.25 86.3692 176.863 86.713Z" fill="white"/>
<path d="M434.096 30.6568C433.623 31.0866 433.35 31.6883 433.279 32.4619C433.207 33.1925 433.365 33.9804 433.867 34.5104C434.957 35.6422 437.424 35.7854 438.314 34.3529C438.6 33.8944 438.73 33.3501 438.801 32.82C438.887 32.204 438.887 31.5307 438.543 31.0007C437.926 30.0408 436.65 29.8116 435.588 29.9835C434.986 30.0838 434.484 30.2987 434.096 30.6568Z" fill="white"/>
<path d="M404.218 218.051C403.744 218.48 403.472 219.082 403.4 219.856C403.328 220.586 403.486 221.374 403.988 221.904C405.078 223.036 407.545 223.179 408.435 221.747C408.722 221.288 408.851 220.744 408.922 220.214C409.008 219.598 409.008 218.924 408.664 218.394C408.047 217.435 406.771 217.205 405.709 217.377C405.107 217.478 404.605 217.707 404.218 218.051Z" fill="white"/>
<path d="M544.747 154.387C544.273 154.817 544.001 155.419 543.929 156.192C543.858 156.923 544.015 157.711 544.517 158.241C545.607 159.373 548.075 159.516 548.964 158.083C549.251 157.625 549.38 157.081 549.452 156.55C549.538 155.934 549.538 155.261 549.194 154.731C548.577 153.771 547.3 153.542 546.239 153.714C545.622 153.814 545.12 154.043 544.747 154.387Z" fill="white"/>
<path d="M392.097 126.753C391.279 126.982 390.677 127.813 390.705 128.659C390.734 129.504 391.408 130.277 392.24 130.449C393.072 130.607 393.99 130.134 394.334 129.361C394.564 128.845 394.564 128.243 394.449 127.699C394.392 127.398 394.306 127.083 394.076 126.868C393.589 126.381 392.757 126.581 392.111 126.839" fill="white"/>
<path d="M474.518 44.1373C473.7 44.3665 473.098 45.1974 473.127 46.0426C473.155 46.8878 473.83 47.6614 474.662 47.8333C475.494 47.9909 476.412 47.5181 476.756 46.7445C476.985 46.2288 476.985 45.6271 476.871 45.0828C476.813 44.7819 476.727 44.4668 476.498 44.2519C476.01 43.7648 475.178 43.9654 474.532 44.2232" fill="white"/>
<path d="M120.017 44.1373C119.2 44.3665 118.597 45.1974 118.626 46.0426C118.655 46.8878 119.329 47.6614 120.161 47.8333C120.993 47.9909 121.911 47.5181 122.255 46.7445C122.485 46.2288 122.484 45.6271 122.37 45.0828C122.312 44.7819 122.226 44.4668 121.997 44.2519C121.509 43.7648 120.677 43.9654 120.032 44.2232" fill="white"/>
<path d="M48.9565 93.8328C48.1389 94.062 47.5364 94.8929 47.5651 95.7381C47.5938 96.5833 48.268 97.3569 49.1 97.5288C49.9319 97.6864 50.8499 97.2137 51.1942 96.4401C51.4237 95.9244 51.4237 95.3227 51.3089 94.7783C51.2516 94.4775 51.1655 94.1623 50.936 93.9474C50.4483 93.4604 49.6163 93.6609 48.9709 93.9188" fill="white"/>
<path d="M287.528 44.1373C286.71 44.3665 286.108 45.1974 286.137 46.0426C286.165 46.8878 286.839 47.6614 287.671 47.8333C288.503 47.9909 289.421 47.5181 289.766 46.7445C289.995 46.2288 289.995 45.6271 289.88 45.0828C289.823 44.7819 289.737 44.4668 289.507 44.2519C289.02 43.7648 288.188 43.9654 287.542 44.2232" fill="white"/>
<path d="M304.511 131.481C303.694 131.71 303.091 132.541 303.12 133.386C303.149 134.231 303.823 135.005 304.655 135.177C305.487 135.334 306.405 134.862 306.749 134.088C306.979 133.572 306.979 132.971 306.864 132.426C306.807 132.125 306.72 131.81 306.491 131.595C306.003 131.108 305.171 131.309 304.526 131.567" fill="white"/>
<path d="M374.038 71.1841C373.22 71.4133 372.617 72.2442 372.646 73.0895C372.675 73.9347 373.349 74.7083 374.181 74.8802C375.013 75.0377 375.931 74.565 376.275 73.7914C376.505 73.2757 376.505 72.674 376.39 72.1296C376.333 71.8288 376.247 71.5136 376.017 71.2987C375.529 70.8117 374.697 71.0122 374.052 71.2701" fill="white"/>
<path d="M466.571 181.893C465.754 182.122 465.151 182.953 465.18 183.798C465.209 184.643 465.883 185.417 466.715 185.589C467.547 185.746 468.465 185.273 468.809 184.5C469.039 183.984 469.039 183.382 468.924 182.838C468.867 182.537 468.78 182.222 468.551 182.007C468.063 181.52 467.231 181.721 466.586 181.979" fill="white"/>
<path d="M332.382 164.96C331.679 165.432 331.149 166.134 330.847 166.98C330.216 168.727 330.589 170.876 331.966 172.122C333.3 173.34 335.667 173.842 337.374 173.283C339.698 172.509 340.917 168.584 339.583 166.55C338.507 164.917 336.155 164.143 334.276 164.286C333.573 164.344 332.927 164.587 332.382 164.96Z" fill="white"/>
<path d="M327.577 77.4443C326.874 77.917 326.343 78.619 326.042 79.4642C325.411 81.2119 325.784 83.3608 327.161 84.6071C328.495 85.8104 330.862 86.3262 332.569 85.7675C334.892 84.9939 336.112 81.0687 334.778 79.0344C333.702 77.4013 331.349 76.6277 329.47 76.771C328.767 76.8283 328.122 77.0575 327.577 77.4443Z" fill="white"/>
<path d="M518.856 278.591C518.153 279.064 517.622 279.765 517.321 280.611C516.69 282.358 517.063 284.507 518.44 285.754C519.774 286.971 522.141 287.473 523.848 286.914C526.171 286.14 527.391 282.215 526.057 280.181C524.981 278.548 522.628 277.774 520.749 277.917C520.046 277.975 519.401 278.218 518.856 278.591Z" fill="white"/>
<path d="M506.147 233.608C505.444 234.081 504.913 234.783 504.612 235.628C503.981 237.376 504.354 239.525 505.731 240.771C507.065 241.989 509.432 242.49 511.139 241.932C513.462 241.158 514.682 237.233 513.348 235.198C512.272 233.565 509.919 232.792 508.04 232.935C507.337 233.007 506.692 233.236 506.147 233.608Z" fill="white"/>
<path d="M345.564 302.772C344.862 303.245 344.331 303.947 344.03 304.792C343.398 306.54 343.771 308.689 345.148 309.935C346.482 311.153 348.849 311.654 350.556 311.096C352.88 310.322 354.099 306.397 352.765 304.363C351.689 302.729 349.337 301.956 347.458 302.099C346.769 302.156 346.124 302.4 345.564 302.772Z" fill="white"/>
<path d="M546.726 366.006C546.024 366.479 545.493 367.181 545.192 368.026C544.56 369.774 544.933 371.923 546.31 373.169C547.644 374.387 550.011 374.888 551.718 374.329C554.042 373.556 555.261 369.63 553.927 367.596C552.851 365.963 550.499 365.189 548.62 365.333C547.917 365.39 547.271 365.634 546.726 366.006Z" fill="white"/>
<path d="M195.697 297.63C194.994 298.102 194.463 298.804 194.162 299.649C193.531 301.397 193.904 303.546 195.281 304.792C196.615 306.01 198.982 306.511 200.689 305.953C203.012 305.179 204.232 301.254 202.898 299.22C201.822 297.587 199.469 296.813 197.59 296.956C196.888 297.014 196.242 297.257 195.697 297.63Z" fill="white"/>
<path d="M131.65 127.054C130.947 127.527 130.417 128.229 130.116 129.074C129.484 130.822 129.857 132.971 131.234 134.217C132.568 135.435 134.935 135.936 136.642 135.377C138.966 134.604 140.185 130.679 138.851 128.644C137.775 127.011 135.423 126.238 133.544 126.381C132.841 126.452 132.195 126.682 131.65 127.054Z" fill="white"/>
<path d="M239.762 67.3876C239.059 67.8604 238.528 68.5623 238.227 69.4075C237.596 71.1553 237.969 73.3041 239.346 74.5505C240.68 75.7681 243.047 76.2695 244.754 75.7108C247.078 74.9372 248.297 71.012 246.963 68.9778C245.887 67.3447 243.535 66.5711 241.655 66.7143C240.967 66.786 240.321 67.0152 239.762 67.3876Z" fill="white"/>
<path d="M59.4851 49.1943C58.7822 49.667 58.2515 50.369 57.9502 51.2142C57.3191 52.9619 57.6921 55.1108 59.0691 56.3571C60.4031 57.5605 62.7699 58.0762 64.4768 57.5175C66.8006 56.7439 68.0198 52.8187 66.6858 50.7844C65.61 49.1513 63.2576 48.3777 61.3785 48.521C60.6756 48.5783 60.0301 48.8218 59.4851 49.1943Z" fill="white"/>
<path d="M412.81 187.623C412.107 188.096 411.576 188.798 411.275 189.643C410.644 191.391 411.017 193.539 412.394 194.786C413.728 196.003 416.094 196.505 417.801 195.946C420.125 195.173 421.344 191.247 420.01 189.213C418.935 187.58 416.582 186.806 414.703 186.95C414 187.021 413.355 187.251 412.81 187.623Z" fill="white"/>
<path d="M506.147 551.079C505.444 551.552 504.913 552.254 504.612 553.099C503.981 554.846 504.354 556.995 505.731 558.242C507.065 559.459 509.432 559.961 511.139 559.402C513.462 558.628 514.682 554.703 513.348 552.669C512.272 551.036 509.919 550.262 508.04 550.405C507.337 550.463 506.692 550.706 506.147 551.079Z" fill="white"/>
<path d="M433.91 459.924C433.207 460.397 432.676 461.099 432.375 461.944C431.744 463.692 432.117 465.841 433.494 467.087C434.828 468.305 437.195 468.806 438.902 468.248C441.225 467.474 442.445 463.549 441.111 461.515C440.035 459.882 437.682 459.108 435.803 459.251C435.1 459.308 434.455 459.538 433.91 459.924Z" fill="white"/>
<path d="M358.732 370.389C358.029 370.862 357.499 371.564 357.197 372.409C356.566 374.157 356.939 376.306 358.316 377.552C359.65 378.77 362.017 379.271 363.724 378.713C366.048 377.939 367.267 374.014 365.933 371.98C364.857 370.346 362.505 369.573 360.626 369.716C359.923 369.773 359.277 370.017 358.732 370.389Z" fill="white"/>
<path d="M319.243 469.924C318.54 470.397 318.009 471.099 317.708 471.944C317.077 473.692 317.45 475.841 318.827 477.087C320.161 478.305 322.528 478.806 324.235 478.247C326.558 477.474 327.778 473.548 326.444 471.514C325.368 469.881 323.015 469.107 321.136 469.251C320.433 469.308 319.788 469.537 319.243 469.924Z" fill="white"/>
<path d="M584.265 341.251C583.562 341.724 583.031 342.426 582.73 343.271C582.099 345.019 582.472 347.168 583.849 348.414C585.183 349.632 587.55 350.133 589.257 349.574C591.58 348.801 592.8 344.876 591.466 342.841C590.39 341.208 588.038 340.435 586.158 340.578C585.47 340.635 584.824 340.879 584.265 341.251Z" fill="white"/>
<path d="M389.343 474.795C389.916 473.191 390.347 471.414 389.959 469.724C389.587 468.119 388.468 466.816 387.277 465.741C386.417 464.953 385.441 464.237 384.308 463.979C382.615 463.592 380.908 464.079 379.402 464.867C377.982 465.612 376.261 466.629 375.443 468.048C374.712 469.337 374.654 471.042 375.027 472.446C375.902 475.698 379.187 477.531 382.228 478.333C384.824 479.021 388.353 477.56 389.343 474.795Z" fill="white"/>
<path d="M604.576 120.622C605.15 119.017 605.58 117.241 605.193 115.551C604.82 113.946 603.701 112.643 602.511 111.568C601.65 110.78 600.675 110.064 599.542 109.806C597.849 109.419 596.142 109.906 594.636 110.694C593.216 111.439 591.495 112.456 590.677 113.875C589.945 115.164 589.888 116.869 590.261 118.273C591.136 121.524 594.421 123.358 597.462 124.16C600.058 124.848 603.587 123.372 604.576 120.622Z" fill="white"/>
<path d="M299.907 498.977C300.466 498.676 300.882 498.146 301.126 497.415C301.37 496.727 301.399 495.925 301.04 495.281C300.251 493.92 297.884 493.203 296.68 494.378C296.292 494.751 296.034 495.252 295.848 495.753C295.618 496.341 295.46 496.985 295.661 497.573C296.034 498.661 297.225 499.177 298.286 499.263C298.917 499.335 299.448 499.234 299.907 498.977Z" fill="white"/>
<path d="M290.426 367.224C290.985 366.923 291.401 366.393 291.645 365.662C291.874 364.975 291.917 364.172 291.559 363.528C290.77 362.167 288.403 361.45 287.198 362.625C286.811 362.998 286.553 363.499 286.366 364C286.137 364.588 285.979 365.232 286.18 365.82C286.553 366.909 287.743 367.424 288.805 367.51C289.421 367.568 289.967 367.467 290.426 367.224Z" fill="white"/>
<path d="M177.494 405.788C178.054 405.487 178.47 404.957 178.714 404.227C178.957 403.539 178.986 402.737 178.627 402.092C177.839 400.731 175.472 400.015 174.267 401.19C173.88 401.562 173.621 402.063 173.435 402.565C173.205 403.152 173.048 403.797 173.248 404.384C173.621 405.473 174.812 405.989 175.873 406.075C176.505 406.132 177.05 406.032 177.494 405.788Z" fill="white"/>
<path d="M297.196 426.102C297.755 425.801 298.171 425.271 298.415 424.541C298.659 423.853 298.688 423.051 298.329 422.406C297.54 421.045 295.174 420.329 293.969 421.504C293.581 421.876 293.323 422.377 293.137 422.879C292.907 423.466 292.749 424.111 292.95 424.698C293.323 425.787 294.514 426.303 295.575 426.389C296.192 426.446 296.737 426.346 297.196 426.102Z" fill="white"/>
<path d="M30.8542 295.036C31.6431 294.736 32.3316 294.177 32.8193 293.432C33.8378 291.885 33.9812 289.707 32.9484 288.174C31.9443 286.685 29.764 285.625 27.971 285.782C25.5325 285.983 23.4096 289.507 24.2272 291.799C24.887 293.633 26.9956 294.951 28.8604 295.237C29.5489 295.352 30.2374 295.266 30.8542 295.036Z" fill="white"/>
<path d="M341.046 431.259C341.835 430.958 342.523 430.4 343.011 429.655C344.03 428.108 344.173 425.93 343.14 424.397C342.136 422.907 339.956 421.847 338.163 422.005C335.724 422.205 333.601 425.729 334.419 428.022C335.079 429.855 337.187 431.173 339.052 431.46C339.755 431.56 340.429 431.488 341.046 431.259Z" fill="white"/>
<path d="M205.48 420.959C206.269 420.658 206.957 420.099 207.445 419.354C208.463 417.807 208.607 415.63 207.574 414.097C206.57 412.607 204.389 411.547 202.596 411.704C200.158 411.905 198.035 415.429 198.853 417.721C199.512 419.555 201.621 420.873 203.486 421.159C204.174 421.26 204.848 421.188 205.48 420.959Z" fill="white"/>
<path d="M205.48 461.4C206.269 461.099 206.957 460.541 207.445 459.796C208.463 458.249 208.607 456.071 207.574 454.538C206.57 453.048 204.389 451.988 202.596 452.146C200.158 452.346 198.035 455.871 198.853 458.163C199.512 459.996 201.621 461.314 203.486 461.601C204.174 461.715 204.848 461.644 205.48 461.4Z" fill="white"/>
<path d="M425.605 378.77C424.902 379.243 424.371 379.945 424.07 380.79C423.439 382.538 423.812 384.687 425.189 385.933C426.523 387.151 428.889 387.652 430.596 387.093C432.92 386.32 434.139 382.395 432.805 380.36C431.73 378.727 429.377 377.954 427.498 378.097C426.795 378.169 426.15 378.398 425.605 378.77Z" fill="white"/>
<path d="M303.335 267.947C302.632 268.419 302.102 269.121 301.8 269.967C301.169 271.714 301.542 273.863 302.919 275.11C304.253 276.327 306.62 276.829 308.327 276.27C310.651 275.496 311.87 271.571 310.536 269.537C309.46 267.904 307.108 267.13 305.229 267.273C304.526 267.331 303.88 267.574 303.335 267.947Z" fill="white"/>
<path d="M550.241 537.469C549.538 537.942 549.007 538.644 548.706 539.489C548.075 541.237 548.448 543.386 549.825 544.632C551.159 545.85 553.526 546.351 555.233 545.793C557.556 545.019 558.776 541.094 557.442 539.06C556.366 537.426 554.013 536.653 552.134 536.796C551.431 536.853 550.786 537.097 550.241 537.469Z" fill="white"/>
<path d="M565.976 476.17C565.273 476.643 564.743 477.345 564.441 478.19C563.81 479.938 564.183 482.087 565.56 483.333C566.894 484.551 569.261 485.052 570.968 484.493C573.292 483.72 574.511 479.794 573.177 477.76C572.101 476.127 569.749 475.354 567.87 475.497C567.167 475.568 566.521 475.798 565.976 476.17Z" fill="white"/>
<path d="M586.876 421.174C586.173 421.647 585.642 422.349 585.341 423.194C584.71 424.942 585.083 427.091 586.46 428.337C587.794 429.555 590.16 430.056 591.867 429.497C594.191 428.724 595.41 424.798 594.076 422.764C593.001 421.131 590.648 420.357 588.769 420.501C588.081 420.572 587.435 420.802 586.876 421.174Z" fill="white"/>
<path d="M340.903 565.075C340.2 565.548 339.669 566.25 339.368 567.095C338.737 568.842 339.11 570.991 340.487 572.238C341.821 573.455 344.187 573.957 345.894 573.398C348.218 572.625 349.437 568.699 348.103 566.665C347.027 565.032 344.675 564.258 342.796 564.402C342.093 564.473 341.448 564.702 340.903 565.075Z" fill="white"/>
<path d="M184.709 115.293C184.006 115.765 183.476 116.467 183.174 117.313C182.543 119.06 182.916 121.209 184.293 122.455C185.627 123.673 187.994 124.175 189.701 123.616C192.025 122.842 193.244 118.917 191.91 116.883C190.834 115.25 188.482 114.476 186.603 114.619C185.9 114.677 185.254 114.92 184.709 115.293Z" fill="white"/>
<path d="M419.695 0.687435C418.992 1.16018 418.461 1.86214 418.16 2.70735C417.529 4.45508 417.902 6.60393 419.279 7.85026C420.613 9.06794 422.98 9.56934 424.687 9.01064C427.01 8.23705 428.23 4.31182 426.896 2.27758C425.82 0.644458 423.467 -0.129127 421.588 0.0141297C420.885 0.0714323 420.24 0.314968 419.695 0.687435Z" fill="white"/>
<path d="M136.456 311.912C135.753 312.385 135.222 313.087 134.921 313.932C134.29 315.68 134.663 317.829 136.04 319.075C137.374 320.293 139.74 320.794 141.447 320.235C143.771 319.462 144.99 315.537 143.656 313.502C142.581 311.869 140.228 311.096 138.349 311.239C137.646 311.296 137.001 311.54 136.456 311.912Z" fill="white"/>
<path d="M493.323 146.036C492.62 146.508 492.09 147.21 491.788 148.055C491.157 149.803 491.53 151.952 492.907 153.198C494.241 154.402 496.608 154.917 498.315 154.359C500.639 153.585 501.858 149.66 500.524 147.626C499.448 145.993 497.096 145.219 495.217 145.362C494.528 145.42 493.883 145.663 493.323 146.036Z" fill="white"/>
<path d="M537.331 70.9692C536.628 71.4419 536.097 72.1439 535.796 72.9891C535.165 74.7368 535.538 76.8857 536.915 78.132C538.249 79.3497 540.616 79.8511 542.323 79.2924C544.647 78.5188 545.866 74.5936 544.532 72.5593C543.456 70.9262 541.104 70.1526 539.224 70.2959C538.522 70.3532 537.876 70.5967 537.331 70.9692Z" fill="white"/>
<path d="M443.348 72.8171C442.645 73.2898 442.115 73.9918 441.814 74.837C441.182 76.5847 441.555 78.7336 442.932 79.9799C444.266 81.1833 446.633 81.699 448.34 81.1403C450.664 80.3667 451.883 76.4415 450.549 74.4072C449.473 72.7741 447.121 72.0005 445.242 72.1438C444.539 72.2154 443.893 72.4446 443.348 72.8171Z" fill="white"/>
<path d="M86.5381 527.842C85.8353 528.315 85.3045 529.017 85.0033 529.862C84.3721 531.61 84.7451 533.759 86.1221 535.005C87.4561 536.223 89.8229 536.724 91.5299 536.166C93.8536 535.392 95.0729 531.467 93.7389 529.433C92.6631 527.8 90.3106 527.026 88.4315 527.169C87.7287 527.226 87.0832 527.456 86.5381 527.842Z" fill="white"/>
<path d="M33.6513 565.075C32.9485 565.548 32.4177 566.25 32.1165 567.095C31.4854 568.842 31.8583 570.991 33.2354 572.238C34.5694 573.455 36.9361 573.957 38.6431 573.398C40.9668 572.625 42.1861 568.699 40.8521 566.665C39.7763 565.032 37.4238 564.258 35.5448 564.402C34.8419 564.473 34.1964 564.702 33.6513 565.075Z" fill="white"/>
<path d="M141.247 196.462C140.544 196.935 140.013 197.637 139.712 198.482C139.081 200.23 139.454 202.378 140.831 203.625C142.165 204.842 144.531 205.344 146.238 204.785C148.562 204.011 149.781 200.086 148.447 198.052C147.372 196.419 145.019 195.645 143.14 195.789C142.437 195.846 141.792 196.089 141.247 196.462Z" fill="white"/>
<path d="M112.343 365.261C111.64 365.734 111.11 366.436 110.808 367.281C110.177 369.029 110.55 371.177 111.927 372.424C113.261 373.641 115.628 374.143 117.335 373.584C119.659 372.811 120.878 368.885 119.544 366.851C118.468 365.218 116.116 364.444 114.237 364.588C113.534 364.645 112.888 364.888 112.343 365.261Z" fill="white"/>
<path d="M77.0997 417.951C76.1816 418.438 75.4788 419.154 75.0915 420.014C74.2739 421.804 74.7616 423.996 76.5689 425.286C78.3189 426.532 81.4172 427.048 83.6549 426.475C86.6959 425.687 88.3024 421.661 86.5524 419.584C85.1467 417.908 82.0484 417.12 79.5955 417.278C78.6632 417.321 77.8169 417.564 77.0997 417.951Z" fill="white"/>
</g>
<defs>
<clipPath id="clip0_96_2718">
<rect width="656" height="615" fill="white"/>
</clipPath>
</defs>
</svg>
