<svg width="493" height="420" viewBox="0 0 493 420" fill="none" xmlns="http://www.w3.org/2000/svg">
<path d="M125.18 144.64C123.08 151.56 119.96 158.84 119.09 166.02C118.89 167.7 121.52 167.68 121.72 166.02C122.56 159.11 125.71 151.99 127.72 145.33C128.21 143.71 125.67 143.02 125.18 144.64Z" fill="#F93A3A"/>
<path d="M158.18 148.97C156.67 157.2 157.21 166.91 158 175.22C158.16 176.89 160.79 176.91 160.63 175.22C160.24 171.17 160.4 167.11 160.35 163.04C160.29 158.54 159.9 154.12 160.72 149.66C161.02 148.02 158.48 147.31 158.18 148.97Z" fill="#F93A3A"/>
<path d="M194.41 149.21C193.27 144.96 192.31 140.72 190.69 136.61C190.07 135.05 187.53 135.73 188.15 137.31C189.56 140.89 190.52 144.58 191.46 148.3C192.47 152.32 194.34 156.35 194.68 160.49C194.82 162.17 197.45 162.18 197.31 160.49C196.98 156.59 195.42 152.98 194.41 149.21Z" fill="#F93A3A"/>
<path d="M106.51 130.39C105.28 133.18 102.53 134.95 101.64 137.93C101.16 139.56 103.7 140.25 104.18 138.63C104.97 135.95 107.66 134.26 108.78 131.71C109.46 130.18 107.19 128.84 106.51 130.39Z" fill="#F93A3A"/>
<path d="M95.6399 143.46C93.1199 142.51 90.2099 140.88 88.4599 138.8C87.3699 137.5 85.5199 139.37 86.5999 140.66C88.6399 143.09 91.9999 144.89 94.9399 145.99C96.5299 146.59 97.2099 144.05 95.6399 143.46Z" fill="#F93A3A"/>
<path d="M80.0399 181.66C74.5099 175.56 72.2599 167.67 69.3299 160.15C68.7199 158.59 66.1799 159.27 66.7899 160.85C69.8899 168.81 72.3199 177.05 78.1699 183.52C79.3299 184.78 81.1799 182.91 80.0399 181.66Z" fill="#F93A3A"/>
<path d="M40.77 154.23C39.9 157.79 37.34 160.64 35.29 163.58C33.06 166.79 31.39 170.43 29.34 173.76C28.45 175.21 30.72 176.53 31.61 175.09C33.87 171.43 35.75 167.52 38.21 163.98C40.21 161.1 42.47 158.4 43.32 154.92C43.71 153.29 41.17 152.59 40.77 154.23Z" fill="#F93A3A"/>
<path d="M189.03 69.2601C193.24 74.5201 199.28 77.6701 201.13 85.0401C203.23 92.9301 206.13 99.5001 204.29 107.92C208.76 107.39 215.33 102.92 216.39 98.1901C217.71 93.1901 215.86 85.3101 214.29 80.5701C210.59 68.9901 205.11 61.3701 189.03 69.2601Z" fill="#F93A3A"/>
<path d="M104.62 86.0901C95.9399 86.3501 90.1599 88.7201 88.3199 97.9201C86.4799 107.91 87.7899 120.27 100.94 116.33C100.15 110.55 98.5699 106.08 99.8899 100.29C100.94 96.0801 103.31 90.3001 105.15 86.6201" fill="#F93A3A"/>
<path d="M170.97 47.3501C141.29 51.2601 126.09 55.0601 106.46 61.3701C97.3399 64.5301 86.8299 66.2801 78.4099 71.5401C71.3999 76.1001 66.8399 84.5101 77.3599 87.3201C96.2899 91.8801 121.18 83.8101 139.77 80.3101C161.16 76.4501 183.24 73.3001 203.23 65.2301C209.89 62.4301 228.12 56.4701 217.25 48.0501C205.33 38.9301 183.59 45.9401 170.97 47.3501Z" fill="#000035"/>
<path d="M115.4 70.8401C110.84 65.2301 106.64 58.5701 102.78 52.6101C100.68 49.4501 96.4699 45.2501 95.4199 41.3901C93.6699 35.4301 99.6299 34.7301 104.54 32.9801C123.47 25.9701 143.81 20.3601 163.79 17.5501C168 17.2001 170.8 16.1501 172.91 20.3501C174.31 23.8601 173.26 30.1701 172.91 33.6701C172.56 39.9801 171.86 45.9401 171.86 52.2501" fill="#000035"/>
<path d="M114.61 72.1501C108.37 77.9901 104.16 86.0201 101.59 94.0901C99.0299 102.12 98.1999 110.62 100.96 118.71C106.34 134.47 122.14 144.82 137.93 147.95C152.5 150.84 168.24 148.72 181.32 141.56C193.82 134.72 203.33 122.96 205.31 108.62C207.54 92.5101 200.77 74.6201 186.3 66.2801C184.43 65.2001 182.46 64.3101 180.43 63.5801C179.67 63.3001 179.35 64.5101 180.1 64.7901C196.06 70.5801 204.93 87.3001 204.47 103.76C204.07 117.93 196.32 130.37 184.63 138.11C172.73 146 157.86 149.09 143.74 147.58C128.27 145.93 112.47 137.94 104.68 123.99C100.61 116.69 99.6299 108.57 101.24 100.43C102.89 92.1201 106.45 83.8701 111.7 77.1901C112.86 75.7101 114.13 74.3201 115.5 73.0301C116.08 72.4801 115.2 71.6001 114.61 72.1501Z" fill="#000035"/>
<path d="M199.1 125.18C202.65 129.75 205.67 135.32 205.72 141.25C205.76 146.54 202.84 151.74 199.9 155.99C194.45 163.9 185.82 169.53 176.93 172.9C164.85 177.48 152.12 175.54 139.81 173.06C130.24 171.13 120.44 167.48 113.27 160.65C108.81 156.4 106.3 151.16 104.47 145.34C102.29 138.39 101.62 131.14 103.9 124.13C104.15 123.36 102.94 123.03 102.69 123.8C100.65 130.07 100.86 136.64 102.49 142.98C103.91 148.5 105.96 154.02 109.57 158.49C116.07 166.56 126.25 171.08 136.09 173.53C142.2 175.05 148.55 176.17 154.82 176.73C161.24 177.31 167.75 177.02 173.97 175.21C179.4 173.64 184.65 170.96 189.36 167.85C193.25 165.28 196.75 162.18 199.61 158.49C201.35 156.25 202.84 153.83 204.1 151.3C205.53 148.44 206.76 145.52 206.93 142.29C207.28 135.66 203.91 129.4 199.97 124.31C199.49 123.66 198.61 124.55 199.1 125.18Z" fill="#000035"/>
<path d="M103.4 122.56C95.6599 124.52 90.6799 130.53 86.7299 137.1C82.5499 144.06 79.1699 152.06 71.9699 156.48C65.0799 160.72 56.5499 160.59 49.3199 157.27C45.5099 155.52 42.1799 152.98 39.1799 150.07C36.2299 147.21 33.2499 143.69 29.1799 142.45C28.2599 142.17 26.7399 141.98 26.2899 143.11C25.9199 144.03 26.6099 145.15 27.0699 145.9C27.9499 147.36 29.0199 148.7 29.9999 150.09C30.8599 151.3 31.8699 152.62 32.2299 154.09C32.4299 153.83 32.6299 153.56 32.8299 153.3C30.3699 153.23 28.0599 151.63 25.7699 150.85C24.0099 150.25 21.9499 150 21.1099 152.04C20.2799 154.06 21.8299 155.95 23.2199 157.27C24.8999 158.85 26.8699 160.09 28.8299 161.31C28.9399 160.92 29.0399 160.53 29.1499 160.15C25.7499 160.6 22.2099 159.86 18.8599 160.78C17.6899 161.1 16.4499 161.73 16.1299 163C15.9999 163.51 15.9699 164.31 16.2499 164.77C16.5099 165.19 17.1599 165.47 17.5499 165.75C18.1599 166.19 18.7699 166.63 19.3599 167.09C28.0299 173.7 35.4399 182.13 45.3899 186.94C55.1999 191.68 66.2999 191.42 75.8899 186.23C80.5599 183.71 84.6899 180.2 88.0499 176.09C89.7699 173.99 91.3199 171.76 92.4299 169.27C93.5799 166.69 94.3399 163.96 94.9099 161.19C96.0399 155.72 96.8499 150.12 97.2499 144.55C97.5699 140.13 97.7999 133.7 102.3 131.34C103.01 130.97 102.38 129.89 101.67 130.26C98.1999 132.09 97.0299 136.13 96.4899 139.75C95.8799 143.82 95.7799 147.94 95.1599 152.02C94.3199 157.55 93.6899 163.28 91.4399 168.46C89.3699 173.23 85.6999 177.39 81.7599 180.72C73.7299 187.51 62.9999 190.81 52.6399 188.29C42.2699 185.77 34.2299 178.04 26.4099 171.27C24.3699 169.5 22.2999 167.76 20.1599 166.12C19.5599 165.66 18.9599 165.21 18.3499 164.78C17.8699 164.43 17.3599 164.28 17.3099 163.68C17.2599 163.02 17.7899 162.57 18.3299 162.31C19.9699 161.5 22.0799 161.57 23.8599 161.55C25.6199 161.53 27.4199 161.64 29.1699 161.41C29.7599 161.33 30.0599 160.6 29.4899 160.25C27.9099 159.27 26.3299 158.28 24.8999 157.08C23.6699 156.05 21.4099 154.14 22.3999 152.33C23.2699 150.73 26.1499 152.31 27.3099 152.8C29.0699 153.55 30.9099 154.51 32.8599 154.57C33.2799 154.58 33.5499 154.16 33.4599 153.78C32.8399 151.19 30.6999 148.96 29.1999 146.83C28.6899 146.1 27.5299 144.83 27.4999 143.88C27.4899 143.5 27.3899 143.62 27.7599 143.51C28.5399 143.28 29.8199 144 30.4799 144.34C34.2299 146.28 36.9199 149.79 40.0399 152.54C43.0099 155.16 46.2599 157.38 49.9399 158.89C56.7099 161.68 64.4599 161.82 71.0499 158.45C78.1999 154.79 82.0199 147.87 85.8399 141.16C90.0799 133.71 94.8999 126.02 103.75 123.78C104.51 123.57 104.18 122.36 103.4 122.56Z" fill="#000035"/>
<path d="M199.6 72.9501C201.15 72.1801 202.79 71.6201 204.33 70.8501C204.63 70.7001 204.72 70.2701 204.55 69.9901C204.37 69.6801 204 69.6101 203.69 69.7701C202.14 70.5401 200.5 71.1001 198.96 71.8701C198.66 72.0201 198.57 72.4501 198.74 72.7301C198.92 73.0401 199.29 73.1001 199.6 72.9501Z" fill="#000035"/>
<path d="M202.34 79.59C204.1 79 205.81 78.26 207.6 77.75C208.37 77.53 208.04 76.32 207.27 76.54C205.48 77.05 203.77 77.79 202.01 78.38C201.69 78.49 201.48 78.81 201.57 79.15C201.66 79.46 202.02 79.7 202.34 79.59Z" fill="#000035"/>
<path d="M204.44 86.9501C206.39 86.3901 208.28 85.6701 210.22 85.1101C210.99 84.8901 210.66 83.6801 209.89 83.9001C207.94 84.4601 206.05 85.1801 204.11 85.7401C203.34 85.9701 203.67 87.1701 204.44 86.9501Z" fill="#000035"/>
<path d="M208.39 93.79C209.97 93.26 211.54 92.74 213.12 92.21C213.44 92.1 213.65 91.78 213.56 91.44C213.47 91.13 213.11 90.9 212.79 91C211.21 91.53 209.63 92.05 208.06 92.58C207.74 92.69 207.53 93.01 207.62 93.35C207.7 93.66 208.07 93.9 208.39 93.79Z" fill="#000035"/>
<path d="M92.79 95.6501C94.52 95.6501 96.29 95.6401 97.95 95.1001C98.27 95.0001 98.48 94.6701 98.39 94.3301C98.3 94.0201 97.94 93.7901 97.62 93.8901C96.06 94.4001 94.41 94.3901 92.79 94.3901C91.98 94.4001 91.98 95.6501 92.79 95.6501Z" fill="#000035"/>
<path d="M91.21 103.01C92.77 103.01 94.31 102.98 95.85 102.72C96.18 102.67 96.37 102.25 96.29 101.95C96.19 101.6 95.86 101.46 95.52 101.51C94.1 101.74 92.66 101.75 91.22 101.75C90.88 101.75 90.6 102.04 90.6 102.37C90.58 102.73 90.87 103.01 91.21 103.01Z" fill="#000035"/>
<path d="M92.26 110.11C93.57 110.11 94.83 109.82 96.11 109.56C96.43 109.5 96.65 109.1 96.55 108.79C96.44 108.45 96.13 108.28 95.78 108.35C95.18 108.47 94.58 108.6 93.97 108.71C93.91 108.72 93.84 108.73 93.78 108.74C93.74 108.75 93.69 108.75 93.65 108.76C93.58 108.77 93.56 108.77 93.6 108.77C93.64 108.76 93.62 108.77 93.55 108.78C93.51 108.79 93.46 108.79 93.42 108.8C93.35 108.81 93.29 108.81 93.22 108.82C92.9 108.85 92.58 108.87 92.26 108.87C91.93 108.87 91.62 109.16 91.64 109.49C91.65 109.83 91.91 110.11 92.26 110.11Z" fill="#000035"/>
<path d="M107.51 61.2101C118.39 62.2201 129.05 61.0001 139.76 59.0801C147.24 57.7401 154.81 56.5101 161.93 53.7201C165.55 52.3001 169.16 50.4701 171.86 47.6101C172.41 47.0301 171.53 46.1401 170.98 46.7301C165.93 52.0701 157.8 54.1201 150.88 55.6901C147.45 56.4701 143.98 57.0901 140.51 57.6901C135.49 58.5501 130.5 59.4601 125.42 59.9301C119.46 60.4801 113.48 60.5101 107.52 59.9501C106.71 59.8801 106.72 61.1301 107.51 61.2101Z" fill="#F93A3A"/>
<path d="M171.85 47.6102C173.54 45.5002 175.21 43.3802 177.03 41.3802C178.16 40.1302 179.33 38.9202 180.6 37.8202C181.56 36.9902 182.64 36.0902 183.86 35.6802C184.58 35.4402 185.37 35.4502 185.7 36.1202C185.71 36.1502 185.74 36.2502 185.73 36.3702C185.73 36.4702 185.69 36.6502 185.62 36.8302C185.48 37.1902 185.21 37.5702 184.94 37.8902C183.16 40.0502 180.58 41.6302 178.22 43.0602C176.88 43.8702 175.51 44.6402 174.11 45.3302C173.37 45.7002 172.58 46.1702 171.76 46.3002C170.97 46.4302 171.3 47.6302 172.09 47.5102C172.91 47.3802 173.72 46.9102 174.45 46.5502C175.76 45.9102 177.04 45.2102 178.29 44.4702C180.91 42.9202 183.75 41.1902 185.75 38.8502C186.38 38.1102 187.05 37.1702 186.95 36.1502C186.85 35.1302 185.9 34.3802 184.92 34.2902C183.72 34.1702 182.53 34.8402 181.57 35.4802C180.15 36.4402 178.88 37.6302 177.68 38.8602C175.26 41.3302 173.11 44.0302 170.96 46.7302C170.47 47.3502 171.35 48.2402 171.85 47.6102Z" fill="#F93A3A"/>
<path d="M171.59 46.8102C172.55 49.6602 174.01 52.4302 175.91 54.7602C177.74 56.9902 180.56 59.0802 183.57 57.9202C184.46 57.5802 185.53 57.0202 185.82 56.0302C186.07 55.1902 185.66 54.3902 185.14 53.7602C184.45 52.9202 183.51 52.2802 182.61 51.6902C181.49 50.9702 180.32 50.3402 179.13 49.7302C177.82 49.0602 176.5 48.4302 175.17 47.7902C174.27 47.3502 173.33 46.9402 172.5 46.3702C171.84 45.9102 171.21 46.9902 171.87 47.4502C173.42 48.5202 175.27 49.2202 176.95 50.0402C179.06 51.0802 181.27 52.1302 183.13 53.5802C183.49 53.8602 183.83 54.1602 184.14 54.5002C184.33 54.7102 184.54 55.0402 184.6 55.2302C184.67 55.4402 184.66 55.3502 184.65 55.5302C184.65 55.4502 184.58 55.7802 184.61 55.7102C184.5 55.9702 184.25 56.1602 183.96 56.3402C181.52 57.8302 179.09 56.4002 177.37 54.5302C175.3 52.2802 173.76 49.3602 172.79 46.4702C172.54 45.7202 171.34 46.0502 171.59 46.8102Z" fill="#F93A3A"/>
<path d="M146.3 103.24C144.8 107.13 144.51 111.91 147.5 115.5C151.99 121.18 160.66 115.5 165.74 112.81C171.72 109.82 180.99 105.93 184.88 100.55C190.56 92.4802 177.1 96.3602 172.92 97.2602C166.93 98.1602 151.98 101.45 146.3 103.24Z" fill="#F93A3A"/>
<path d="M150.54 103.97C150.55 108.19 151.7 112.74 155.32 115.29C155.98 115.75 156.6 114.67 155.95 114.21C152.72 111.93 151.8 107.7 151.79 103.97C151.78 103.16 150.53 103.16 150.54 103.97Z" fill="#000035"/>
<path d="M160.55 101.96C159.68 104.98 161.67 108 163.99 109.77C164.26 109.97 164.69 109.81 164.85 109.55C165.04 109.23 164.9 108.9 164.63 108.69C162.76 107.27 161.06 104.73 161.76 102.3C161.98 101.52 160.77 101.19 160.55 101.96Z" fill="#000035"/>
<path d="M168.94 100.02C168.69 102.13 169.18 104.43 170.7 105.98C171.26 106.55 172.15 105.67 171.58 105.1C170.28 103.77 169.97 101.8 170.18 100.02C170.22 99.6801 169.86 99.4001 169.56 99.4001C169.2 99.4001 168.98 99.6901 168.94 100.02Z" fill="#000035"/>
<path d="M176.06 98.8002C175.92 99.6802 175.95 100.59 176.26 101.43C176.57 102.28 177.1 103.04 177.8 103.61C178.06 103.82 178.43 103.87 178.68 103.61C178.9 103.39 178.94 102.94 178.68 102.73C178.53 102.61 178.39 102.48 178.26 102.35C178.19 102.28 178.13 102.21 178.06 102.13C178.03 102.1 178 102.06 177.98 102.03C178.03 102.1 177.95 101.99 177.94 101.98C177.84 101.83 177.74 101.68 177.65 101.52C177.61 101.44 177.56 101.35 177.52 101.27C177.52 101.26 177.47 101.15 177.49 101.2C177.51 101.25 177.45 101.1 177.45 101.1C177.39 100.93 177.34 100.76 177.3 100.59C177.28 100.5 177.26 100.41 177.25 100.31C177.24 100.27 177.24 100.22 177.25 100.29C177.24 100.25 177.24 100.21 177.24 100.17C177.22 99.9802 177.22 99.7902 177.22 99.6002C177.22 99.5102 177.23 99.4302 177.23 99.3502C177.23 99.3002 177.24 99.2402 177.25 99.1902C177.26 99.0702 177.23 99.3402 177.26 99.1302C177.31 98.8002 177.17 98.4602 176.82 98.3602C176.54 98.2902 176.12 98.4702 176.06 98.8002Z" fill="#000035"/>
<path d="M124.97 103.7C124.99 100.85 125.87 97.61 128.64 96.27C130.96 95.15 133.65 96.01 135.46 97.67C136.89 98.99 137.85 100.72 138.47 102.55C138.73 103.31 139.94 102.98 139.68 102.22C138.55 98.91 136.26 95.66 132.71 94.74C129.84 94 126.94 95.18 125.31 97.64C124.13 99.42 123.74 101.6 123.73 103.7C123.71 104.51 124.96 104.51 124.97 103.7Z" fill="#000035"/>
<path d="M159.15 95.8101C159 93.1501 160.15 90.5001 162.37 88.9601C164.12 87.7501 166.63 87.2501 168.35 88.7801C169.58 89.8701 170.06 91.5101 170.28 93.0801C170.39 93.8701 171.59 93.5401 171.49 92.7501C171.07 89.7501 169.36 86.7901 166.05 86.5801C163.25 86.4001 160.61 88.2701 159.2 90.5701C158.24 92.1401 157.81 93.9801 157.91 95.8101C157.94 96.6101 159.19 96.6201 159.15 95.8101Z" fill="#000035"/>
<path d="M143.79 126.89C146.23 130.75 152.35 131.19 155.55 128.07C156.13 127.51 155.24 126.62 154.67 127.19C152.06 129.74 146.88 129.44 144.87 126.26C144.44 125.59 143.35 126.21 143.79 126.89Z" fill="#000035"/>
<path d="M120.4 120.37C121.2 120.37 121.21 119.12 120.4 119.12C119.59 119.12 119.59 120.37 120.4 120.37Z" fill="#000035"/>
<path d="M125.92 116.69C126.72 116.69 126.73 115.44 125.92 115.44C125.11 115.44 125.11 116.69 125.92 116.69Z" fill="#000035"/>
<path d="M127.23 122.73C128.03 122.73 128.04 121.48 127.23 121.48C126.43 121.48 126.43 122.73 127.23 122.73Z" fill="#000035"/>
<path d="M181.93 113.27C182.73 113.27 182.74 112.02 181.93 112.02C181.12 112.02 181.12 113.27 181.93 113.27Z" fill="#000035"/>
<path d="M187.18 108.8C187.98 108.8 187.99 107.55 187.18 107.55C186.38 107.55 186.38 108.8 187.18 108.8Z" fill="#000035"/>
<path d="M188.24 116.16C189.04 116.16 189.05 114.91 188.24 114.91C187.43 114.91 187.43 116.16 188.24 116.16Z" fill="#000035"/>
<path d="M109.87 133.1C107.89 137.66 106.59 142.48 104.61 147.04C104.29 147.77 105.37 148.41 105.69 147.67C107.67 143.11 108.97 138.29 110.95 133.73C111.26 133 110.19 132.36 109.87 133.1Z" fill="#000035"/>
<path d="M119.77 140.52C119.42 148.01 114.41 154.17 112.96 161.39C112.8 162.18 114.01 162.51 114.17 161.72C115.65 154.38 120.68 148.15 121.03 140.52C121.06 139.71 119.81 139.71 119.77 140.52Z" fill="#000035"/>
<path d="M132.39 146.83C132.92 154.64 130.81 162.61 128.73 170.07C128.51 170.85 129.72 171.18 129.94 170.4C132.05 162.84 134.18 154.74 133.64 146.83C133.59 146.03 132.34 146.02 132.39 146.83Z" fill="#000035"/>
<path d="M149.24 148.76C148.34 153.06 148.4 157.46 148.38 161.83C148.37 164 148.23 166.16 148.16 168.33C148.09 170.51 147.97 172.72 148.45 174.86C148.63 175.64 149.83 175.31 149.66 174.53C149.18 172.38 149.32 170.05 149.42 167.86C149.51 165.85 149.62 163.85 149.63 161.84C149.65 157.58 149.57 153.29 150.45 149.1C150.61 148.31 149.41 147.98 149.24 148.76Z" fill="#000035"/>
<path d="M168.94 146.83C169.17 151.63 170.19 156.33 170.94 161.07C171.32 163.45 171.57 165.83 171.73 168.24C171.88 170.47 172.03 172.71 172.64 174.88C172.86 175.65 174.06 175.32 173.85 174.55C173.23 172.35 173.11 170.07 172.96 167.8C172.81 165.59 172.56 163.4 172.23 161.22C171.49 156.44 170.43 151.7 170.2 146.85C170.15 146.03 168.9 146.02 168.94 146.83Z" fill="#000035"/>
<path d="M182.9 139.89C185.03 148.8 188.85 157.36 189.71 166.54C189.78 167.33 191.04 167.34 190.96 166.54C190.08 157.23 186.26 148.58 184.1 139.55C183.92 138.78 182.71 139.11 182.9 139.89Z" fill="#000035"/>
<path d="M192.69 131.89C194.28 135.55 196.33 138.98 198.02 142.6C198.89 144.47 199.66 146.39 200.2 148.38C200.73 150.34 200.54 152.39 201.04 154.36C201.24 155.14 202.45 154.81 202.25 154.03C201.73 152 201.92 149.89 201.36 147.86C200.83 145.96 200.1 144.12 199.28 142.33C197.56 138.59 195.42 135.05 193.78 131.27C193.45 130.52 192.38 131.16 192.69 131.89Z" fill="#000035"/>
<path d="M89.9799 134.65C91.9899 136.67 93.8799 138.81 96.0299 140.7C96.2799 140.92 96.6599 140.95 96.9099 140.7C97.1399 140.47 97.1599 140.04 96.9099 139.82C94.7699 137.94 92.8799 135.79 90.8599 133.77C90.2899 133.19 89.4099 134.08 89.9799 134.65Z" fill="#000035"/>
<path d="M83.3099 145.04C85.4999 149.88 90.4999 152.28 94.5799 155.26C95.2299 155.73 95.8499 154.65 95.2099 154.18C91.2999 151.32 86.4899 149.05 84.3899 144.41C84.0599 143.68 82.9799 144.31 83.3099 145.04Z" fill="#000035"/>
<path d="M73.3199 156.61C75.1899 160.34 77.4599 163.9 79.9899 167.21C82.3099 170.24 85.0199 173.52 88.5299 175.24C89.2499 175.59 89.8799 174.51 89.1599 174.16C85.6899 172.47 83.0099 169.17 80.7399 166.15C78.3399 162.96 76.1899 159.55 74.3999 155.98C74.0299 155.26 72.9599 155.89 73.3199 156.61Z" fill="#000035"/>
<path d="M61.6599 160.76C61.1599 170.66 61.6499 180.44 66.7399 189.21C67.1399 189.91 68.2199 189.28 67.8199 188.58C62.8399 180 62.4199 170.43 62.9099 160.76C62.9499 159.96 61.6999 159.96 61.6599 160.76Z" fill="#000035"/>
<path d="M48.0699 157.82C45.2899 161.6 43.8999 166.36 43.1799 170.94C42.4599 175.52 42.3299 180.35 43.5399 184.86C43.7499 185.64 44.9499 185.31 44.7499 184.53C43.5699 180.13 43.7099 175.37 44.4499 170.91C45.1699 166.54 46.5099 162.06 49.1599 158.46C49.6299 157.8 48.5499 157.18 48.0699 157.82Z" fill="#000035"/>
<path d="M205.83 137.84C205.55 135.59 204.29 133.74 203.1 131.86C202.8 130.99 202.47 130.12 202.12 129.26C201.96 128.86 201.66 128.61 201.33 128.48C201.08 127.79 200.91 127.08 200.85 126.32C200.74 124.85 198.72 124.51 198.27 125.97C197.53 128.35 193.75 129.13 193.75 131.84C193.75 132.39 193.92 132.87 194.19 133.28C194.22 133.37 194.27 133.46 194.33 133.55C195.93 136.04 197.54 138.44 198.54 141.26C198.63 141.5 198.76 141.68 198.91 141.83C199.99 144.48 200.75 147.25 201.2 150.14C201.1 150.5 201 150.85 200.91 151.21C200.51 152.67 202.53 153.48 203.31 152.22C204.28 150.67 204.67 148.88 204.7 146.96C205.11 145.94 205.55 144.93 205.71 144.11C206.13 142.11 206.08 139.86 205.83 137.84Z" fill="#000035"/>
<path d="M189.81 166.15C189.89 162.81 189.01 159.65 187.92 156.55C187.83 156.04 187.73 155.54 187.63 155.03C187.61 154.9 187.58 154.78 187.55 154.65C187.5 154.41 187.45 154.18 187.39 153.94C187.23 153.22 187.06 152.49 186.85 151.76C186.69 151.18 186.53 150.6 186.34 150.02C186.23 149.69 186.04 149.47 185.81 149.32C185.37 146.64 184.86 143.98 184.1 141.35C183.87 140.57 182.89 140.09 182.17 140.56C178.51 142.96 174.76 144.99 170.39 145.69C169.16 145.89 169.2 147.64 170.18 148.13C170.17 149.53 170.29 150.9 170.49 152.25C170.62 153.98 170.85 155.69 171.17 157.4C171.15 157.51 171.12 157.61 171.14 157.74C171.65 162.93 173.65 167.86 172.98 173.12C172.86 174.03 173.9 174.54 174.64 174.39C178.82 173.55 184.84 171.63 187.92 168.55C188.26 168.21 188.47 167.84 188.59 167.45C189.28 167.39 189.8 166.83 189.81 166.15Z" fill="#000035"/>
<path d="M148.27 148.4C143.67 148.25 139.22 147.19 134.68 146.47C133.6 146.3 132.56 147.32 133.2 148.4C133.28 148.53 133.37 148.64 133.45 148.76C133.09 148.96 132.8 149.32 132.76 149.84C132.27 155.6 133.02 163.82 129.52 168.77C129 169.5 129.56 170.46 130.31 170.7C131.54 171.11 132.82 171.53 134.11 171.96C135.79 173.05 137.68 173.85 139.63 173.65C142.44 174.42 145.28 175.03 148.02 175.22C148.74 175.27 149.33 174.58 149.33 173.91C149.41 165.91 147.67 157.98 149.55 150.07C149.74 149.22 149.14 148.43 148.27 148.4Z" fill="#000035"/>
<path d="M119.43 140.3C119.07 140.16 118.7 140 118.33 139.82C118.22 139.55 118.03 139.3 117.77 139.12C117.07 138.64 116.52 137.95 115.93 137.35C115.45 136.87 114.87 136.88 114.42 137.14C113.56 136.33 112.83 135.42 112.32 134.46C111.64 133.15 109.4 134.07 109.92 135.47C109.96 135.57 109.99 135.67 110.03 135.77C110 135.82 109.95 135.85 109.92 135.9C108.03 139.43 104.99 144.29 105.01 148.35C105.03 151.09 107.24 153.76 108.9 156.15C109.21 156.69 109.54 157.22 109.92 157.74C110.21 158.14 110.59 158.32 110.98 158.33C111.36 158.97 111.74 159.61 112.16 160.24C112.77 161.17 114.26 161.07 114.56 159.93C115.81 155.25 117.86 150.69 118.87 145.98C119.45 144.66 120 143.33 120.35 141.92C120.53 141.17 120.12 140.56 119.43 140.3Z" fill="#000035"/>
<path d="M100.67 123.94C97.6099 126.43 94.3399 128.44 91.6799 131.4C91.6099 131.48 91.5599 131.56 91.4999 131.64C90.9499 131.76 90.5799 132.09 90.3399 132.68C90.0699 133.31 90.5899 134.05 91.1799 134.27C91.8099 136.03 93.6999 137.76 94.4199 139.09C94.9299 140.03 96.6299 139.92 96.8199 138.78C97.2999 135.9 98.2999 133.53 100.28 131.53C100.98 131.61 101.71 131.18 101.73 130.27C101.76 128.63 101.94 127.01 102.73 125.54C103.48 124.16 101.8 123.02 100.67 123.94Z" fill="#000035"/>
<path d="M94.3699 154.5C94.0099 154.33 94.0899 154.37 93.8299 154.07C93.8099 154.05 93.7999 154.03 93.7799 154.02C93.7699 154 93.7499 153.97 93.7099 153.92C93.6099 153.78 93.5099 153.63 93.4099 153.49C92.9599 152.84 92.4599 152.22 91.7399 151.87C91.3299 151.67 90.8699 151.67 90.4899 151.86C89.4699 151.08 88.4299 150.34 87.3699 149.59C86.8599 148.82 86.2999 148.22 85.6999 147.86C85.2899 147.14 84.9099 146.4 84.5799 145.63C84.1899 144.7 82.7499 144.84 82.3099 145.63C80.2199 149.42 77.0299 152.26 74.3599 155.62C73.9399 156.15 73.7799 156.97 74.3599 157.48C74.5099 157.61 74.8199 157.8 75.2199 158C76.5399 164.91 82.6099 168.28 86.6499 173.51C87.1599 174.18 88.0499 174.42 88.7099 173.78C92.6499 169.95 92.5899 164.35 94.3299 159.44C94.6299 158.59 94.7799 157.87 94.8199 157.23C94.9299 156.92 94.9399 156.56 94.8499 156.24C95.1699 155.67 94.9999 154.81 94.3699 154.5Z" fill="#000035"/>
<path d="M67.1 187.05C64.47 183.16 63.4 178.64 62.22 174.15C61.34 170.8 61.96 167.43 61.48 164.11C61.53 163.76 61.59 163.41 61.61 163.05C62.61 162.47 62.36 160.81 60.96 160.63C58 160.24 55.01 160.09 52.11 159.36C51.93 159.32 51.77 159.31 51.62 159.33C51.2 159.16 50.78 158.98 50.36 158.78C49.83 157.97 48.76 157.94 48.13 158.78C47.44 159.69 47.03 160.7 46.76 161.76C44.18 165.43 43.83 172.14 43.75 176.53C43.75 176.72 43.78 176.88 43.83 177.03C43.79 179.56 44 182.13 44.45 184.77C44.56 185.42 45.28 185.79 45.9 185.72C51.44 189.64 59.94 191.02 66.31 188.98C67.08 188.74 67.6 187.78 67.1 187.05Z" fill="#000035"/>
<path d="M59.0499 190.22C56.9699 201.28 57.8399 212.67 61.4899 223.31C65.0799 233.79 71.1399 243.32 78.6799 251.4C86.2699 259.53 95.4299 266.39 105.55 271.03C115.65 275.66 126.61 278.26 137.67 279.12C159.62 280.83 183.07 275.87 201.18 262.95C217.95 250.99 225.63 230.51 227.57 210.65C228.54 200.65 228.15 190.49 226.44 180.59C225.47 174.95 223.98 169.48 221.62 164.26C219.16 158.82 215.9 153.76 212.08 149.17C210.27 146.99 208.33 144.93 206.29 142.96C205.71 142.4 204.83 143.28 205.41 143.84C213.89 152.03 220.53 162.11 223.66 173.55C226.26 183.09 227.08 193.28 226.8 203.14C226.24 222.63 220.63 243.47 206.11 257.28C198.48 264.54 188.59 269.53 178.68 272.88C168.17 276.43 157.06 278.17 145.97 278.18C135.07 278.19 124.14 276.53 113.83 272.99C103.44 269.42 93.9699 263.76 85.7299 256.5C69.3499 242.06 58.0999 221.19 59.2499 198.95C59.3999 196.13 59.7399 193.32 60.2599 190.55C60.4099 189.77 59.1999 189.43 59.0499 190.22Z" fill="#000035"/>
<path d="M206.72 164.41C211.35 172.77 212.92 181.97 212.95 191.44C212.95 192.24 214.2 192.25 214.2 191.44C214.18 181.75 212.54 172.33 207.8 163.78C207.41 163.07 206.33 163.7 206.72 164.41Z" fill="#000035"/>
<path d="M212.96 177.86C219.84 169.22 225.04 159.49 228.73 149.09C230.61 143.79 232.04 138.38 233.34 132.91C234.69 127.23 236.07 121.54 237.12 115.8C238.25 109.66 239.07 103.39 238.74 97.1301C238.7 96.3301 237.45 96.3201 237.49 97.1301C238.08 108.4 235.21 119.64 232.63 130.51C230.12 141.08 227.18 151.43 222.24 161.16C219.4 166.76 215.99 172.06 212.08 176.97C211.58 177.6 212.46 178.49 212.96 177.86Z" fill="#000035"/>
<path d="M229.86 101.65C232.02 105.24 234.51 108.77 238.15 110.99C238.37 111.13 238.73 111.1 238.91 110.89C241.6 107.79 243.83 104.26 245.67 100.6C246.03 99.88 244.95 99.25 244.59 99.97C242.8 103.54 240.65 106.99 238.03 110.01C238.28 109.98 238.53 109.94 238.79 109.91C235.34 107.8 233 104.42 230.95 101.02C230.52 100.33 229.44 100.96 229.86 101.65Z" fill="#000035"/>
<path d="M80.88 147.3C77.47 140.38 75.94 132.72 73.03 125.6C71.54 121.94 69.85 118.36 68.29 114.73C66.67 110.95 65.05 107.16 63.35 103.41C61.41 99.15 59.34 94.94 57.04 90.86C56.64 90.16 55.56 90.79 55.96 91.49C60.02 98.69 63.32 106.27 66.58 113.86C68.21 117.65 69.91 121.41 71.53 125.21C73.07 128.83 74.23 132.6 75.43 136.34C76.69 140.28 77.98 144.22 79.81 147.94C80.16 148.65 81.24 148.02 80.88 147.3Z" fill="#000035"/>
<path d="M52.3299 100.12C56.0499 102.16 59.5299 104.72 63.6999 105.79C64.0499 105.88 64.3499 105.68 64.4699 105.35C66.0299 101.05 67.6099 96.4901 67.6499 91.8601C67.6599 91.0601 66.4099 91.0501 66.3999 91.8601C66.3699 96.3701 64.7899 100.82 63.2699 105.02C63.5299 104.87 63.7799 104.73 64.0399 104.58C59.9799 103.53 56.5999 101.03 52.9699 99.0301C52.2499 98.6601 51.6199 99.7401 52.3299 100.12Z" fill="#000035"/>
<path d="M154.19 186.19C143.68 186.19 144.04 199.13 152.16 200.14C161.55 201.66 164.34 187.71 154.19 186.19Z" fill="#F93A3A"/>
<path d="M153.4 189.24C153.03 189.24 152.64 189.32 152.33 189.53C152.01 189.74 151.79 190.02 151.66 190.38C151.44 190.97 151.62 191.68 152.05 192.12C152.57 192.65 153.42 192.74 154.08 192.42C154.65 192.15 155 191.49 154.99 190.87C154.97 190.06 154.37 189.39 153.57 189.26C153.4 189.23 153.24 189.23 153.09 189.32C152.96 189.4 152.84 189.54 152.8 189.69C152.76 189.85 152.77 190.03 152.86 190.17C152.94 190.3 153.08 190.43 153.23 190.46C153.34 190.48 153.45 190.51 153.56 190.55C153.51 190.53 153.46 190.51 153.41 190.49C153.47 190.52 153.53 190.55 153.59 190.58C153.65 190.62 153.71 190.7 153.56 190.55C153.58 190.57 153.61 190.59 153.63 190.61C153.65 190.63 153.67 190.65 153.69 190.68C153.74 190.73 153.62 190.59 153.63 190.6C153.64 190.61 153.65 190.62 153.66 190.64C153.69 190.69 153.72 190.74 153.75 190.8C153.73 190.75 153.71 190.7 153.69 190.65C153.73 190.73 153.75 190.82 153.76 190.91C153.75 190.85 153.75 190.8 153.74 190.74C153.75 190.84 153.75 190.94 153.74 191.05C153.75 190.99 153.75 190.94 153.76 190.88C153.75 190.98 153.72 191.07 153.68 191.16C153.7 191.11 153.72 191.06 153.74 191.01C153.72 191.07 153.69 191.12 153.65 191.18C153.63 191.21 153.56 191.31 153.64 191.2C153.72 191.09 153.65 191.19 153.62 191.22C153.6 191.24 153.58 191.26 153.56 191.28C153.55 191.29 153.53 191.3 153.52 191.31C153.53 191.3 153.67 191.2 153.59 191.25C153.53 191.29 153.48 191.32 153.42 191.35C153.47 191.33 153.52 191.31 153.57 191.29C153.48 191.33 153.39 191.35 153.3 191.36C153.36 191.35 153.41 191.35 153.47 191.34C153.36 191.35 153.26 191.35 153.15 191.34C153.21 191.35 153.26 191.35 153.32 191.36C153.21 191.34 153.1 191.32 152.99 191.28C153.04 191.3 153.09 191.32 153.14 191.34C153.08 191.31 153.02 191.28 152.97 191.25C152.87 191.19 153.1 191.36 153.01 191.28C152.99 191.26 152.96 191.24 152.94 191.22C152.92 191.2 152.9 191.18 152.88 191.16C152.84 191.11 152.99 191.31 152.94 191.24C152.93 191.23 152.92 191.21 152.91 191.2C152.88 191.15 152.85 191.09 152.82 191.04C152.84 191.09 152.86 191.14 152.88 191.19C152.84 191.1 152.82 191.01 152.81 190.91C152.82 190.97 152.82 191.02 152.83 191.08C152.82 190.98 152.82 190.88 152.83 190.78C152.82 190.84 152.82 190.89 152.81 190.95C152.82 190.86 152.85 190.77 152.88 190.69C152.86 190.74 152.84 190.79 152.82 190.84C152.84 190.78 152.87 190.73 152.9 190.68C152.91 190.67 152.92 190.66 152.92 190.64C152.97 190.57 152.82 190.76 152.86 190.72C152.88 190.7 152.9 190.67 152.93 190.65C152.95 190.63 152.97 190.61 153 190.59C153.06 190.53 152.87 190.69 152.92 190.65C152.93 190.64 152.95 190.63 152.96 190.62C153.02 190.58 153.08 190.55 153.15 190.52C153.1 190.54 153.05 190.56 153 190.58C153.11 190.54 153.22 190.51 153.34 190.49C153.28 190.5 153.23 190.5 153.17 190.51C153.24 190.5 153.32 190.5 153.39 190.5C153.72 190.5 154.03 190.21 154.01 189.88C154.01 189.53 153.75 189.24 153.4 189.24Z" fill="#000035"/>
<path d="M153.4 194.12C153.04 194.12 152.65 194.2 152.34 194.4C152.02 194.61 151.81 194.89 151.67 195.24C151.44 195.82 151.61 196.52 152.03 196.97C152.14 197.09 152.28 197.2 152.43 197.27C152.65 197.39 152.85 197.43 153.1 197.46C153.04 197.45 152.99 197.45 152.93 197.44C153.34 197.5 153.73 197.48 154.11 197.28C154.38 197.14 154.63 196.89 154.77 196.62C155.1 195.99 155.04 195.24 154.59 194.69C154.34 194.39 153.95 194.2 153.57 194.14C153.4 194.11 153.24 194.11 153.09 194.2C152.96 194.28 152.84 194.42 152.8 194.57C152.76 194.73 152.77 194.91 152.86 195.05C152.94 195.18 153.08 195.31 153.23 195.34C153.34 195.36 153.45 195.39 153.56 195.43C153.51 195.41 153.46 195.39 153.41 195.37C153.47 195.4 153.53 195.43 153.59 195.46C153.65 195.5 153.71 195.58 153.56 195.43C153.58 195.45 153.61 195.47 153.63 195.49C153.65 195.51 153.67 195.53 153.69 195.56C153.74 195.61 153.62 195.47 153.63 195.48C153.64 195.49 153.65 195.5 153.66 195.52C153.69 195.57 153.72 195.62 153.75 195.68C153.73 195.63 153.71 195.58 153.69 195.53C153.73 195.61 153.75 195.7 153.76 195.79C153.75 195.73 153.75 195.68 153.74 195.62C153.75 195.72 153.75 195.82 153.74 195.93C153.75 195.87 153.75 195.82 153.76 195.76C153.75 195.86 153.72 195.95 153.68 196.04C153.7 195.99 153.72 195.94 153.74 195.89C153.72 195.95 153.69 196 153.65 196.06C153.63 196.09 153.56 196.19 153.64 196.08C153.72 195.97 153.65 196.07 153.62 196.1C153.6 196.12 153.58 196.14 153.56 196.16C153.55 196.17 153.53 196.18 153.52 196.19C153.53 196.18 153.67 196.08 153.59 196.13C153.53 196.17 153.48 196.2 153.42 196.23C153.47 196.21 153.52 196.19 153.57 196.17C153.48 196.21 153.39 196.23 153.3 196.24C153.36 196.23 153.41 196.23 153.47 196.22C153.36 196.23 153.26 196.23 153.15 196.22C153.21 196.23 153.26 196.23 153.32 196.24C153.24 196.23 153.17 196.22 153.09 196.21C153.15 196.22 153.2 196.22 153.26 196.23C153.17 196.22 153.08 196.19 153 196.16C153.05 196.18 153.1 196.2 153.15 196.22C153.09 196.19 153.03 196.16 152.98 196.13C152.88 196.07 153.11 196.24 153.02 196.16C153 196.14 152.97 196.12 152.95 196.1C152.93 196.08 152.91 196.06 152.89 196.04C152.85 195.99 153 196.19 152.95 196.12C152.94 196.11 152.93 196.09 152.92 196.08C152.89 196.03 152.86 195.97 152.83 195.92C152.85 195.97 152.87 196.02 152.89 196.07C152.85 195.98 152.83 195.89 152.82 195.79C152.83 195.85 152.83 195.9 152.84 195.96C152.83 195.86 152.83 195.76 152.84 195.66C152.83 195.72 152.83 195.77 152.82 195.83C152.83 195.74 152.86 195.65 152.89 195.57C152.87 195.62 152.85 195.67 152.83 195.72C152.85 195.66 152.88 195.61 152.91 195.56C152.92 195.55 152.93 195.54 152.93 195.52C152.98 195.45 152.83 195.64 152.87 195.6C152.89 195.58 152.91 195.55 152.94 195.53C152.96 195.51 152.98 195.49 153.01 195.47C153.07 195.41 152.88 195.57 152.93 195.53C152.94 195.52 152.96 195.51 152.97 195.5C153.03 195.46 153.09 195.43 153.16 195.4C153.11 195.42 153.06 195.44 153.01 195.46C153.12 195.42 153.23 195.39 153.35 195.37C153.29 195.38 153.24 195.38 153.18 195.39C153.25 195.38 153.33 195.38 153.4 195.38C153.73 195.38 154.04 195.09 154.02 194.76C154.01 194.41 153.75 194.12 153.4 194.12Z" fill="#000035"/>
<path d="M154.38 207.41C143.87 207.41 144.23 220.35 152.35 221.36C161.73 222.88 164.52 208.93 154.38 207.41Z" fill="#F93A3A"/>
<path d="M153.59 210.45C153.23 210.45 152.84 210.53 152.53 210.73C152.21 210.94 152 211.22 151.86 211.57C151.63 212.15 151.8 212.85 152.22 213.3C152.33 213.42 152.47 213.53 152.62 213.6C152.84 213.72 153.04 213.76 153.29 213.79C153.23 213.78 153.18 213.78 153.12 213.77C153.53 213.83 153.92 213.8 154.3 213.61C154.57 213.47 154.82 213.22 154.96 212.95C155.29 212.32 155.23 211.57 154.78 211.02C154.53 210.72 154.14 210.53 153.76 210.47C153.59 210.44 153.43 210.44 153.28 210.53C153.15 210.61 153.03 210.75 152.99 210.9C152.95 211.06 152.96 211.24 153.05 211.38C153.13 211.51 153.27 211.64 153.42 211.67C153.53 211.69 153.64 211.72 153.75 211.76C153.7 211.74 153.65 211.72 153.6 211.7C153.66 211.73 153.72 211.76 153.78 211.79C153.84 211.83 153.9 211.91 153.75 211.76C153.77 211.78 153.8 211.8 153.82 211.82C153.84 211.84 153.86 211.86 153.88 211.89C153.93 211.94 153.81 211.8 153.82 211.81C153.83 211.82 153.84 211.83 153.85 211.85C153.88 211.9 153.91 211.95 153.94 212.01C153.92 211.96 153.9 211.91 153.88 211.86C153.92 211.94 153.94 212.03 153.95 212.12C153.94 212.06 153.94 212.01 153.93 211.95C153.94 212.05 153.94 212.15 153.93 212.26C153.94 212.2 153.94 212.15 153.95 212.09C153.94 212.19 153.91 212.28 153.87 212.37C153.89 212.32 153.91 212.27 153.93 212.22C153.91 212.28 153.88 212.33 153.84 212.39C153.82 212.42 153.75 212.52 153.83 212.41C153.91 212.3 153.84 212.4 153.81 212.43C153.79 212.45 153.77 212.47 153.75 212.49C153.74 212.5 153.72 212.51 153.71 212.52C153.72 212.51 153.86 212.41 153.78 212.46C153.72 212.5 153.67 212.53 153.61 212.56C153.66 212.54 153.71 212.52 153.76 212.5C153.67 212.54 153.58 212.56 153.49 212.57C153.55 212.56 153.6 212.56 153.66 212.55C153.55 212.56 153.45 212.56 153.34 212.55C153.4 212.56 153.45 212.56 153.51 212.57C153.43 212.56 153.36 212.55 153.28 212.54C153.34 212.55 153.39 212.55 153.45 212.56C153.36 212.55 153.27 212.52 153.19 212.49C153.24 212.51 153.29 212.53 153.34 212.55C153.28 212.52 153.22 212.49 153.17 212.46C153.07 212.4 153.3 212.57 153.21 212.49C153.19 212.47 153.16 212.45 153.14 212.43C153.12 212.41 153.1 212.39 153.08 212.37C153.04 212.32 153.19 212.52 153.14 212.45C153.13 212.44 153.12 212.42 153.11 212.41C153.08 212.36 153.05 212.3 153.02 212.25C153.04 212.3 153.06 212.35 153.08 212.4C153.04 212.31 153.02 212.22 153.01 212.12C153.02 212.18 153.02 212.23 153.03 212.29C153.02 212.19 153.02 212.09 153.03 211.99C153.02 212.05 153.02 212.1 153.01 212.16C153.02 212.07 153.05 211.98 153.08 211.9C153.06 211.95 153.04 212 153.02 212.05C153.04 211.99 153.07 211.94 153.1 211.89C153.11 211.88 153.12 211.87 153.12 211.85C153.17 211.78 153.02 211.97 153.06 211.93C153.08 211.91 153.1 211.88 153.13 211.86C153.15 211.84 153.17 211.82 153.2 211.8C153.26 211.74 153.07 211.9 153.12 211.86C153.13 211.85 153.15 211.84 153.16 211.83C153.22 211.79 153.28 211.76 153.35 211.73C153.3 211.75 153.25 211.77 153.2 211.79C153.31 211.75 153.42 211.72 153.54 211.7C153.48 211.71 153.43 211.71 153.37 211.72C153.44 211.71 153.52 211.71 153.59 211.71C153.92 211.71 154.23 211.42 154.21 211.09C154.2 210.74 153.94 210.45 153.59 210.45Z" fill="#000035"/>
<path d="M153.59 215.34C153.23 215.34 152.84 215.42 152.53 215.62C152.21 215.83 152 216.11 151.86 216.46C151.63 217.04 151.8 217.74 152.22 218.19C152.33 218.31 152.47 218.42 152.62 218.49C152.84 218.61 153.04 218.65 153.29 218.68C153.23 218.67 153.18 218.67 153.12 218.66C153.53 218.72 153.92 218.69 154.3 218.5C154.57 218.36 154.82 218.11 154.96 217.84C155.29 217.21 155.23 216.46 154.78 215.92C154.53 215.62 154.14 215.43 153.76 215.37C153.59 215.34 153.43 215.34 153.28 215.43C153.15 215.51 153.03 215.65 152.99 215.8C152.95 215.96 152.96 216.14 153.05 216.28C153.13 216.41 153.27 216.54 153.42 216.57C153.53 216.59 153.64 216.62 153.75 216.66C153.7 216.64 153.65 216.62 153.6 216.6C153.66 216.63 153.72 216.66 153.78 216.69C153.84 216.73 153.9 216.81 153.75 216.66C153.77 216.68 153.8 216.7 153.82 216.72C153.84 216.74 153.86 216.76 153.88 216.79C153.93 216.84 153.81 216.7 153.82 216.71C153.83 216.72 153.84 216.73 153.85 216.75C153.88 216.8 153.91 216.85 153.94 216.91C153.92 216.86 153.9 216.81 153.88 216.76C153.92 216.84 153.94 216.93 153.95 217.02C153.94 216.96 153.94 216.91 153.93 216.85C153.94 216.95 153.94 217.05 153.93 217.16C153.94 217.1 153.94 217.05 153.95 216.99C153.94 217.09 153.91 217.18 153.87 217.27C153.89 217.22 153.91 217.17 153.93 217.12C153.91 217.18 153.88 217.23 153.84 217.29C153.82 217.32 153.75 217.42 153.83 217.31C153.91 217.2 153.84 217.3 153.81 217.33C153.79 217.35 153.77 217.37 153.75 217.39C153.74 217.4 153.72 217.41 153.71 217.42C153.72 217.41 153.86 217.31 153.78 217.36C153.72 217.4 153.67 217.43 153.61 217.46C153.66 217.44 153.71 217.42 153.76 217.4C153.67 217.44 153.58 217.46 153.49 217.47C153.55 217.46 153.6 217.46 153.66 217.45C153.55 217.46 153.45 217.46 153.34 217.45C153.4 217.46 153.45 217.46 153.51 217.47C153.43 217.46 153.36 217.45 153.28 217.44C153.34 217.45 153.39 217.45 153.45 217.46C153.36 217.45 153.27 217.42 153.19 217.39C153.24 217.41 153.29 217.43 153.34 217.45C153.28 217.42 153.22 217.39 153.17 217.36C153.07 217.3 153.3 217.47 153.21 217.39C153.19 217.37 153.16 217.35 153.14 217.33C153.12 217.31 153.1 217.29 153.08 217.27C153.04 217.22 153.19 217.42 153.14 217.35C153.13 217.34 153.12 217.32 153.11 217.31C153.08 217.26 153.05 217.2 153.02 217.15C153.04 217.2 153.06 217.25 153.08 217.3C153.04 217.21 153.02 217.12 153.01 217.02C153.02 217.08 153.02 217.13 153.03 217.19C153.02 217.09 153.02 216.99 153.03 216.89C153.02 216.95 153.02 217 153.01 217.06C153.02 216.97 153.05 216.88 153.08 216.8C153.06 216.85 153.04 216.9 153.02 216.95C153.04 216.89 153.07 216.84 153.1 216.79C153.11 216.78 153.12 216.77 153.12 216.75C153.17 216.68 153.02 216.87 153.06 216.83C153.08 216.81 153.1 216.78 153.13 216.76C153.15 216.74 153.17 216.72 153.2 216.7C153.26 216.64 153.07 216.8 153.12 216.76C153.13 216.75 153.15 216.74 153.16 216.73C153.22 216.69 153.28 216.66 153.35 216.63C153.3 216.65 153.25 216.67 153.2 216.69C153.31 216.65 153.42 216.62 153.54 216.6C153.48 216.61 153.43 216.61 153.37 216.62C153.44 216.61 153.52 216.61 153.59 216.61C153.92 216.61 154.23 216.32 154.21 215.99C154.2 215.63 153.94 215.34 153.59 215.34Z" fill="#000035"/>
<path d="M153.15 231.6C142.64 231.6 143 244.54 151.12 245.55C160.51 247.07 163.3 233.12 153.15 231.6Z" fill="#F93A3A"/>
<path d="M152.36 234.65C151.99 234.65 151.61 234.73 151.3 234.93C150.98 235.14 150.77 235.42 150.63 235.77C150.4 236.35 150.57 237.05 150.99 237.5C151.1 237.62 151.24 237.73 151.39 237.8C151.61 237.92 151.81 237.96 152.06 237.99C152 237.98 151.95 237.98 151.89 237.97C152.3 238.03 152.69 238 153.07 237.81C153.34 237.67 153.59 237.42 153.73 237.15C154.06 236.52 154 235.77 153.55 235.22C153.3 234.92 152.91 234.73 152.53 234.67C152.36 234.64 152.2 234.64 152.05 234.73C151.92 234.81 151.8 234.95 151.76 235.1C151.72 235.26 151.73 235.44 151.82 235.58C151.9 235.71 152.04 235.84 152.19 235.87C152.3 235.89 152.41 235.92 152.52 235.96C152.47 235.94 152.42 235.92 152.37 235.9C152.43 235.93 152.49 235.96 152.55 235.99C152.61 236.03 152.67 236.11 152.52 235.96C152.54 235.98 152.57 236 152.59 236.02C152.61 236.04 152.63 236.06 152.65 236.09C152.7 236.14 152.58 236 152.59 236.01C152.6 236.02 152.61 236.03 152.62 236.05C152.65 236.1 152.68 236.15 152.71 236.21C152.69 236.16 152.67 236.11 152.65 236.06C152.69 236.14 152.71 236.23 152.72 236.32C152.71 236.26 152.71 236.21 152.7 236.15C152.71 236.25 152.71 236.34 152.7 236.44C152.71 236.38 152.71 236.33 152.72 236.27C152.71 236.37 152.68 236.47 152.64 236.57C152.66 236.52 152.68 236.47 152.7 236.42C152.68 236.48 152.65 236.53 152.61 236.59C152.59 236.62 152.52 236.72 152.6 236.61C152.68 236.5 152.61 236.6 152.58 236.63C152.56 236.65 152.54 236.67 152.52 236.69C152.51 236.7 152.49 236.71 152.48 236.72C152.49 236.71 152.63 236.61 152.55 236.66C152.49 236.7 152.44 236.73 152.38 236.76C152.43 236.74 152.48 236.72 152.53 236.7C152.44 236.74 152.35 236.76 152.26 236.77C152.32 236.76 152.37 236.76 152.43 236.75C152.32 236.76 152.22 236.76 152.11 236.75C152.17 236.76 152.22 236.76 152.28 236.77C152.2 236.76 152.13 236.75 152.05 236.74C152.11 236.75 152.16 236.75 152.22 236.76C152.13 236.75 152.04 236.72 151.96 236.69C152.01 236.71 152.06 236.73 152.11 236.75C152.05 236.72 151.99 236.69 151.94 236.66C151.84 236.6 152.07 236.77 151.98 236.69C151.96 236.67 151.93 236.65 151.91 236.63C151.89 236.61 151.87 236.59 151.85 236.57C151.81 236.52 151.96 236.72 151.91 236.65C151.9 236.64 151.89 236.62 151.88 236.61C151.85 236.56 151.82 236.5 151.79 236.45C151.81 236.5 151.83 236.55 151.85 236.6C151.81 236.51 151.79 236.42 151.78 236.32C151.79 236.38 151.79 236.43 151.8 236.49C151.79 236.39 151.79 236.29 151.8 236.19C151.79 236.25 151.79 236.3 151.78 236.36C151.79 236.27 151.82 236.18 151.85 236.1C151.83 236.15 151.81 236.2 151.79 236.25C151.81 236.19 151.84 236.14 151.87 236.09C151.88 236.08 151.89 236.07 151.89 236.05C151.94 235.98 151.79 236.17 151.83 236.13C151.85 236.11 151.87 236.08 151.9 236.06C151.92 236.04 151.94 236.02 151.97 236C152.03 235.94 151.84 236.1 151.89 236.06C151.9 236.05 151.92 236.04 151.93 236.03C151.99 235.99 152.05 235.96 152.12 235.93C152.07 235.95 152.02 235.97 151.97 235.99C152.08 235.95 152.19 235.92 152.31 235.9C152.25 235.91 152.2 235.91 152.14 235.92C152.21 235.91 152.29 235.91 152.36 235.91C152.69 235.91 153 235.62 152.98 235.29C152.97 234.94 152.71 234.65 152.36 234.65Z" fill="#000035"/>
<path d="M152.36 239.53C151.99 239.53 151.61 239.61 151.3 239.81C150.98 240.02 150.77 240.3 150.63 240.65C150.4 241.23 150.57 241.93 150.99 242.38C151.1 242.5 151.24 242.61 151.39 242.68C151.61 242.8 151.81 242.84 152.06 242.87C152 242.86 151.95 242.86 151.89 242.85C152.3 242.91 152.69 242.88 153.07 242.69C153.34 242.55 153.59 242.3 153.73 242.03C154.06 241.4 154 240.65 153.55 240.1C153.3 239.8 152.91 239.61 152.53 239.55C152.36 239.52 152.2 239.52 152.05 239.61C151.92 239.69 151.8 239.83 151.76 239.98C151.72 240.14 151.73 240.32 151.82 240.46C151.9 240.59 152.04 240.72 152.19 240.75C152.3 240.77 152.41 240.8 152.52 240.84C152.47 240.82 152.42 240.8 152.37 240.78C152.43 240.81 152.49 240.84 152.55 240.87C152.61 240.91 152.67 240.99 152.52 240.84C152.54 240.86 152.57 240.88 152.59 240.9C152.61 240.92 152.63 240.94 152.65 240.97C152.7 241.02 152.58 240.88 152.59 240.89C152.6 240.9 152.61 240.91 152.62 240.93C152.65 240.98 152.68 241.03 152.71 241.09C152.69 241.04 152.67 240.99 152.65 240.94C152.69 241.02 152.71 241.11 152.72 241.2C152.71 241.14 152.71 241.09 152.7 241.03C152.71 241.13 152.71 241.22 152.7 241.32C152.71 241.26 152.71 241.21 152.72 241.15C152.71 241.25 152.68 241.35 152.64 241.45C152.66 241.4 152.68 241.35 152.7 241.3C152.68 241.36 152.65 241.41 152.61 241.47C152.59 241.5 152.52 241.6 152.6 241.49C152.68 241.38 152.61 241.48 152.58 241.51C152.56 241.53 152.54 241.55 152.52 241.57C152.51 241.58 152.49 241.59 152.48 241.6C152.49 241.59 152.63 241.49 152.55 241.54C152.49 241.58 152.44 241.61 152.38 241.64C152.43 241.62 152.48 241.6 152.53 241.58C152.44 241.62 152.35 241.64 152.26 241.65C152.32 241.64 152.37 241.64 152.43 241.63C152.32 241.64 152.22 241.64 152.11 241.63C152.17 241.64 152.22 241.64 152.28 241.65C152.2 241.64 152.13 241.63 152.05 241.62C152.11 241.63 152.16 241.63 152.22 241.64C152.13 241.63 152.04 241.6 151.96 241.57C152.01 241.59 152.06 241.61 152.11 241.63C152.05 241.6 151.99 241.57 151.94 241.54C151.84 241.48 152.07 241.65 151.98 241.57C151.96 241.55 151.93 241.53 151.91 241.51C151.89 241.49 151.87 241.47 151.85 241.45C151.81 241.4 151.96 241.6 151.91 241.53C151.9 241.52 151.89 241.5 151.88 241.49C151.85 241.44 151.82 241.38 151.79 241.33C151.81 241.38 151.83 241.43 151.85 241.48C151.81 241.39 151.79 241.3 151.78 241.2C151.79 241.26 151.79 241.31 151.8 241.37C151.79 241.27 151.79 241.17 151.8 241.07C151.79 241.13 151.79 241.18 151.78 241.24C151.79 241.15 151.82 241.06 151.85 240.98C151.83 241.03 151.81 241.08 151.79 241.13C151.81 241.07 151.84 241.02 151.87 240.97C151.88 240.96 151.89 240.95 151.89 240.93C151.94 240.86 151.79 241.05 151.83 241.01C151.85 240.99 151.87 240.96 151.9 240.94C151.92 240.92 151.94 240.9 151.97 240.88C152.03 240.82 151.84 240.98 151.89 240.94C151.9 240.93 151.92 240.92 151.93 240.91C151.99 240.87 152.05 240.84 152.12 240.81C152.07 240.83 152.02 240.85 151.97 240.87C152.08 240.83 152.19 240.8 152.31 240.78C152.25 240.79 152.2 240.79 152.14 240.8C152.21 240.79 152.29 240.79 152.36 240.79C152.69 240.79 153 240.5 152.98 240.17C152.97 239.82 152.71 239.53 152.36 239.53Z" fill="#000035"/>
<path d="M171.76 264.81C171.77 274.05 172.43 283.31 173.88 292.44C175.38 301.89 177.72 311.37 181.9 320.03C184.04 324.46 186.71 328.65 190.13 332.2C190.69 332.78 191.57 331.9 191.01 331.32C184.78 324.84 181.09 316.28 178.56 307.77C175.81 298.51 174.34 288.88 173.58 279.26C173.2 274.46 173.02 269.64 173.01 264.82C173.01 264.01 171.76 264.01 171.76 264.81Z" fill="#000035"/>
<path d="M125.47 266.83C121.02 276.14 114.78 284.55 106.81 291.14C99.02 297.58 89.73 302.07 79.86 304.23C74.03 305.51 68.05 305.95 62.09 305.7C61.29 305.67 61.29 306.92 62.09 306.95C72.71 307.39 83.36 305.55 93.08 301.16C102.37 296.97 110.56 290.53 117 282.63C120.79 277.98 123.97 272.86 126.56 267.45C126.89 266.74 125.82 266.11 125.47 266.83Z" fill="#000035"/>
<path d="M50.1199 289.01C50.5299 295.61 49.2999 305.09 49.2999 311.69C49.2999 322 49.7099 324.06 60.8499 320.76C70.7499 317.87 74.8699 310.04 72.3999 300.14C69.9199 291.07 61.2599 287.77 52.1899 288.59C51.3599 288.59 50.5299 289.01 50.1199 289.01Z" fill="#F93A3A"/>
<path d="M167.72 347.09C174.81 346.65 185.01 347.98 192.1 347.98C203.18 347.98 205.4 347.54 201.86 335.57C198.76 324.93 190.34 320.49 179.7 323.15C169.95 325.81 166.4 335.11 167.28 344.87C167.28 345.76 167.72 346.65 167.72 347.09Z" fill="#F93A3A"/>
<path d="M103.58 39.8001C104.75 44.3201 108.45 47.5401 110.65 51.5201C111.04 52.2201 112.12 51.5901 111.73 50.8901C109.59 47.0201 105.92 43.8601 104.78 39.4701C104.58 38.6901 103.38 39.0201 103.58 39.8001Z" fill="#F93A3A"/>
<path d="M115.85 40.8502C116.57 42.9902 117.56 45.0302 118.72 46.9602C119.13 47.6502 120.21 47.0202 119.8 46.3302C118.7 44.4902 117.74 42.5502 117.06 40.5202C116.8 39.7602 115.59 40.0902 115.85 40.8502Z" fill="#F93A3A"/>
<path d="M123.21 32.0901C124.6 37.2401 126.67 42.1501 128.47 47.1701C128.74 47.9201 129.95 47.6001 129.68 46.8401C127.88 41.8301 125.81 36.9101 124.42 31.7601C124.21 30.9801 123 31.3101 123.21 32.0901Z" fill="#F93A3A"/>
<path d="M135.13 36.29C135.83 38.74 136.53 41.2 137.23 43.65C137.45 44.42 138.66 44.09 138.44 43.32C137.74 40.87 137.04 38.41 136.34 35.96C136.12 35.19 134.91 35.52 135.13 36.29Z" fill="#F93A3A"/>
<path d="M145.28 25.9601C145.7 31.6801 148.02 37.0201 149.16 42.6001C149.32 43.3901 150.53 43.0501 150.37 42.2701C149.26 36.8101 146.95 31.5601 146.54 25.9601C146.47 25.1601 145.22 25.1601 145.28 25.9601Z" fill="#F93A3A"/>
<path d="M153.71 32.4401C154.35 34.3901 154.77 36.3801 155.11 38.4001C155.17 38.7301 155.58 38.9201 155.88 38.8401C156.23 38.7401 156.37 38.4101 156.32 38.0701C155.98 36.0501 155.56 34.0601 154.92 32.1101C154.67 31.3401 153.46 31.6701 153.71 32.4401Z" fill="#F93A3A"/>
<path d="M164.21 24.21C164.21 28.77 164.21 33.33 164.21 37.88C164.21 38.68 165.46 38.69 165.46 37.88C165.46 33.32 165.46 28.76 165.46 24.21C165.46 23.4 164.21 23.4 164.21 24.21Z" fill="#F93A3A"/>
<path d="M200.95 49.3701C203.15 49.3701 205.41 49.4601 207.51 50.1501C209.22 50.7101 210.77 51.8201 211.01 53.7201C211.2 55.2001 210.71 56.7001 210.16 58.0501C210.03 58.3601 210.3 58.7301 210.6 58.8201C210.96 58.9201 211.24 58.6901 211.37 58.3801C212.34 56.0201 212.9 53.1301 211.14 50.9901C209.7 49.2401 207.24 48.6501 205.1 48.3601C203.72 48.1801 202.34 48.1201 200.95 48.1201C200.14 48.1201 200.14 49.3701 200.95 49.3701Z" fill="#F93A3A"/>
<path d="M89.6399 71.9901C87.2499 72.9801 84.7599 74.7601 84.3299 77.5001C83.9599 79.8401 85.3399 81.9201 87.3699 82.9901C88.8699 83.7801 90.5799 84.0701 92.2699 84.0801C93.0699 84.0801 93.0799 82.8301 92.2699 82.8301C90.1099 82.8201 87.5199 82.2901 86.1999 80.4001C85.1499 78.8901 85.4099 77.0201 86.5299 75.6201C87.4199 74.5101 88.6799 73.7301 89.9799 73.1901C90.7099 72.8901 90.3899 71.6801 89.6399 71.9901Z" fill="#F93A3A"/>
<path d="M373.34 201.72C373.87 194.45 373.59 187.18 373.48 179.9C369.34 181.38 365.16 182.91 360.89 183.63C360.32 183.83 359.67 183.93 358.94 183.89C356.2 184.18 353.41 184.09 350.56 183.4C346.85 182.49 343.22 180.96 339.71 179.12C333.05 176.17 326.99 171.95 321.08 166.56C320.67 166.18 320.35 165.79 320.1 165.38C317.9 163.02 316.06 160.34 314.74 157.14C314.68 156.99 314.63 156.84 314.58 156.69L312.98 156.77C309.56 161.77 304.57 165.45 301.41 170.97C297.47 178.07 293.26 186.75 292.21 194.9C291.82 198.32 291.63 201.83 291.65 205.38C304.43 211.2 318.42 214.32 332.25 216.39C344.32 218.2 356.75 219.71 369.1 220.27C370.12 213.99 372.87 208.12 373.34 201.72Z" fill="#F93A3A"/>
<path d="M460.48 190.34C459.17 177.98 452.86 164.66 442.86 156.24C440.76 154.66 438.39 151.77 436.02 150.98L435.6 151C429.03 165.26 412.6 179.78 396.77 178.95C397.13 180.77 397.36 182.62 397.58 184.4C397.59 184.5 397.61 184.59 397.63 184.69C399.52 190.48 402.04 196.03 403.59 201.91C407.56 206.35 410.57 212.01 411.36 217.9C428.21 215.26 444.84 210.66 460.64 204.22C461.11 199.67 461.08 195.06 460.48 190.34Z" fill="#F93A3A"/>
<path d="M463.54 104.08C464.1 101.82 464.59 99.5399 465.15 97.2699C465.63 95.3099 466.31 93.3899 466.79 91.4299C467.29 89.3799 467.44 87.2599 468.18 85.2699C468.39 84.7099 468.78 83.5599 469.54 83.5899C470.58 83.6199 471.46 85.2899 471.73 86.1099C472.68 88.9599 472.43 92.0699 473.21 94.9599C473.32 95.3799 473.95 95.6199 474.25 95.2399C476.44 92.4699 478.23 89.3899 480.66 86.8099C481.86 85.5299 483.26 84.2499 484.97 83.6999C486.35 83.2599 488.18 83.0299 489.42 83.9499C491.66 85.5899 491.26 89.4499 490.76 91.7899C489.95 95.5699 487.99 99.0999 485.86 102.28C483.38 105.97 480.36 109.62 476.65 112.14C475.99 112.59 476.61 113.67 477.28 113.22C480.86 110.79 483.79 107.39 486.27 103.88C488.75 100.37 491.06 96.3799 491.96 92.1299C492.54 89.4299 492.82 85.7499 490.8 83.5299C488.53 81.0299 484.42 82.1099 482.05 83.8699C478.35 86.6099 476.16 90.8199 473.36 94.3599C473.71 94.4499 474.06 94.5399 474.4 94.6399C473.7 92.0099 473.78 89.2299 473.14 86.5799C472.74 84.9399 471.57 82.5099 469.61 82.3599C468 82.2299 467.24 84.0999 466.83 85.3499C466.23 87.1799 466.03 89.0999 465.61 90.9699C465.19 92.8299 464.51 94.6499 464.05 96.4999C463.45 98.9099 462.93 101.34 462.33 103.76C462.14 104.53 463.34 104.87 463.54 104.08Z" fill="#000035"/>
<path d="M324.19 119.73C322.81 122.58 320.73 124.98 319.28 127.79C317.82 130.63 316.97 134.06 316.65 137.22C316.48 138.91 319.11 138.89 319.28 137.22C319.59 134.14 320.64 130.9 322.05 128.15C323.33 125.66 325.23 123.58 326.46 121.06C327.2 119.54 324.93 118.21 324.19 119.73Z" fill="#F93A3A"/>
<path d="M346.1 135.12C345.93 137.95 344.85 140.75 344.25 143.51C343.82 145.46 343.95 147.69 343.13 149.53C342.44 151.06 344.71 152.4 345.4 150.86C346.33 148.78 346.39 146.43 346.79 144.21C347.33 141.15 348.55 138.25 348.74 135.12C348.83 133.43 346.2 133.44 346.1 135.12Z" fill="#F93A3A"/>
<path d="M380.59 154.23C379.4 149.54 379.74 144.65 379.76 139.85C379.77 138.15 377.14 138.15 377.13 139.85C377.11 144.89 376.81 150 378.05 154.93C378.47 156.57 381 155.87 380.59 154.23Z" fill="#F93A3A"/>
<path d="M415.51 145.5C414.41 143.09 413.85 140.49 413.04 137.98C412.16 135.23 410.83 132.7 410.21 129.86C409.85 128.2 407.31 128.91 407.67 130.56C408.28 133.38 409.51 135.98 410.5 138.68C411.49 141.39 412.03 144.19 413.24 146.83C413.95 148.37 416.21 147.03 415.51 145.5Z" fill="#F93A3A"/>
<path d="M432.52 124.99C430.34 120.72 427.52 116.85 424.07 113.5C422.85 112.32 420.99 114.18 422.21 115.36C425.5 118.56 428.16 122.23 430.24 126.31C431.02 127.83 433.29 126.5 432.52 124.99Z" fill="#F93A3A"/>
<path d="M314.91 81.5699C315.5 71.0299 319.42 60.5599 326.7 52.7999C334.3 44.6999 345.23 40.7099 355.99 38.9499C366.66 37.1999 377.83 37.4999 388.4 39.7899C398.9 42.0599 409.46 46.4399 416.93 54.4099C420.61 58.3399 422.91 63.4799 424.44 68.5799C426.07 74.0299 426.93 79.9599 426 85.6199C425.87 86.4099 427.07 86.7499 427.21 85.9499C428.04 80.9099 427.52 75.7199 426.34 70.7899C425.14 65.7799 423.19 60.7799 420.25 56.5299C414.12 47.6699 403.36 42.5199 393.27 39.6999C382.44 36.6699 370.85 35.8999 359.68 37.1899C348.61 38.4699 336.97 41.8599 328.47 49.3699C319.3 57.4699 314.37 69.4999 313.69 81.5799C313.61 82.3699 314.86 82.3699 314.91 81.5699Z" fill="#000035"/>
<path d="M370.03 49.92C347.34 50 322.39 63.66 316.35 86.76C315 91.91 314.66 97.33 315.6 102.58C316.54 107.83 318.88 112.54 322.13 116.74C327.9 124.18 335.81 129.7 344.44 133.36C361.91 140.76 383.04 141.34 400.61 133.93C405.25 131.97 409.63 129.46 413.36 126.06C417.48 122.31 420.8 117.68 423.16 112.64C427.73 102.87 429.07 91.37 424.91 81.23C420.79 71.18 412.64 62.92 403.28 57.6C398.84 55.08 394.2 53.45 389.25 52.29C385.26 51.36 381.36 50.27 377.27 49.84C374.8 49.58 372.31 49.53 369.86 49.96C369.07 50.1 369.4 51.3 370.19 51.17C375.06 50.32 380.23 51.35 384.98 52.49C388.55 53.35 392.21 54.12 395.66 55.4C405.61 59.1 414.6 66.25 420.34 75.18C423.14 79.53 425.18 84.41 425.92 89.55C426.68 94.85 425.98 100.41 424.51 105.53C421.55 115.8 414.88 124.95 405.48 130.19C389.38 139.16 368.98 139.96 351.57 134.63C342.84 131.96 334.52 127.57 327.87 121.24C324.53 118.06 321.48 114.37 319.41 110.22C317.05 105.47 316.1 100.13 316.35 94.85C317.45 71.38 339.65 55.1 361.36 51.83C364.23 51.4 367.13 51.2 370.03 51.19C370.83 51.16 370.83 49.91 370.03 49.92Z" fill="#000035"/>
<path d="M362.93 94.1899C361.88 97.0799 361.88 100.24 362.93 103.13C364.77 108.65 367.4 108.92 372.13 106.81C377.39 104.44 380.02 103.65 385.01 100.76C388.17 98.9199 399.47 93.6599 397.89 90.2399C388.7 88.9299 372.13 93.1399 362.93 94.1899Z" fill="#F93A3A"/>
<path d="M369.43 94.8099C368.66 98.0499 369.91 101.08 371.01 104.08C371.28 104.83 372.49 104.51 372.22 103.75C371.21 101 369.93 98.1299 370.64 95.1399C370.82 94.3599 369.61 94.0299 369.43 94.8099Z" fill="#000035"/>
<path d="M374.93 95.2399C374.94 96.9999 375.29 98.7099 376.07 100.29C376.22 100.59 376.65 100.68 376.93 100.51C377.24 100.33 377.3 99.9599 377.15 99.6499C376.47 98.2699 376.19 96.7599 376.18 95.2299C376.17 94.4399 374.92 94.4399 374.93 95.2399Z" fill="#000035"/>
<path d="M381.5 92.8701C381.52 94.9301 382.37 96.8501 383.16 98.7101C383.29 99.0201 383.75 99.0901 384.02 98.9301C384.34 98.7401 384.38 98.3901 384.24 98.0701C383.53 96.4201 382.76 94.6901 382.75 92.8601C382.74 92.0701 381.49 92.0701 381.5 92.8701Z" fill="#000035"/>
<path d="M386.76 92.87C386.76 93.89 387.07 94.9599 387.63 95.8199C387.81 96.0899 388.19 96.2299 388.49 96.0399C388.76 95.8599 388.91 95.4799 388.71 95.1799C388.58 94.9799 388.47 94.7799 388.37 94.5699C388.36 94.5499 388.32 94.46 388.36 94.55C388.4 94.63 388.36 94.5399 388.35 94.5299C388.33 94.4799 388.31 94.42 388.29 94.37C388.25 94.26 388.21 94.1399 388.18 94.0299C388.12 93.8199 388.07 93.5999 388.04 93.3899C388.04 93.3599 388.03 93.3399 388.03 93.3099C388.03 93.3399 388.05 93.4499 388.04 93.3599C388.03 93.2999 388.03 93.25 388.02 93.19C388.01 93.09 388.01 92.9899 388.01 92.8799C388.01 92.5499 387.72 92.24 387.39 92.26C387.05 92.26 386.76 92.52 386.76 92.87Z" fill="#000035"/>
<path d="M390.97 92.0899C390.97 93.0199 391.28 93.9599 391.94 94.6299C392.17 94.8599 392.6 94.8799 392.82 94.6299C393.05 94.3799 393.07 93.9899 392.82 93.7499C392.77 93.6999 392.72 93.6399 392.67 93.5799C392.63 93.5299 392.64 93.5499 392.71 93.6299C392.7 93.6099 392.68 93.5899 392.67 93.5799C392.65 93.5499 392.63 93.5199 392.61 93.4799C392.52 93.3399 392.45 93.1999 392.39 93.0499C392.41 93.0999 392.43 93.1499 392.45 93.1999C392.35 92.9499 392.28 92.6799 392.24 92.4099C392.25 92.4699 392.25 92.5199 392.26 92.5799C392.24 92.4199 392.23 92.2599 392.23 92.0999C392.23 91.7699 391.94 91.4599 391.61 91.4799C391.25 91.4799 390.96 91.7399 390.97 92.0899Z" fill="#000035"/>
<path d="M351.1 82.6201C345.84 81.5701 346.13 92.0501 349.26 94.4501C355.18 99.0101 357.41 83.9301 351.1 82.6201Z" fill="#000035"/>
<path d="M378.52 77.3601C373.26 76.3101 373.56 86.7901 376.68 89.1901C382.6 93.7501 384.83 78.6801 378.52 77.3601Z" fill="#000035"/>
<path d="M356.54 113.55C359.19 120.35 369.54 121.86 375.08 117.87C375.73 117.4 375.1 116.32 374.45 116.79C369.64 120.25 360.12 119.3 357.75 113.22C357.46 112.48 356.25 112.8 356.54 113.55Z" fill="#000035"/>
<path d="M340.32 106.38C340.4 106.38 340.47 106.38 340.55 106.38C340.56 106.38 340.57 106.38 340.58 106.38C340.67 106.38 340.75 106.37 340.82 106.33C340.9 106.3 340.96 106.26 341.02 106.2C341.08 106.14 341.12 106.08 341.15 106C341.19 105.93 341.21 105.85 341.2 105.76C341.19 105.7 341.19 105.65 341.18 105.59C341.15 105.48 341.1 105.39 341.02 105.31C340.98 105.28 340.94 105.24 340.89 105.21C340.79 105.15 340.69 105.13 340.57 105.12C340.49 105.12 340.42 105.12 340.34 105.12C340.33 105.12 340.32 105.12 340.31 105.12C340.22 105.12 340.14 105.13 340.07 105.17C339.99 105.2 339.93 105.24 339.87 105.3C339.81 105.36 339.77 105.42 339.74 105.5C339.7 105.57 339.68 105.65 339.69 105.74C339.7 105.8 339.7 105.85 339.71 105.91C339.74 106.02 339.79 106.11 339.87 106.19C339.91 106.22 339.95 106.26 340 106.29C340.1 106.35 340.2 106.38 340.32 106.38Z" fill="#000035"/>
<path d="M344.95 102.34C344.95 102.42 344.95 102.49 344.95 102.57C344.95 102.58 344.95 102.59 344.95 102.6C344.95 102.69 344.96 102.77 345 102.84C345.03 102.92 345.07 102.98 345.13 103.04C345.19 103.1 345.25 103.14 345.33 103.17C345.4 103.21 345.48 103.23 345.57 103.22C345.63 103.21 345.68 103.21 345.74 103.2C345.85 103.17 345.94 103.12 346.02 103.04C346.05 103 346.09 102.96 346.12 102.91C346.18 102.81 346.2 102.71 346.21 102.59C346.21 102.51 346.21 102.44 346.21 102.36C346.21 102.35 346.21 102.34 346.21 102.33C346.21 102.24 346.2 102.16 346.16 102.09C346.13 102.01 346.09 101.95 346.03 101.89C345.97 101.83 345.91 101.79 345.83 101.76C345.76 101.72 345.68 101.7 345.59 101.71C345.53 101.72 345.48 101.72 345.42 101.73C345.31 101.76 345.22 101.81 345.14 101.89C345.11 101.93 345.07 101.97 345.04 102.02C344.98 102.12 344.95 102.23 344.95 102.34Z" fill="#000035"/>
<path d="M345.84 109.01C346.64 109.01 346.65 107.76 345.84 107.76C345.03 107.76 345.03 109.01 345.84 109.01Z" fill="#000035"/>
<path d="M349.78 105.6C350.58 105.6 350.59 104.35 349.78 104.35C348.98 104.35 348.98 105.6 349.78 105.6Z" fill="#000035"/>
<path d="M350.92 110.93C351 111.01 351.07 111.08 351.15 111.16C351.16 111.17 351.17 111.18 351.18 111.19C351.24 111.25 351.3 111.29 351.38 111.32C351.45 111.36 351.53 111.38 351.62 111.37C351.71 111.37 351.79 111.36 351.86 111.32C351.94 111.29 352 111.25 352.06 111.19C352.09 111.15 352.13 111.11 352.16 111.06C352.22 110.96 352.24 110.86 352.25 110.74C352.24 110.68 352.24 110.63 352.23 110.57C352.2 110.46 352.15 110.37 352.07 110.29C351.99 110.21 351.92 110.14 351.84 110.06C351.83 110.05 351.82 110.04 351.81 110.03C351.75 109.97 351.69 109.93 351.61 109.9C351.54 109.86 351.46 109.84 351.37 109.85C351.28 109.85 351.2 109.86 351.13 109.9C351.05 109.93 350.99 109.97 350.93 110.03C350.9 110.07 350.86 110.11 350.83 110.16C350.77 110.26 350.75 110.36 350.74 110.48C350.75 110.54 350.75 110.59 350.76 110.65C350.79 110.76 350.84 110.86 350.92 110.93Z" fill="#000035"/>
<path d="M391.95 105.23C391.95 105.15 391.95 105.08 391.95 105C391.95 104.99 391.95 104.98 391.95 104.97C391.95 104.88 391.94 104.8 391.9 104.73C391.87 104.65 391.83 104.59 391.77 104.53C391.71 104.47 391.65 104.43 391.57 104.4C391.5 104.36 391.42 104.34 391.33 104.35C391.27 104.36 391.22 104.36 391.16 104.37C391.05 104.4 390.96 104.45 390.88 104.53C390.85 104.57 390.81 104.61 390.78 104.66C390.72 104.76 390.7 104.86 390.69 104.98C390.69 105.06 390.69 105.13 390.69 105.21C390.69 105.22 390.69 105.23 390.69 105.24C390.69 105.33 390.7 105.41 390.74 105.48C390.77 105.56 390.81 105.62 390.87 105.68C390.93 105.74 390.99 105.78 391.07 105.81C391.14 105.85 391.22 105.87 391.31 105.86C391.37 105.85 391.42 105.85 391.48 105.84C391.59 105.81 391.68 105.76 391.76 105.68C391.79 105.64 391.83 105.6 391.86 105.55C391.92 105.45 391.95 105.35 391.95 105.23Z" fill="#000035"/>
<path d="M396.32 101.12C397.12 101.12 397.13 99.8699 396.32 99.8699C395.52 99.8799 395.52 101.12 396.32 101.12Z" fill="#000035"/>
<path d="M396.85 106.91C397.65 106.91 397.66 105.66 396.85 105.66C396.04 105.66 396.04 106.91 396.85 106.91Z" fill="#000035"/>
<path d="M401.06 102.44C401.86 102.44 401.87 101.19 401.06 101.19C400.25 101.19 400.25 102.44 401.06 102.44Z" fill="#000035"/>
<path d="M399.83 107.68C399.75 107.76 399.68 107.83 399.6 107.91C399.59 107.92 399.58 107.93 399.57 107.94C399.51 108 399.47 108.06 399.44 108.14C399.4 108.21 399.38 108.29 399.39 108.38C399.39 108.47 399.4 108.55 399.44 108.62C399.47 108.7 399.51 108.76 399.57 108.82C399.61 108.85 399.65 108.89 399.7 108.92C399.8 108.98 399.9 109 400.02 109.01C400.08 109 400.13 109 400.19 108.99C400.3 108.96 400.39 108.91 400.47 108.83C400.55 108.75 400.62 108.68 400.7 108.6C400.71 108.59 400.72 108.58 400.73 108.57C400.79 108.51 400.83 108.45 400.86 108.37C400.9 108.3 400.92 108.22 400.91 108.13C400.91 108.04 400.9 107.96 400.86 107.89C400.83 107.81 400.79 107.75 400.73 107.69C400.69 107.66 400.65 107.62 400.6 107.59C400.5 107.53 400.4 107.51 400.28 107.5C400.22 107.51 400.17 107.51 400.11 107.52C400 107.55 399.9 107.61 399.83 107.68Z" fill="#000035"/>
<path d="M393.17 109.28C393.97 109.28 393.98 108.03 393.17 108.03C392.36 108.03 392.36 109.28 393.17 109.28Z" fill="#000035"/>
<path d="M321.65 82.0899C321.91 79.1999 318.37 75.0299 315.69 74.9899C306.66 74.8499 307.98 81.8299 309.29 86.5599C300.09 85.5099 296.67 97.5999 307.19 98.3899C296.94 101.02 304.3 117.85 314.82 106.8C315.87 112.85 322.97 114.16 326.13 108.9C328.76 104.69 326.66 99.9599 322.97 97.0699C329.01 99.9699 335.06 81.8299 321.65 82.0899Z" fill="#F93A3A"/>
<path d="M431.83 82.0899C432.09 79.1999 428.55 75.0299 425.87 74.9899C416.84 74.8499 418.16 81.8299 419.47 86.5599C410.27 85.5099 406.85 97.5999 417.37 98.3899C407.12 101.02 414.48 117.85 424.99 106.8C426.04 112.85 433.14 114.16 436.3 108.9C438.93 104.69 436.83 99.9599 433.14 97.0699C439.19 99.9699 445.24 81.8299 431.83 82.0899Z" fill="#F93A3A"/>
<path d="M321.2 115.83C317.83 119.94 313.52 124.78 313.64 130.45C313.75 136.1 318.26 140.68 322.81 143.43C325.22 144.89 327.82 146.01 330.43 147.06C333.26 148.2 336.1 149.36 338.98 150.39C345.4 152.69 352.11 154 358.85 154.91C372.43 156.73 386.23 156.41 399.55 152.97C409.44 150.41 419.94 146.56 427.02 138.85C430.54 135.01 432.9 130.2 432.99 124.92C433.09 118.98 430.29 112.96 425.04 109.95C424.34 109.55 423.71 110.63 424.41 111.03C429.13 113.74 431.68 119.07 431.74 124.41C431.79 129.01 429.99 133.34 427.09 136.87C421.02 144.24 411.73 148.07 402.83 150.75C390.56 154.44 377.69 155.47 364.96 154.34C358.56 153.77 352.14 152.81 345.92 151.2C340.3 149.75 334.87 147.57 329.52 145.34C323.85 142.97 317.46 139.52 315.4 133.27C313.33 126.96 318.4 121.22 322.1 116.71C322.59 116.1 321.72 115.21 321.2 115.83Z" fill="#000035"/>
<path d="M329.26 124.64C326.1 130.09 322.42 135.84 322.08 142.31C322.04 143.11 323.29 143.11 323.33 142.31C323.66 136.09 327.31 130.51 330.34 125.27C330.74 124.57 329.66 123.94 329.26 124.64Z" fill="#000035"/>
<path d="M340.74 131.53C340.4 134.29 339.01 136.89 337.8 139.35C336.55 141.88 335.2 144.41 334.45 147.14C334.24 147.92 335.44 148.25 335.66 147.47C337.16 141.95 341.29 137.28 341.99 131.53C342.09 130.73 340.84 130.74 340.74 131.53Z" fill="#000035"/>
<path d="M354.96 136.62C353.58 141.92 352.6 147.35 352.31 152.83C352.27 153.63 353.52 153.63 353.56 152.83C353.84 147.47 354.81 142.15 356.17 136.96C356.37 136.17 355.17 135.84 354.96 136.62Z" fill="#000035"/>
<path d="M368.35 138.89C368.35 144.13 368.36 149.38 369.16 154.57C369.28 155.36 370.49 155.03 370.37 154.24C369.58 149.17 369.6 144.01 369.6 138.89C369.6 138.09 368.35 138.08 368.35 138.89Z" fill="#000035"/>
<path d="M386.23 137.84C386.52 143.13 387.47 148.41 388.88 153.52C389.09 154.29 390.3 153.97 390.09 153.19C388.71 148.19 387.77 143.03 387.48 137.84C387.44 137.04 386.19 137.03 386.23 137.84Z" fill="#000035"/>
<path d="M402.03 132.75C403.37 138.51 406.64 143.52 408.6 149.05C408.87 149.8 410.08 149.48 409.81 148.72C407.85 143.19 404.58 138.18 403.24 132.42C403.05 131.63 401.85 131.96 402.03 132.75Z" fill="#000035"/>
<path d="M413.66 125.8C416.15 131.23 420.35 136.59 420.15 142.84C420.12 143.64 421.37 143.64 421.4 142.84C421.61 136.34 417.33 130.82 414.74 125.17C414.41 124.43 413.33 125.07 413.66 125.8Z" fill="#000035"/>
<path d="M419.81 118.03C424.12 122.58 428.51 127.52 428.57 134.15C428.58 134.95 429.83 134.96 429.82 134.15C429.76 127.16 425.25 121.95 420.7 117.14C420.14 116.56 419.26 117.45 419.81 118.03Z" fill="#000035"/>
<path d="M358.98 154.67C359.77 179.91 348.46 205.16 332.69 224.88C330.59 227.25 322.96 236.98 327.17 239.87C330.59 242.24 338.74 234.09 341.9 232.77C341.37 235.66 337.17 243.29 339.27 246.18C342.16 250.12 349 240.39 351.89 239.08C352.15 243.81 352.42 254.59 360.3 251.44C365.56 249.07 368.98 237.77 370.29 232.51C373.71 218.84 376.07 204.11 376.34 190.18C376.6 178.87 378.71 166.51 376.6 155.73" fill="#000035"/>
<path d="M370.22 231.09C370.85 233.95 372.21 239.35 376.35 237.96C377.95 237.42 378.97 235.72 379.74 234.32C380.64 232.68 381.27 230.64 382.58 229.26C382.29 229.26 381.99 229.26 381.7 229.26C384.74 231.71 385.26 236.33 388.64 238.52C390.3 239.59 392.36 239.41 394.02 238.42C396 237.24 396.9 235.04 397.22 232.85C397.6 230.19 397.25 227.54 397.23 224.88C396.92 225.06 396.6 225.24 396.29 225.42C398.14 226.84 399.84 228.44 401.75 229.79C403.38 230.95 405.37 232.17 407.45 232.12C409.65 232.07 411.14 230.43 412.01 228.55C413.3 225.75 413.35 222.8 412.66 219.83C411.92 216.64 410.53 213.62 409.12 210.68C407.55 207.4 406.08 204.1 404.68 200.75C401.53 193.2 398.65 185.51 396.68 177.56C395.67 173.51 395 169.42 394.39 165.29C393.87 161.79 393.36 158.04 391.63 154.89C391.24 154.19 390.16 154.82 390.55 155.52C392.01 158.18 392.51 161.33 392.98 164.29C393.5 167.54 393.92 170.8 394.59 174.03C396.13 181.45 398.54 188.66 401.3 195.71C402.67 199.2 404.12 202.66 405.61 206.11C406.79 208.85 408.19 211.49 409.38 214.23C410.61 217.04 411.76 220.06 411.87 223.16C411.96 225.59 411.2 229.27 408.82 230.53C406.75 231.62 404.27 230.04 402.6 228.88C400.61 227.5 398.84 225.83 396.92 224.35C396.53 224.05 395.98 224.46 395.98 224.89C396 227.53 396.39 230.19 395.97 232.82C395.56 235.39 393.83 238.33 390.8 238.02C388.55 237.79 387.2 235.32 386.19 233.58C385.15 231.8 384.22 229.71 382.58 228.39C382.32 228.18 381.95 228.12 381.7 228.39C379.59 230.63 379.21 234.13 376.88 236.21C373.52 239.21 371.92 232.95 371.44 230.77C371.25 229.97 370.04 230.3 370.22 231.09Z" fill="#000035"/>
<path d="M313.48 131.21C302.28 150.75 320.24 171.31 337.28 179.58C339.65 180.73 342.11 181.72 344.63 182.46C347.69 183.36 351.06 184.14 354.25 184.21C355.05 184.23 355.05 182.98 354.25 182.96C351.42 182.9 348.41 182.21 345.67 181.46C343.46 180.85 341.3 180.05 339.21 179.11C334.7 177.07 330.46 174.41 326.64 171.27C319.38 165.29 312.92 157.11 311.47 147.57C310.64 142.09 311.81 136.63 314.55 131.84C314.96 131.14 313.88 130.51 313.48 131.21Z" fill="#000035"/>
<path d="M396.59 180.01C407.61 180.42 416.83 173.43 424.67 166.49C432.31 159.73 437.76 150.5 437.97 140.07C438.03 137.22 437.62 134.43 436.84 131.69C436.04 128.86 435.01 126.02 432.79 123.99C432.2 123.45 431.31 124.33 431.91 124.87C433.92 126.71 434.85 129.27 435.58 131.83C436.26 134.22 436.69 136.64 436.72 139.13C436.78 143.96 435.58 148.78 433.51 153.14C431.4 157.57 428.42 161.46 424.78 164.72C421.05 168.06 417.22 171.32 412.94 173.93C407.98 176.96 402.47 178.97 396.6 178.76C395.78 178.73 395.78 179.98 396.59 180.01Z" fill="#000035"/>
<path d="M312.43 156.45C308.85 161.6 303.74 165.49 300.66 171.02C297.38 176.9 294.37 183.09 292.63 189.62C291.04 195.59 290.83 201.99 291.06 208.14C291.29 214.2 292.15 220.27 293.8 226.11C300.01 248.16 318.06 264.27 339.29 271.61C349.49 275.14 360.29 276.82 371.06 277.11C383.18 277.44 395.33 276.19 406.84 272.24C413.2 270.05 419.34 267.22 425.19 263.9C430.39 260.96 435.37 257.72 439.6 253.47C447.55 245.48 452.2 235.18 456.17 224.8C460.99 212.2 463.08 198.65 460.32 185.32C457.91 173.66 451.73 162.91 442.61 155.25C440.57 153.53 438.76 151.34 436.19 150.39C435.43 150.11 435.11 151.32 435.86 151.6C438.5 152.58 440.61 155.17 442.72 156.95C444.93 158.82 446.92 160.95 448.72 163.21C452.44 167.89 455.31 173.28 457.26 178.92C461.48 191.12 461.1 204.42 457.57 216.73C455.85 222.73 453.53 228.64 450.91 234.3C448.67 239.14 446.03 243.85 442.73 248.05C435.33 257.47 424.54 263.55 413.7 268.25C407.65 270.87 401.34 272.93 394.86 274.19C389.27 275.28 383.53 275.72 377.83 275.87C367.32 276.15 356.74 275.16 346.55 272.51C325.78 267.11 306.57 253.88 297.81 233.74C292.97 222.6 291.57 210.1 292.51 198.06C293.03 191.45 295.02 185.31 297.8 179.32C299.15 176.41 300.59 173.49 302.25 170.75C303.83 168.15 305.87 165.9 307.93 163.68C309.89 161.57 311.85 159.47 313.5 157.1C313.97 156.42 312.89 155.8 312.43 156.45Z" fill="#000035"/>
<path d="M311.12 90.46C310.4 91.93 309.99 93.65 310.71 95.2C311.42 96.72 313.07 97.45 314.65 97.69C314.98 97.74 315.32 97.61 315.42 97.25C315.5 96.96 315.32 96.53 314.98 96.48C314.26 96.37 313.55 96.19 312.92 95.82C312.42 95.52 312.08 95.16 311.81 94.63C311.74 94.48 311.64 94.15 311.59 93.89C311.57 93.76 311.59 93.92 311.58 93.79C311.57 93.7 311.57 93.61 311.57 93.52C311.57 93.37 311.57 93.21 311.59 93.06C311.64 92.44 311.9 91.71 312.2 91.1C312.55 90.37 311.47 89.73 311.12 90.46Z" fill="#000035"/>
<path d="M316.39 88.24C316.66 88.24 316.93 88.25 317.2 88.28C317.24 88.28 317.28 88.29 317.32 88.29C317.31 88.29 317.22 88.28 317.3 88.29C317.36 88.3 317.41 88.31 317.47 88.32C317.59 88.34 317.72 88.37 317.84 88.4C317.95 88.43 318.05 88.46 318.16 88.49C318.21 88.51 318.25 88.52 318.3 88.54C318.4 88.58 318.22 88.5 318.35 88.56C318.54 88.65 318.71 88.75 318.88 88.87C318.98 88.93 318.81 88.8 318.89 88.88C318.93 88.91 318.97 88.95 319 88.98C319.07 89.04 319.13 89.11 319.2 89.18C319.22 89.2 319.32 89.32 319.26 89.25C319.2 89.18 319.29 89.29 319.3 89.31C319.36 89.39 319.41 89.48 319.47 89.57C319.52 89.66 319.56 89.75 319.6 89.83C319.65 89.94 319.57 89.74 319.61 89.85C319.63 89.9 319.65 89.95 319.67 90.01C319.75 90.23 319.8 90.45 319.85 90.67C319.88 90.8 319.9 90.94 319.92 91.07C319.93 91.14 319.92 91.05 319.92 91.04C319.92 91.08 319.93 91.12 319.93 91.15C319.94 91.22 319.94 91.29 319.95 91.36C319.98 91.68 319.99 92.01 319.99 92.34C319.99 93.14 321.24 93.15 321.24 92.34C321.24 91.22 321.13 90.06 320.61 89.05C320.15 88.16 319.35 87.54 318.4 87.25C317.76 87.05 317.08 86.99 316.41 86.99C315.58 86.99 315.58 88.24 316.39 88.24Z" fill="#000035"/>
<path d="M314.37 103.31C315.4 104.32 316.76 104.97 318.23 104.81C319.73 104.65 321.03 103.83 322.09 102.79C322.66 102.22 321.78 101.34 321.21 101.91C320.4 102.71 319.39 103.42 318.23 103.57C317.09 103.72 316.06 103.23 315.25 102.44C314.68 101.86 313.79 102.74 314.37 103.31Z" fill="#000035"/>
<path d="M426.13 87.54C424.73 87.78 423.3 88.43 422.6 89.73C421.88 91.08 422.08 92.69 422.54 94.09C422.79 94.85 424 94.53 423.75 93.76C423.53 93.08 423.38 92.45 423.38 91.77C423.38 91.63 423.39 91.49 423.4 91.34C423.4 91.31 423.41 91.28 423.41 91.25C423.4 91.31 423.4 91.31 423.41 91.23C423.42 91.17 423.43 91.11 423.45 91.05C423.48 90.91 423.52 90.78 423.56 90.65C423.57 90.61 423.59 90.58 423.6 90.54C423.58 90.59 423.58 90.6 423.59 90.55C423.62 90.49 423.65 90.43 423.68 90.37C423.92 89.92 424.22 89.63 424.64 89.37C424.92 89.2 425.13 89.1 425.41 89.01C425.75 88.89 426.1 88.81 426.46 88.75C426.79 88.69 426.98 88.28 426.9 87.98C426.8 87.62 426.47 87.48 426.13 87.54Z" fill="#000035"/>
<path d="M420.6 100.15C421.63 101.16 422.98 101.93 424.46 101.85C426.03 101.76 427.35 100.82 428.32 99.6299C428.53 99.3699 428.58 98.9999 428.32 98.7499C428.1 98.5299 427.65 98.4899 427.44 98.7499C426.7 99.6599 425.7 100.54 424.46 100.6C423.3 100.66 422.29 100.06 421.48 99.2699C420.91 98.6999 420.02 99.5899 420.6 100.15Z" fill="#000035"/>
<path d="M430.34 88.7401C430.76 88.8001 431.17 88.8801 431.58 89.0001C431.74 89.0501 431.89 89.1001 432.04 89.1601C432.12 89.1901 432.08 89.1701 432.19 89.2201C432.27 89.2501 432.34 89.2901 432.41 89.3301C432.53 89.3901 432.65 89.4601 432.76 89.5401C432.79 89.5601 432.82 89.5801 432.85 89.6001C432.8 89.5601 432.8 89.5601 432.85 89.6001C432.9 89.6401 432.96 89.6901 433.01 89.7401C433.06 89.7901 433.1 89.8401 433.15 89.8901C433.17 89.9101 433.26 90.0401 433.17 89.9201C433.24 90.0301 433.3 90.1301 433.36 90.2401C433.28 90.0901 433.37 90.2701 433.38 90.3101C433.4 90.3701 433.41 90.4301 433.43 90.4901C433.44 90.5301 433.44 90.6701 433.44 90.5101C433.44 90.5701 433.45 90.6401 433.45 90.7001C433.45 90.7701 433.44 90.8301 433.44 90.8901C433.43 90.9601 433.43 90.9601 433.44 90.8701C433.43 90.9001 433.43 90.9401 433.42 90.9701C433.39 91.0901 433.36 91.2101 433.32 91.3301C433.31 91.3701 433.29 91.4001 433.28 91.4401C433.31 91.3801 433.3 91.3801 433.27 91.4501C433.24 91.5201 433.2 91.6001 433.16 91.6701C433.09 91.8101 433.01 91.9401 432.92 92.0601C432.71 92.3701 432.45 92.6501 432.17 92.9401C431.6 93.5101 432.49 94.4001 433.05 93.8201C433.88 92.9801 434.75 91.8401 434.69 90.5901C434.64 89.4801 433.87 88.6401 432.91 88.1701C432.21 87.8301 431.45 87.6301 430.67 87.5201C430.34 87.4701 430 87.6001 429.9 87.9601C429.82 88.2701 430 88.6901 430.34 88.7401Z" fill="#000035"/>
<path d="M340.89 130.83C338.52 129.42 335.93 128.32 333.68 126.73C333.03 126.13 332.35 125.59 331.6 125.05C330.85 124.51 330.04 125.01 329.75 125.72C329.58 125.89 329.47 126.1 329.43 126.34C328.86 126.45 328.37 126.89 328.39 127.59C328.4 127.84 328.37 128.08 328.36 128.32C325.78 131.57 320.94 138.93 323.08 141.22C323.09 141.26 323.09 141.29 323.09 141.33C323.92 145.2 330.25 146.47 333.39 147.62C334.28 147.95 335.37 146.91 335.01 146C334.59 144.93 336.94 142.14 337.46 141.1C338.85 138.32 339.97 135.41 341.37 132.64C341.69 131.99 341.54 131.21 340.89 130.83Z" fill="#000035"/>
<path d="M369.06 140.03C369.07 138.84 367.95 138.54 367.17 138.96C363.79 138.31 360.41 137.62 357.06 136.83C355.93 136.57 355.06 137.69 355.56 138.71C355.42 138.86 355.32 139.06 355.27 139.32C354.56 143.38 353.82 147.42 352.82 151.42C352.64 152.12 353.04 152.83 353.74 153.04C358.32 154.39 363.21 155.02 367.94 155.54C368.59 155.61 369.34 154.88 369.26 154.23C368.62 149.51 369.02 144.77 369.06 140.03Z" fill="#000035"/>
<path d="M408.68 148.48C406.48 143.73 404.25 139 403.03 133.89C402.83 133.05 401.82 132.7 401.1 133.1C397.02 135.4 392.59 136.99 387.92 137.48C386.77 137.6 386.19 138.81 386.99 139.72C387.04 139.78 387.08 139.84 387.13 139.9C387.13 139.94 387.13 139.98 387.13 140.02C387.6 144.33 388.91 148.49 389.23 152.82C389.28 153.47 389.8 154.22 390.54 154.13C396.53 153.47 402.63 152.66 408.21 150.27C408.91 149.98 408.95 149.07 408.68 148.48Z" fill="#000035"/>
<path d="M427.74 127.93C427.64 127.63 427.42 127.43 427.19 127.28C426.94 126.6 426.6 125.94 426.21 125.33C425.98 124.98 425.68 124.8 425.35 124.74C425.25 124.59 425.16 124.43 425.03 124.28C425 124.21 424.97 124.15 424.94 124.08C424.21 122.07 423.17 120.31 421.92 119.21C421.83 119.09 421.75 118.96 421.65 118.83C421.05 118.04 419.96 117.94 419.38 118.83C418.05 120.86 416.48 122.57 414.85 124.35C414.27 124.99 414.39 125.9 415.08 126.39C415.1 126.48 415.13 126.56 415.17 126.65C416.85 130.36 418.99 133.82 419.6 137.91C419.66 138.29 419.87 138.55 420.15 138.7C420.21 139.47 420.24 140.26 420.25 141.07C420.27 142.37 422.04 142.88 422.7 141.73C423.99 139.49 426.87 138.86 428.31 136.65C428.82 135.86 428.93 134.87 428.85 133.82C429.07 131.88 428.39 129.78 427.74 127.93Z" fill="#000035"/>
<path d="M364.59 160.71C361.2 160.71 361.2 165.97 364.59 165.97C367.99 165.97 367.99 160.71 364.59 160.71Z" fill="#F93A3A"/>
<path d="M372.48 168.95C369.09 168.95 369.09 174.21 372.48 174.21C375.87 174.21 375.87 168.95 372.48 168.95Z" fill="#F93A3A"/>
<path d="M361.26 178.95C357.87 178.95 357.87 184.21 361.26 184.21C364.65 184.21 364.65 178.95 361.26 178.95Z" fill="#F93A3A"/>
<path d="M369.5 187.36C366.11 187.36 366.11 192.62 369.5 192.62C372.89 192.62 372.89 187.36 369.5 187.36Z" fill="#F93A3A"/>
<path d="M358.98 194.02C355.59 194.02 355.59 199.28 358.98 199.28C362.38 199.28 362.38 194.02 358.98 194.02Z" fill="#F93A3A"/>
<path d="M367.05 203.31C363.66 203.31 363.66 208.57 367.05 208.57C370.44 208.57 370.44 203.31 367.05 203.31Z" fill="#F93A3A"/>
<path d="M352.67 206.12C351.24 206.12 350.04 207.32 350.04 208.75V208.93C350.04 210.36 351.24 211.56 352.67 211.56C354.1 211.56 355.3 210.36 355.3 208.93V208.75C355.3 207.31 354.11 206.12 352.67 206.12Z" fill="#F93A3A"/>
<path d="M363.54 215.58C360.15 215.58 360.15 220.84 363.54 220.84C366.93 220.84 366.93 215.58 363.54 215.58Z" fill="#F93A3A"/>
<path d="M351.97 223.29C348.58 223.29 348.58 228.55 351.97 228.55C355.36 228.55 355.36 223.29 351.97 223.29Z" fill="#F93A3A"/>
<path d="M361.09 235.74C357.7 235.74 357.7 241 361.09 241C364.48 241 364.48 235.74 361.09 235.74Z" fill="#F93A3A"/>
<path d="M340.75 223.47C337.36 223.47 337.36 228.73 340.75 228.73C344.15 228.73 344.15 223.47 340.75 223.47Z" fill="#F93A3A"/>
<path d="M381.6 219.61C380.17 219.61 378.97 220.81 378.97 222.24V222.41C378.97 223.84 380.17 225.04 381.6 225.04C383.03 225.04 384.23 223.84 384.23 222.41V222.24C384.23 220.81 383.03 219.61 381.6 219.61Z" fill="#F93A3A"/>
<path d="M391.59 223.65C388.2 223.65 388.2 228.91 391.59 228.91C394.98 228.91 394.98 223.65 391.59 223.65Z" fill="#F93A3A"/>
<path d="M393.87 206.99C390.48 206.99 390.48 212.25 393.87 212.25C397.26 212.25 397.26 206.99 393.87 206.99Z" fill="#F93A3A"/>
<path d="M404.39 215.41C401 215.41 401 220.67 404.39 220.67C407.78 220.67 407.78 215.41 404.39 215.41Z" fill="#F93A3A"/>
<path d="M383.18 196.65C379.79 196.65 379.79 201.91 383.18 201.91C386.57 201.91 386.57 196.65 383.18 196.65Z" fill="#F93A3A"/>
<path d="M392.99 189.64C389.6 189.64 389.6 194.9 392.99 194.9C396.39 194.9 396.39 189.64 392.99 189.64Z" fill="#F93A3A"/>
<path d="M384.93 177.02C381.54 177.02 381.54 182.28 384.93 182.28C388.32 182.28 388.32 177.02 384.93 177.02Z" fill="#F93A3A"/>
<path d="M387.03 159.49C383.64 159.49 383.64 164.75 387.03 164.75C390.42 164.75 390.42 159.49 387.03 159.49Z" fill="#F93A3A"/>
<path d="M342.51 169.09C332.06 165.57 324.78 157.26 319.98 147.61C319.23 146.09 316.96 147.42 317.71 148.94C322.83 159.23 330.72 167.89 341.81 171.63C343.42 172.17 344.1 169.63 342.51 169.09Z" fill="#F93A3A"/>
<path d="M423.06 149.18C418.09 156.47 411.76 164.84 402.46 166.28C400.79 166.54 401.5 169.07 403.16 168.82C413.15 167.27 419.99 158.34 425.33 150.51C426.29 149.1 424.01 147.79 423.06 149.18Z" fill="#F93A3A"/>
<path d="M439.54 165.36C451.13 152.36 457.94 136.24 464.53 120.33C466.47 115.65 468.42 110.96 470.49 106.33C470.82 105.6 469.74 104.97 469.41 105.7C462.39 121.39 456.85 137.88 447.63 152.49C444.96 156.72 441.98 160.74 438.66 164.48C438.12 165.08 439 165.97 439.54 165.36Z" fill="#000035"/>
<path d="M461.71 101.6C460.54 102.64 457.92 103.7 456.5 105.17C450.84 112.49 458.72 110.75 462.92 107.45C457.6 114.68 463.09 117.57 467.64 110.18C466.9 116.91 468.35 122.33 473.06 114.17C474.65 128.26 483.79 114.93 479.11 109.65C476.08 106.47 466.07 102.98 462.3 101.08" fill="#F93A3A"/>
<path d="M292.52 110.96C292.27 108.8 292.07 106.63 291.84 104.46C291.61 102.37 291.2 100.31 290.92 98.22C290.69 96.45 290.75 94.66 290.51 92.89C290.33 91.53 290.03 89.35 288.5 88.82C286.77 88.22 284.97 90.28 284.32 91.64C283 94.41 282.83 97.56 281.67 100.38C282.05 100.33 282.43 100.28 282.81 100.23C280.78 96.85 279.27 93.17 276.77 90.08C274.8 87.65 271.29 85.17 268.01 86.5C265.11 87.67 264.51 91.41 264.53 94.16C264.56 98.26 266.02 102.28 267.74 105.95C269.86 110.45 272.67 115 276.43 118.33C277.03 118.86 277.92 117.98 277.31 117.45C274.38 114.86 272.12 111.52 270.24 108.11C268.27 104.54 266.58 100.64 265.96 96.58C265.57 94.03 265.46 90.2 267.52 88.28C270.08 85.89 273.96 88.67 275.68 90.73C278.22 93.77 279.69 97.5 281.72 100.87C282.02 101.37 282.67 101.2 282.86 100.72C283.99 97.96 284.11 94.84 285.44 92.16C285.81 91.4 286.88 89.9 287.88 89.98C288.65 90.04 288.89 91.2 289.03 91.8C289.52 93.81 289.42 95.9 289.62 97.95C289.81 99.9 290.26 101.83 290.49 103.78C290.77 106.17 290.97 108.57 291.25 110.97C291.36 111.75 292.61 111.76 292.52 110.96Z" fill="#000035"/>
<path d="M308.37 174.17C298.48 159.75 293.82 142.8 289.28 126.13C287.99 121.41 286.69 116.68 285.27 111.99C285.04 111.22 283.83 111.55 284.06 112.32C289.08 128.91 292.52 146.1 299.92 161.86C302.03 166.36 304.47 170.69 307.28 174.79C307.74 175.46 308.83 174.84 308.37 174.17Z" fill="#000035"/>
<path d="M293.4 108.81C294.43 109.99 296.9 111.38 298.12 113.01C302.81 120.99 295.22 118.26 291.47 114.46C295.84 122.31 290.03 124.47 286.44 116.57C286.32 123.34 284.2 128.53 280.55 119.84C277.19 133.62 269.81 119.24 275.12 114.59C278.53 111.82 288.9 109.62 292.88 108.22" fill="#F93A3A"/>
<path d="M361.6 264.75C361.6 285.15 361.18 305.54 360.66 325.93C360.51 331.72 360.36 337.5 360.2 343.29C360.18 344.09 361.43 344.09 361.45 343.29C362 322.9 362.54 302.51 362.76 282.11C362.82 276.32 362.85 270.54 362.86 264.75C362.85 263.95 361.6 263.95 361.6 264.75Z" fill="#000035"/>
<path d="M395.69 264.44C396.38 276.8 401.12 288.94 407.13 299.64C413.5 310.98 422.01 321.76 432.94 329C438.37 332.6 444.49 335.2 451.01 335.88C451.81 335.96 451.8 334.71 451.01 334.63C439.1 333.38 428.87 325.56 421.05 316.97C412.24 307.3 405.39 295.59 401.03 283.27C398.88 277.21 397.3 270.87 396.94 264.43C396.9 263.64 395.65 263.63 395.69 264.44Z" fill="#000035"/>
<path d="M422.54 346.15C429.61 345.4 439.85 346.3 446.94 345.99C458.01 345.52 460.21 344.98 456.15 333.17C452.6 322.67 443.99 318.6 433.48 321.72C423.85 324.79 420.7 334.24 422 343.95C422.04 344.84 422.52 345.7 422.54 346.15Z" fill="#000035"/>
<path d="M338.67 352.07C345.74 351.32 355.98 352.22 363.07 351.92C374.14 351.45 376.34 350.91 372.28 339.1C368.73 328.6 360.12 324.53 349.6 327.65C339.97 330.72 336.82 340.17 338.12 349.88C338.17 350.76 338.65 351.62 338.67 352.07Z" fill="#000035"/>
<path d="M430.68 329.22C435.12 329.22 439.56 329.22 444 329.22C444.8 329.22 444.81 327.97 444 327.97C439.56 327.97 435.12 327.97 430.68 327.97C429.87 327.97 429.87 329.22 430.68 329.22Z" fill="#F93A3A"/>
<path d="M430.68 335.53C436.52 335.53 442.37 335.53 448.21 335.53C449.01 335.53 449.02 334.28 448.21 334.28C442.37 334.28 436.52 334.28 430.68 334.28C429.87 334.28 429.87 335.53 430.68 335.53Z" fill="#F93A3A"/>
<path d="M434.88 341.14C437.68 341.14 440.49 341.14 443.29 341.14C444.09 341.14 444.1 339.89 443.29 339.89C440.49 339.89 437.68 339.89 434.88 339.89C434.08 339.89 434.08 341.14 434.88 341.14Z" fill="#F93A3A"/>
<path d="M348.64 334.83C353.31 334.83 357.99 334.83 362.66 334.83C363.46 334.83 363.47 333.58 362.66 333.58C357.99 333.58 353.31 333.58 348.64 333.58C347.83 333.58 347.83 334.83 348.64 334.83Z" fill="#F93A3A"/>
<path d="M343.73 341.84C349.32 341.84 354.92 341.84 360.51 341.84C361.31 341.84 361.32 340.59 360.51 340.59C360.29 340.59 360.07 340.59 359.85 340.59C359.05 340.59 359.04 341.84 359.85 341.84C361.72 341.84 363.59 341.84 365.46 341.84C366.26 341.84 366.27 340.59 365.46 340.59C363.59 340.59 361.72 340.59 359.85 340.59C359.05 340.59 359.04 341.84 359.85 341.84C360.07 341.84 360.29 341.84 360.51 341.84C361.31 341.84 361.32 340.59 360.51 340.59C354.92 340.59 349.32 340.59 343.73 340.59C342.92 340.59 342.92 341.84 343.73 341.84Z" fill="#F93A3A"/>
<path d="M350.74 346.05C354.71 346.05 358.69 346.05 362.66 346.05C363.46 346.05 363.47 344.8 362.66 344.8C358.69 344.8 354.71 344.8 350.74 344.8C349.93 344.8 349.93 346.05 350.74 346.05Z" fill="#F93A3A"/>
<path d="M315.85 176.98V185.16C315.85 185.98 317.13 185.98 317.13 185.16V176.98C317.13 176.15 315.85 176.15 315.85 176.98Z" fill="#000035"/>
<path d="M304.1 191.8V197.42C304.1 198.24 305.38 198.24 305.38 197.42V191.8C305.38 190.97 304.1 190.97 304.1 191.8Z" fill="#000035"/>
<path d="M317.39 197.42V202.02C317.39 202.84 318.67 202.84 318.67 202.02V197.42C318.67 196.59 317.39 196.59 317.39 197.42Z" fill="#000035"/>
<path d="M329.65 185.15V191.28C329.65 192.1 330.93 192.1 330.93 191.28V185.15C330.93 184.33 329.65 184.33 329.65 185.15Z" fill="#000035"/>
<path d="M333.74 201V206.62C333.74 207.44 335.02 207.44 335.02 206.62V201C335.02 200.17 333.74 200.17 333.74 201Z" fill="#000035"/>
<path d="M342.43 188.73V194.35C342.43 195.17 343.71 195.17 343.71 194.35V188.73C343.7 187.91 342.43 187.91 342.43 188.73Z" fill="#000035"/>
<path d="M407.32 185.66V190.26C407.32 191.08 408.6 191.08 408.6 190.26V185.66C408.6 184.84 407.32 184.84 407.32 185.66Z" fill="#000035"/>
<path d="M417.03 194.35V199.97C417.03 200.79 418.31 200.79 418.31 199.97V194.35C418.31 193.53 417.03 193.53 417.03 194.35Z" fill="#000035"/>
<path d="M423.67 177.49V185.16C423.67 185.98 424.95 185.98 424.95 185.16V177.49C424.95 176.67 423.67 176.67 423.67 177.49Z" fill="#000035"/>
<path d="M436.45 188.22V194.35C436.45 195.17 437.73 195.17 437.73 194.35V188.22C437.73 187.4 436.45 187.4 436.45 188.22Z" fill="#000035"/>
<path d="M434.41 168.29V173.91C434.41 174.73 435.69 174.73 435.69 173.91V168.29C435.68 167.47 434.41 167.47 434.41 168.29Z" fill="#000035"/>
<path d="M445.14 174.42V181.06C445.14 181.88 446.42 181.88 446.42 181.06V174.42C446.41 173.6 445.14 173.6 445.14 174.42Z" fill="#000035"/>
<path d="M447.69 194.86V201.5C447.69 202.32 448.97 202.32 448.97 201.5V194.86C448.97 194.04 447.69 194.04 447.69 194.86Z" fill="#000035"/>
<path d="M425.21 203.55V209.17C425.21 209.99 426.49 209.99 426.49 209.17V203.55C426.48 202.73 425.21 202.73 425.21 203.55Z" fill="#000035"/>
<path d="M6.31993 298.82C7.92993 298.82 7.92993 296.32 6.31993 296.32C4.70993 296.32 4.70993 298.82 6.31993 298.82Z" fill="#000035"/>
<path d="M68.6599 275.32C70.2699 275.32 70.2699 272.82 68.6599 272.82C67.0499 272.82 67.0499 275.32 68.6599 275.32Z" fill="#000035"/>
<path d="M30.8499 357.08C32.4599 357.08 32.4599 354.58 30.8499 354.58C29.2399 354.58 29.2299 357.08 30.8499 357.08Z" fill="#000035"/>
<path d="M88.0799 352.99C89.6899 352.99 89.6899 350.49 88.0799 350.49C86.4699 350.49 86.4699 352.99 88.0799 352.99Z" fill="#000035"/>
<path d="M122.83 310.07C124.44 310.07 124.44 307.57 122.83 307.57C121.22 307.57 121.21 310.07 122.83 310.07Z" fill="#000035"/>
<path d="M175.97 385.69C177.58 385.69 177.58 383.19 175.97 383.19C174.36 383.19 174.36 385.69 175.97 385.69Z" fill="#000035"/>
<path d="M230.13 300.87C231.74 300.87 231.74 298.37 230.13 298.37C228.53 298.37 228.52 300.87 230.13 300.87Z" fill="#000035"/>
<path d="M275.1 367.3C276.71 367.3 276.71 364.8 275.1 364.8C273.49 364.8 273.49 367.3 275.1 367.3Z" fill="#000035"/>
<path d="M306.78 301.89C308.39 301.89 308.39 299.39 306.78 299.39C305.18 299.39 305.17 301.89 306.78 301.89Z" fill="#000035"/>
<path d="M392.63 393.87C394.24 393.87 394.24 391.37 392.63 391.37C391.02 391.37 391.02 393.87 392.63 393.87Z" fill="#000035"/>
<path d="M461.1 380.58C462.71 380.58 462.71 378.08 461.1 378.08C459.5 378.08 459.49 380.58 461.1 380.58Z" fill="#000035"/>
<path d="M479.5 289.63C481.11 289.63 481.11 287.13 479.5 287.13C477.89 287.13 477.89 289.63 479.5 289.63Z" fill="#000035"/>
<path d="M337.44 413.29C339.05 413.29 339.05 410.79 337.44 410.79C335.84 410.79 335.83 413.29 337.44 413.29Z" fill="#000035"/>
<path d="M201.52 419.42C203.13 419.42 203.13 416.92 201.52 416.92C199.91 416.92 199.91 419.42 201.52 419.42Z" fill="#000035"/>
<path d="M50.2599 410.22C51.8699 410.22 51.8699 407.72 50.2599 407.72C48.6599 407.72 48.6499 410.22 50.2599 410.22Z" fill="#000035"/>
<path d="M266.93 279.41C268.54 279.41 268.54 276.91 266.93 276.91C265.32 276.91 265.31 279.41 266.93 279.41Z" fill="#000035"/>
<path d="M268.97 401.02C270.58 401.02 270.58 398.52 268.97 398.52C267.36 398.52 267.36 401.02 268.97 401.02Z" fill="#000035"/>
<path d="M1.20994 404.09C2.81994 404.09 2.81994 401.59 1.20994 401.59C-0.400059 401.59 -0.400059 404.09 1.20994 404.09Z" fill="#000035"/>
<path d="M458.32 59.79C459.17 52.26 463.37 45.83 467.72 39.84C472.08 33.84 476.8 27.94 479.47 20.94C481.04 16.81 481.74 12.42 481.49 8.01001C481.44 7.21001 480.19 7.20001 480.24 8.01001C480.7 16.07 477.66 23.31 473.3 29.92C469.21 36.12 464.22 41.75 460.75 48.35C458.86 51.93 457.54 55.75 457.08 59.78C456.98 60.59 458.23 60.58 458.32 59.79Z" fill="#000035"/>
<path d="M464.26 42.93C464.17 42.27 463.84 41.63 463.56 41.03C463.14 40.12 462.69 39.23 462.25 38.33C461.8 37.39 461.37 36.45 461.02 35.47C460.75 34.69 460.45 33.81 460.53 32.97C460.58 32.42 460.88 32.07 461.32 31.88C461.52 31.8 461.62 31.84 461.72 31.88C461.89 31.96 462.04 32.13 462.16 32.29C463.06 33.57 463.3 35.41 463.48 36.93C463.6 37.89 463.67 38.85 463.68 39.82C463.68 40.21 463.68 40.6 463.65 40.99C463.63 41.34 463.64 41.34 463.56 41.65C463.35 42.43 464.55 42.76 464.77 41.98C465.17 40.51 464.94 38.74 464.78 37.26C464.58 35.44 464.33 33.33 463.31 31.76C462.93 31.17 462.37 30.63 461.63 30.59C460.89 30.55 460.1 31.03 459.7 31.64C458.62 33.26 459.75 35.72 460.41 37.27C460.92 38.46 461.5 39.61 462.07 40.77C462.45 41.55 462.94 42.39 463.06 43.26C463.17 44.06 464.38 43.72 464.26 42.93Z" fill="#000035"/>
<path d="M470.87 34.9501C473.6 33.7701 476.24 32.1001 479.21 31.6101C479.48 31.5601 479.78 31.5401 480.08 31.5501C480.23 31.5601 480.17 31.5401 480.34 31.5901C480.51 31.6401 480.51 31.6401 480.57 31.6701C480.6 31.6901 480.7 31.7801 480.66 31.7301C480.77 31.8701 480.72 31.7801 480.75 31.9401C480.77 32.0201 480.77 32.0401 480.77 32.2101C480.76 32.3701 480.74 32.5001 480.69 32.6701C480.32 34.0401 477.92 34.2101 476.73 34.2901C475.65 34.3601 474.57 34.3401 473.49 34.2801C473.03 34.2501 472.57 34.2201 472.12 34.1701C471.93 34.1501 471.74 34.1301 471.55 34.1101C471.48 34.1001 471.4 34.0901 471.33 34.0801C471.22 34.0701 471.4 34.0901 471.23 34.0701C470.44 33.9601 470.1 35.1601 470.9 35.2801C472.73 35.5401 474.6 35.6601 476.44 35.5601C478.15 35.4701 480.71 35.2701 481.67 33.5801C482.04 32.9301 482.18 31.9501 481.83 31.2601C481.51 30.6401 480.88 30.3801 480.22 30.3201C478.51 30.1601 476.65 30.9901 475.11 31.6301C473.46 32.3201 471.89 33.1701 470.25 33.8801C469.51 34.1901 470.14 35.2701 470.87 34.9501Z" fill="#000035"/>
<path d="M477.49 23.3601C476.51 22.0101 475.17 20.9301 474.07 19.6701C473.51 19.0401 472.98 18.3601 472.61 17.5901C472.48 17.3101 472.35 16.9201 472.33 16.6801C472.3 16.3801 472.34 16.1201 472.44 15.9201C472.47 15.8601 472.5 15.8101 472.53 15.7501C472.54 15.7301 472.64 15.5901 472.59 15.6501C472.54 15.7201 472.64 15.6001 472.66 15.5801C472.74 15.4801 472.67 15.5801 472.67 15.5701C472.67 15.5701 472.84 15.4701 472.66 15.5601C472.69 15.5401 472.74 15.5301 472.77 15.5301C472.78 15.5301 472.62 15.5601 472.75 15.5401C472.78 15.5401 472.82 15.5601 472.74 15.5401C472.62 15.5001 472.74 15.5601 472.76 15.5501C472.77 15.5401 472.94 15.6101 472.83 15.5701C472.74 15.5301 472.86 15.5801 472.88 15.6001C472.93 15.6301 473.18 15.8101 473.07 15.7201C473.27 15.8801 473.44 16.0701 473.6 16.2601C474.4 17.2101 475.08 18.6001 475.63 19.8201C476.11 20.9001 476.68 22.1201 476.86 23.3201C476.91 23.6501 477.33 23.8401 477.63 23.7601C477.99 23.6601 478.12 23.3301 478.07 22.9901C477.89 21.7801 477.32 20.5801 476.84 19.4701C476.22 18.0501 475.51 16.6201 474.52 15.4201C473.84 14.5901 472.62 13.7701 471.7 14.7901C470.46 16.1701 471.3 18.0901 472.23 19.3601C472.92 20.3101 473.72 21.1601 474.54 21.9901C474.9 22.3601 475.26 22.7201 475.62 23.0901C475.89 23.3701 476.24 23.7601 476.41 23.9801C476.61 24.2501 476.95 24.3901 477.27 24.2001C477.53 24.0601 477.68 23.6401 477.49 23.3601Z" fill="#000035"/>
<path d="M481.13 15.41C481.15 15.36 481.16 15.31 481.18 15.26C481.23 15.13 481.16 15.31 481.2 15.2C481.26 15.07 481.32 14.95 481.39 14.83C481.55 14.55 481.73 14.29 481.92 14.03C482.34 13.47 482.88 12.88 483.41 12.36C484.41 11.37 485.7 10.26 486.92 9.77996C487.05 9.72996 487.18 9.67996 487.32 9.64996C487.38 9.62996 487.45 9.61996 487.51 9.59996C487.54 9.58996 487.56 9.58996 487.59 9.58996C487.67 9.57996 487.48 9.59996 487.6 9.58996C487.66 9.58996 487.71 9.58996 487.77 9.57996C487.81 9.57996 487.98 9.59996 487.81 9.56996C487.85 9.57996 487.9 9.58996 487.94 9.59996C488.11 9.64996 487.87 9.57996 488.01 9.61996C488.05 9.62996 488.17 9.72996 488.04 9.62996C488.07 9.65996 488.11 9.67996 488.13 9.71996C488.18 9.78996 488.08 9.62996 488.17 9.76996C488.19 9.79996 488.26 9.96996 488.22 9.84996C488.34 10.16 488.34 10.31 488.34 10.65C488.34 12.22 486.94 13.07 485.57 13.52C483.94 14.06 482.23 14.18 480.53 14.37C480.19 14.41 479.91 14.63 479.91 14.99C479.91 15.3 480.2 15.65 480.53 15.61C482.26 15.42 484.01 15.3 485.69 14.78C487.43 14.25 489.25 13.19 489.54 11.23C489.66 10.45 489.61 9.51996 489.08 8.88996C488.65 8.37996 487.98 8.25996 487.35 8.35996C485.78 8.59996 484.34 9.81996 483.2 10.85C482.46 11.51 481.77 12.23 481.16 13.01C480.67 13.64 480.18 14.31 479.94 15.08C479.68 15.85 480.89 16.18 481.13 15.41Z" fill="#000035"/>
<path d="M40.23 60.1501C44.4 56.8501 46.42 51.6601 47.16 46.5201C47.91 41.3501 47.58 35.9801 46.27 30.9201C46.07 30.1401 44.86 30.4701 45.06 31.2501C47.39 40.2201 47.29 52.9601 39.34 59.2601C38.72 59.7601 39.61 60.6401 40.23 60.1501Z" fill="#000035"/>
<path d="M46.2399 47.9201C41.8399 45.3201 40.8199 40.3101 41.0099 35.5401C41.1999 30.8701 42.3999 26.3301 43.4599 21.8001C43.1099 21.8901 42.7599 21.9801 42.4199 22.0801C46.8499 26.0501 51.6099 31.4801 51.7099 37.7801C51.7699 41.2401 50.4199 47.6901 45.9299 47.5901C45.1299 47.5701 45.1299 48.8201 45.9299 48.8401C50.9999 48.9601 52.7999 42.5501 52.9599 38.5001C53.2199 31.5901 48.1499 25.5401 43.3099 21.2001C42.9799 20.9001 42.3799 20.9901 42.2699 21.4801C40.2699 29.9001 36.1899 43.4501 45.5999 49.0001C46.2999 49.4101 46.9299 48.3301 46.2399 47.9201Z" fill="#000035"/>
<path d="M266.85 61.6701C263.4 46.5101 256.54 32.3101 253.83 16.9601C252.99 12.2001 252.58 7.39005 252.56 2.56005C252.56 1.76005 251.31 1.75005 251.31 2.56005C251.33 10.7101 252.59 18.7601 254.74 26.6101C256.79 34.0801 259.53 41.3301 261.91 48.6901C263.33 53.0801 264.61 57.5001 265.63 62.0001C265.82 62.7801 267.03 62.4501 266.85 61.6701Z" fill="#000035"/>
<path d="M244 13.9C247.49 18.1 250.69 22.62 254.9 26.16C255.24 26.45 255.82 26.37 255.94 25.88C257.3 20.5 259.44 15.39 261.39 10.21C261.67 9.45996 260.47 9.12996 260.18 9.87996C258.23 15.06 256.09 20.17 254.73 25.55C255.08 25.46 255.43 25.37 255.77 25.27C251.56 21.73 248.36 17.21 244.87 13.01C244.37 12.4 243.49 13.29 244 13.9Z" fill="#000035"/>
<path d="M245.49 32.4001C250.38 35.2201 254.67 38.9201 258.99 42.5201C259.27 42.7501 259.59 42.7501 259.87 42.5201C259.51 42.2301 259.36 42.1901 259.44 42.4001C259.46 42.4501 259.47 42.5101 259.47 42.5601C259.46 42.6201 259.48 42.7001 259.48 42.7601C259.49 43.4801 260.49 43.5901 260.71 42.9301C262.12 38.7001 263.63 34.5601 266.1 30.8201C266.54 30.1501 265.46 29.5201 265.02 30.1901C262.5 34.0201 260.95 38.2801 259.51 42.6001C259.92 42.6601 260.33 42.7101 260.74 42.7701C260.72 41.7001 260 40.8101 258.99 41.6501C259.28 41.6501 259.58 41.6501 259.87 41.6501C255.47 37.9801 251.09 34.2101 246.12 31.3301C245.42 30.9101 244.79 31.9901 245.49 32.4001Z" fill="#000035"/>
<path d="M251.25 0C247.96 0 247.96 5.11 251.25 5.11C254.55 5.11 254.55 0 251.25 0Z" fill="#F93A3A"/>
<path d="M260.79 7.48999C257.5 7.48999 257.5 12.6 260.79 12.6C264.09 12.6 264.09 7.48999 260.79 7.48999Z" fill="#F93A3A"/>
<path d="M244.44 10.8999C241.15 10.8999 241.15 16.0099 244.44 16.0099C247.74 16.0099 247.74 10.8999 244.44 10.8999Z" fill="#F93A3A"/>
<path d="M246.49 30.6599C243.2 30.6599 243.2 35.7699 246.49 35.7699C249.78 35.7699 249.78 30.6599 246.49 30.6599Z" fill="#F93A3A"/>
<path d="M264.2 27.9299C260.91 27.9299 260.91 33.0399 264.2 33.0399C267.49 33.0399 267.49 27.9299 264.2 27.9299Z" fill="#F93A3A"/>
<path d="M303.17 28.74L304.58 33.94L309.92 35.3L304.58 36.76L303.17 41.87L301.76 36.76L296.54 35.35L301.76 33.94L303.17 28.74Z" fill="#000035"/>
<path d="M483.33 144.81L484.74 150.01L490.08 151.37L484.74 152.83L483.33 157.93L481.92 152.83L476.71 151.42L481.92 150.01L483.33 144.81Z" fill="#000035"/>
<path d="M29.98 92.03L30.84 95.18L34.08 96.01L30.84 96.89L29.98 99.99L29.13 96.89L25.97 96.04L29.13 95.18L29.98 92.03Z" fill="#000035"/>
</svg>
