<svg width="673" height="636" viewBox="0 0 673 636" fill="none" xmlns="http://www.w3.org/2000/svg">
<g clip-path="url(#clip0_96_2256)">
<path d="M399.491 564.795H273.509C273.509 564.795 -17.3685 555.015 0.817852 584.372C19.0042 613.728 114.1 602.55 95.9134 613.728C77.727 624.906 144.866 633.305 280.513 634.702C293.674 634.836 307.146 634.999 320.723 635.163V635.519C325.987 635.46 331.251 635.4 336.515 635.341C341.779 635.4 347.043 635.46 352.307 635.519V635.163C365.884 634.999 379.341 634.836 392.516 634.702C528.163 633.305 595.288 624.921 577.116 613.728C558.93 602.55 654.025 613.728 672.212 584.372C690.368 555.015 399.491 564.795 399.491 564.795Z" fill="#E6C293"/>
<path d="M585.607 572.272C636.374 514.168 667.141 438.167 667.141 354.972C667.141 172.44 519.107 24.4664 336.5 24.4664C153.893 24.4664 5.87378 172.44 5.87378 354.972C5.87378 438.167 36.6404 514.183 87.4076 572.272H585.607Z" fill="#FFF0D9"/>
<path d="M148.956 314.512C150.071 316.623 150.666 318.733 151.082 320.844C151.484 322.955 151.662 325.065 151.662 327.176C151.662 329.287 151.484 331.398 151.082 333.508C150.666 335.619 150.086 337.73 148.956 339.84C147.826 337.73 147.246 335.619 146.829 333.508C146.428 331.398 146.249 329.287 146.249 327.176C146.249 325.065 146.443 322.955 146.829 320.844C147.261 318.733 147.841 316.623 148.956 314.512Z" fill="#E6C293"/>
<path d="M161.625 327.161C159.514 328.276 157.402 328.87 155.291 329.287C153.179 329.688 151.067 329.866 148.956 329.866C146.844 329.866 144.733 329.688 142.621 329.287C140.509 328.87 138.398 328.291 136.286 327.161C138.398 326.031 140.509 325.452 142.621 325.036C144.733 324.634 146.844 324.456 148.956 324.456C151.067 324.456 153.179 324.649 155.291 325.036C157.402 325.467 159.514 326.046 161.625 327.161Z" fill="#E6C293"/>
<path d="M417.558 86.1826C418.673 88.2933 419.268 90.4041 419.684 92.5148C420.086 94.6255 420.264 96.7362 420.264 98.8469C420.264 100.958 420.086 103.068 419.684 105.179C419.268 107.29 418.688 109.401 417.558 111.511C416.428 109.401 415.848 107.29 415.431 105.179C415.03 103.068 414.852 100.958 414.852 98.8469C414.852 96.7362 415.045 94.6255 415.431 92.5148C415.863 90.4041 416.443 88.2933 417.558 86.1826Z" fill="#E6C293"/>
<path d="M430.228 98.8321C428.116 99.9469 426.004 100.542 423.893 100.958C421.781 101.359 419.67 101.537 417.558 101.537C415.446 101.537 413.335 101.359 411.223 100.958C409.112 100.542 407 99.9618 404.889 98.8321C407 97.7024 409.112 97.1227 411.223 96.7065C413.335 96.3052 415.446 96.1268 417.558 96.1268C419.67 96.1268 421.781 96.3201 423.893 96.7065C426.004 97.1227 428.116 97.7173 430.228 98.8321Z" fill="#E6C293"/>
<path d="M527.792 374.563C528.907 376.674 529.502 378.784 529.918 380.895C530.32 383.006 530.498 385.117 530.498 387.227C530.498 389.338 530.32 391.449 529.918 393.559C529.502 395.67 528.922 397.781 527.792 399.892C526.661 397.781 526.082 395.67 525.665 393.559C525.264 391.449 525.085 389.338 525.085 387.227C525.085 385.117 525.279 383.006 525.665 380.895C526.096 378.784 526.676 376.674 527.792 374.563Z" fill="#E6C293"/>
<path d="M540.461 387.228C538.349 388.342 536.238 388.937 534.126 389.353C532.015 389.754 529.903 389.933 527.792 389.933C525.68 389.933 523.568 389.754 521.457 389.353C519.345 388.937 517.234 388.357 515.122 387.228C517.234 386.098 519.345 385.518 521.457 385.102C523.568 384.701 525.68 384.522 527.792 384.522C529.903 384.522 532.015 384.715 534.126 385.102C536.238 385.518 538.349 386.098 540.461 387.228Z" fill="#E6C293"/>
<path d="M467.329 223.32C467.983 224.554 468.31 225.787 468.563 227.006C468.801 228.24 468.905 229.474 468.905 230.692C468.905 231.926 468.801 233.16 468.563 234.379C468.31 235.613 467.983 236.846 467.314 238.065C466.645 236.831 466.318 235.598 466.065 234.379C465.827 233.145 465.723 231.911 465.723 230.692C465.723 229.459 465.827 228.225 466.065 227.006C466.347 225.787 466.674 224.554 467.329 223.32Z" fill="#E6C293"/>
<path d="M474.705 230.707C473.47 231.361 472.236 231.688 471.017 231.941C469.783 232.179 468.548 232.283 467.329 232.283C466.095 232.283 464.86 232.179 463.641 231.941C462.407 231.688 461.173 231.361 459.953 230.693C461.187 230.024 462.422 229.697 463.641 229.444C464.875 229.206 466.11 229.102 467.329 229.102C468.563 229.102 469.797 229.206 471.017 229.444C472.251 229.711 473.485 230.038 474.705 230.707Z" fill="#E6C293"/>
<path d="M69.1171 455.692C69.7714 456.926 70.0985 458.16 70.3513 459.378C70.5893 460.612 70.6934 461.846 70.6934 463.065C70.6934 464.299 70.5893 465.532 70.3513 466.751C70.0985 467.985 69.7714 469.219 69.1022 470.437C68.4331 469.204 68.1059 467.97 67.8531 466.751C67.6152 465.517 67.5111 464.284 67.5111 463.065C67.5111 461.831 67.6152 460.597 67.8531 459.378C68.1357 458.16 68.4628 456.926 69.1171 455.692Z" fill="#E6C293"/>
<path d="M76.5077 463.079C75.2735 463.734 74.0392 464.06 72.8199 464.313C71.5856 464.551 70.3514 464.655 69.132 464.655C67.8978 464.655 66.6635 464.551 65.4442 464.313C64.2099 464.06 62.9757 463.733 61.7563 463.065C62.9906 462.396 64.2248 462.069 65.4442 461.816C66.6784 461.578 67.9127 461.474 69.132 461.474C70.3663 461.474 71.6005 461.578 72.8199 461.816C74.0392 462.084 75.2735 462.411 76.5077 463.079Z" fill="#E6C293"/>
<path d="M234.817 149.816C235.575 151.243 235.977 152.67 236.259 154.097C236.527 155.524 236.661 156.951 236.661 158.378C236.661 159.805 236.542 161.232 236.274 162.659C235.992 164.086 235.59 165.513 234.832 166.94C234.073 165.513 233.672 164.086 233.389 162.659C233.122 161.232 232.988 159.805 233.003 158.378C233.003 156.951 233.137 155.524 233.404 154.097C233.672 152.67 234.058 151.243 234.817 149.816Z" fill="#E6C293"/>
<path d="M243.397 158.378C241.969 159.136 240.542 159.538 239.114 159.82C237.687 160.088 236.259 160.221 234.832 160.221C233.404 160.221 231.977 160.102 230.549 159.835C229.122 159.552 227.694 159.151 226.266 158.393C227.694 157.635 229.122 157.234 230.549 156.951C231.977 156.684 233.404 156.55 234.832 156.565C236.259 156.565 237.687 156.698 239.114 156.966C240.542 157.219 241.969 157.62 243.397 158.378Z" fill="#E6C293"/>
<path d="M497.203 319.744C500.252 319.744 500.267 315.002 497.203 315.002C494.155 314.987 494.155 319.744 497.203 319.744Z" fill="white"/>
<path d="M602.351 321.959C605.4 321.959 605.414 317.217 602.351 317.217C599.303 317.202 599.288 321.959 602.351 321.959Z" fill="white"/>
<path d="M549.814 161.425C552.863 161.425 552.878 156.684 549.814 156.684C546.751 156.669 546.751 161.425 549.814 161.425Z" fill="white"/>
<path d="M71.9723 268.448C75.0207 268.448 75.0356 263.706 71.9723 263.706C68.9239 263.691 68.9239 268.448 71.9723 268.448Z" fill="#E6C293"/>
<path d="M189.18 126.777C192.228 126.777 192.243 122.035 189.18 122.035C186.132 122.035 186.132 126.777 189.18 126.777Z" fill="#E6C293"/>
<path d="M554.172 470.779C560.283 470.779 560.283 461.296 554.172 461.296C548.06 461.296 548.045 470.779 554.172 470.779Z" fill="white"/>
<path d="M543.361 279.729C549.472 279.729 549.472 270.246 543.361 270.246C537.249 270.246 537.234 279.729 543.361 279.729Z" fill="#E6C293"/>
<path d="M196.883 246.047C202.994 246.047 202.994 236.564 196.883 236.564C190.771 236.549 190.771 246.047 196.883 246.047Z" fill="white"/>
<path d="M573.607 217.3C579.719 217.3 579.719 207.816 573.607 207.816C567.495 207.816 567.48 217.3 573.607 217.3Z" fill="white"/>
<path d="M611.273 416.48C617.385 416.48 617.385 406.997 611.273 406.997C605.162 406.997 605.147 416.48 611.273 416.48Z" fill="white"/>
<path d="M271.472 85.915C277.584 85.915 277.584 76.4316 271.472 76.4316C265.36 76.4316 265.346 85.915 271.472 85.915Z" fill="white"/>
<path d="M139.617 202.852C145.729 202.852 145.729 193.368 139.617 193.368C133.506 193.354 133.491 202.852 139.617 202.852Z" fill="white"/>
<path d="M95.274 394.184C101.386 394.184 101.386 384.7 95.274 384.7C89.1623 384.7 89.1474 394.184 95.274 394.184Z" fill="white"/>
<path d="M478.437 173.703C484.549 173.703 484.549 164.22 478.437 164.22C472.325 164.205 472.31 173.703 478.437 173.703Z" fill="white"/>
<path d="M308.96 546.586H266.996L262 600.127H308.96V546.586Z" fill="#8A232F"/>
<path d="M300.335 528.378C300.335 528.378 303.503 542.365 287.666 542.365H295.324C295.324 542.365 307.86 542.231 307.86 530.622L300.335 528.378Z" fill="#B87F4B"/>
<path d="M287.666 542.35C287.666 542.35 286.001 534.16 298.209 528.363C299.503 527.754 301.005 527.709 302.313 528.274L307.86 530.608C307.86 530.608 296.246 534.428 291.488 542.35H287.666Z" fill="#CF8E54"/>
<path d="M275.011 528.378C275.011 528.378 271.844 542.365 287.681 542.365H280.023C280.023 542.365 267.487 542.231 267.487 530.622L275.011 528.378Z" fill="#B87F4B"/>
<path d="M287.681 542.35C286.863 546.393 290.164 534.561 277.138 528.363C275.844 527.754 274.342 527.709 273.034 528.274L267.487 530.608C267.487 530.608 279.101 534.428 283.859 542.35H287.681Z" fill="#CF8E54"/>
<path d="M288.677 536.835C288.082 538.084 287.265 539.229 287.146 540.135C287.027 539.229 286.744 538.084 286.149 536.835C284.796 537.504 284.677 539.452 284.677 541.785C284.677 541.978 284.707 542.172 284.722 542.365H287.666H287.681H290.595C290.61 542.172 290.64 541.978 290.64 541.785C290.625 539.452 290.016 537.489 288.677 536.835Z" fill="#B87F4B"/>
<path d="M290.238 541.77C290.238 544 289.079 545.799 287.666 545.799C286.238 545.799 285.093 544 285.093 541.77C285.093 539.541 286.253 537.742 287.666 537.742C289.093 537.742 290.238 539.541 290.238 541.77Z" fill="#A16F43"/>
<path d="M313.421 542.365H261.925V551.522H313.421V542.365Z" fill="#8A232F"/>
<path d="M293.703 542.365H281.629V600.128H293.703V542.365Z" fill="#CF8E54"/>
<path opacity="0.5" d="M332.768 542.365H276.632L288.499 600.128H332.768V542.365Z" fill="#7F7F7F"/>
<path d="M230.742 514.049C230.742 514.049 233.553 526.55 219.396 526.52L226.237 526.535C226.237 526.535 237.449 526.446 237.464 516.056L230.742 514.049Z" fill="#6E1E27"/>
<path d="M219.396 526.52C219.396 526.52 217.924 519.206 228.839 514.049C229.999 513.499 231.337 513.469 232.512 513.974L237.464 516.07C237.464 516.07 227.07 519.474 222.817 526.535L219.396 526.52Z" fill="#8A232F"/>
<path d="M208.125 514.004C208.125 514.004 205.27 526.49 219.426 526.52L212.586 526.505C212.586 526.505 201.374 526.371 201.403 515.996L208.125 514.004Z" fill="#6E1E27"/>
<path d="M219.426 526.52C219.426 526.52 220.928 519.207 210.028 514.004C208.883 513.454 207.53 513.424 206.355 513.915L201.403 515.996C201.403 515.996 211.783 519.43 216.006 526.52H219.426Z" fill="#8A232F"/>
<path opacity="0.5" d="M220.318 521.585C219.783 522.7 219.53 523.725 219.411 524.528C219.307 523.71 219.054 522.7 218.519 521.57C217.315 522.165 216.735 523.904 216.735 525.985C216.735 526.163 216.75 526.327 216.764 526.505H219.396H219.411H222.014C222.029 526.327 222.043 526.163 222.043 525.985C222.058 523.933 221.523 522.179 220.318 521.585Z" fill="#8A232F"/>
<path d="M221.716 526.014C221.716 528.006 220.675 529.611 219.411 529.611C218.133 529.611 217.106 527.991 217.121 525.999C217.121 524.008 218.162 522.402 219.426 522.402C220.69 522.402 221.716 524.023 221.716 526.014Z" fill="#581A21"/>
<path d="M244.78 526.49H194.712L191.544 600.127H239.456L244.78 526.49Z" fill="#58886B"/>
<path d="M179.916 535.81H250.921" stroke="#8A232F" stroke-width="4.59024" stroke-miterlimit="10"/>
<path d="M185.626 549.56H256.617" stroke="#8A232F" stroke-width="4.59024" stroke-miterlimit="10"/>
<path d="M185.626 563.309H256.617" stroke="#8A232F" stroke-width="4.59024" stroke-miterlimit="10"/>
<path d="M185.626 577.058H256.617" stroke="#8A232F" stroke-width="4.59024" stroke-miterlimit="10"/>
<path d="M185.626 590.808H256.617" stroke="#8A232F" stroke-width="4.59024" stroke-miterlimit="10"/>
<path opacity="0.5" d="M194.504 528.214L194.206 537.698H243.977L244.661 528.214H194.504Z" fill="#7F7F7F"/>
<path d="M247.442 526.49H191.976L190.935 534.889H246.981L247.442 526.49Z" fill="#58886B"/>
<path d="M183.871 565.732H70.6339V600.127H183.871V565.732Z" fill="#58886B"/>
<path d="M81.2513 579.986C82.1712 579.986 82.9168 579.241 82.9168 578.322C82.9168 577.402 82.1712 576.657 81.2513 576.657C80.3315 576.657 79.5859 577.402 79.5859 578.322C79.5859 579.241 80.3315 579.986 81.2513 579.986Z" fill="white"/>
<path d="M113.579 578.322C113.579 579.243 112.836 579.986 111.914 579.986C110.992 579.986 110.248 579.243 110.248 578.322C110.248 577.4 110.992 576.657 111.914 576.657C112.836 576.657 113.579 577.4 113.579 578.322Z" fill="white"/>
<path d="M142.591 579.986C143.511 579.986 144.257 579.241 144.257 578.322C144.257 577.402 143.511 576.657 142.591 576.657C141.671 576.657 140.926 577.402 140.926 578.322C140.926 579.241 141.671 579.986 142.591 579.986Z" fill="white"/>
<path d="M174.919 578.322C174.919 579.243 174.176 579.986 173.254 579.986C172.332 579.986 171.588 579.243 171.588 578.322C171.588 577.4 172.332 576.657 173.254 576.657C174.176 576.657 174.919 577.4 174.919 578.322Z" fill="white"/>
<path d="M98.2481 586.318C98.2481 587.24 97.5045 587.983 96.5826 587.983C95.6606 587.983 94.9171 587.24 94.9171 586.318C94.9171 585.397 95.6606 584.654 96.5826 584.654C97.5045 584.654 98.2481 585.397 98.2481 586.318Z" fill="white"/>
<path d="M127.245 587.983C128.165 587.983 128.911 587.238 128.911 586.318C128.911 585.399 128.165 584.654 127.245 584.654C126.325 584.654 125.58 585.399 125.58 586.318C125.58 587.238 126.325 587.983 127.245 587.983Z" fill="white"/>
<path d="M157.923 587.983C158.842 587.983 159.588 587.238 159.588 586.318C159.588 585.399 158.842 584.654 157.923 584.654C157.003 584.654 156.257 585.399 156.257 586.318C156.257 587.238 157.003 587.983 157.923 587.983Z" fill="white"/>
<path d="M81.2513 595.965C82.1712 595.965 82.9168 595.22 82.9168 594.301C82.9168 593.381 82.1712 592.636 81.2513 592.636C80.3315 592.636 79.5859 593.381 79.5859 594.301C79.5859 595.22 80.3315 595.965 81.2513 595.965Z" fill="white"/>
<path d="M113.579 594.301C113.579 595.222 112.836 595.965 111.914 595.965C110.992 595.965 110.248 595.222 110.248 594.301C110.248 593.379 110.992 592.636 111.914 592.636C112.836 592.636 113.579 593.379 113.579 594.301Z" fill="white"/>
<path d="M142.591 595.965C143.511 595.965 144.257 595.22 144.257 594.301C144.257 593.381 143.511 592.636 142.591 592.636C141.671 592.636 140.926 593.381 140.926 594.301C140.926 595.22 141.671 595.965 142.591 595.965Z" fill="white"/>
<path d="M174.919 594.301C174.919 595.222 174.176 595.965 173.254 595.965C172.332 595.965 171.588 595.222 171.588 594.301C171.588 593.379 172.332 592.636 173.254 592.636C174.176 592.636 174.919 593.379 174.919 594.301Z" fill="white"/>
<path opacity="0.5" d="M70.6339 565.732V574.576L183.604 577.058L183.871 565.732H70.6339Z" fill="#426650"/>
<path d="M187.083 560.425H67.8234V571.246H187.083V560.425Z" fill="#58886B"/>
<path d="M123.587 482.656C123.587 482.656 126.829 496.94 110.65 496.94H118.472C118.472 496.94 131.275 496.806 131.275 484.945L123.587 482.656Z" fill="#B87F4B"/>
<path d="M110.65 496.94C110.65 496.94 108.955 488.571 121.416 482.655C122.739 482.031 124.271 482.001 125.609 482.566L131.275 484.945C131.275 484.945 119.408 488.854 114.561 496.94H110.65Z" fill="#CF8E54"/>
<path d="M97.7276 482.656C97.7276 482.656 94.4858 496.94 110.665 496.94H102.843C102.843 496.94 90.0396 496.806 90.0396 484.945L97.7276 482.656Z" fill="#B87F4B"/>
<path d="M110.665 496.94C110.665 496.94 112.36 488.571 99.8986 482.655C98.5752 482.031 97.0435 482.001 95.7052 482.566L90.0396 484.945C90.0396 484.945 101.906 488.854 106.754 496.94H110.665Z" fill="#CF8E54"/>
<path d="M111.676 491.292C111.066 492.57 110.769 493.73 110.65 494.666C110.531 493.73 110.234 492.57 109.624 491.292C108.256 491.976 107.587 493.967 107.587 496.346C107.587 496.554 107.616 496.747 107.631 496.94H110.635H110.65H113.624C113.639 496.747 113.669 496.554 113.669 496.346C113.683 493.967 113.059 491.976 111.676 491.292Z" fill="#B87F4B"/>
<path d="M113.282 496.346C113.282 498.62 112.107 500.463 110.65 500.463C109.193 500.463 108.018 498.62 108.018 496.346C108.018 494.071 109.193 492.228 110.65 492.228C112.107 492.228 113.282 494.071 113.282 496.346Z" fill="#A16F43"/>
<path d="M137.52 560.143H85.638L89.0284 496.94H134.115L137.52 560.143Z" fill="#8A232F"/>
<path d="M112.761 519.058C112.122 519.058 111.602 518.538 111.602 517.899C111.602 517.26 112.122 516.739 112.761 516.739C113.401 516.739 113.921 517.26 113.921 517.899C113.921 518.538 113.416 519.058 112.761 519.058Z" fill="white"/>
<path d="M111.944 533.551C111.483 533.09 111.483 532.362 111.944 531.916C112.405 531.455 113.133 531.455 113.579 531.916C114.04 532.376 114.04 533.105 113.579 533.551C113.133 534.012 112.405 534.012 111.944 533.551Z" fill="white"/>
<path d="M119.632 511.641C118.992 511.641 118.472 511.121 118.472 510.481C118.472 509.842 118.992 509.322 119.632 509.322C120.271 509.322 120.791 509.842 120.791 510.481C120.791 511.121 120.271 511.641 119.632 511.641Z" fill="white"/>
<path d="M119.632 526.475C118.992 526.475 118.472 525.955 118.472 525.316C118.472 524.677 118.992 524.156 119.632 524.156C120.271 524.156 120.791 524.677 120.791 525.316C120.791 525.955 120.271 526.475 119.632 526.475Z" fill="white"/>
<path d="M119.632 541.31C118.992 541.31 118.472 540.789 118.472 540.15C118.472 539.511 118.992 538.991 119.632 538.991C120.271 538.991 120.791 539.511 120.791 540.15C120.791 540.789 120.271 541.31 119.632 541.31Z" fill="white"/>
<path d="M112.761 548.727C112.122 548.727 111.602 548.207 111.602 547.567C111.602 546.928 112.122 546.408 112.761 546.408C113.401 546.408 113.921 546.928 113.921 547.567C113.936 548.207 113.416 548.727 112.761 548.727Z" fill="white"/>
<path d="M119.632 556.144C118.992 556.144 118.472 555.624 118.472 554.985C118.472 554.346 118.992 553.825 119.632 553.825C120.271 553.825 120.791 554.346 120.791 554.985C120.791 555.624 120.271 556.144 119.632 556.144Z" fill="white"/>
<path d="M127.766 519.058C127.126 519.058 126.606 518.538 126.606 517.899C126.606 517.26 127.126 516.739 127.766 516.739C128.405 516.739 128.925 517.26 128.925 517.899C128.925 518.538 128.405 519.058 127.766 519.058Z" fill="white"/>
<path d="M126.948 533.551C126.487 533.09 126.487 532.362 126.948 531.916C127.409 531.455 128.137 531.455 128.584 531.916C129.044 532.376 129.044 533.105 128.584 533.551C128.137 534.012 127.394 534.012 126.948 533.551Z" fill="white"/>
<path d="M134.636 511.641C133.996 511.641 133.476 511.121 133.476 510.481C133.476 509.842 133.996 509.322 134.636 509.322C135.275 509.322 135.796 509.842 135.796 510.481C135.796 511.121 135.275 511.641 134.636 511.641Z" fill="white"/>
<path d="M134.636 526.475C133.996 526.475 133.476 525.955 133.476 525.316C133.476 524.677 133.996 524.156 134.636 524.156C135.275 524.156 135.796 524.677 135.796 525.316C135.796 525.955 135.275 526.475 134.636 526.475Z" fill="white"/>
<path d="M134.636 541.31C133.996 541.31 133.476 540.789 133.476 540.15C133.476 539.511 133.996 538.991 134.636 538.991C135.275 538.991 135.796 539.511 135.796 540.15C135.796 540.789 135.275 541.31 134.636 541.31Z" fill="white"/>
<path d="M127.766 548.727C127.126 548.727 126.606 548.207 126.606 547.567C126.606 546.928 127.126 546.408 127.766 546.408C128.405 546.408 128.925 546.928 128.925 547.567C128.925 548.207 128.405 548.727 127.766 548.727Z" fill="white"/>
<path d="M134.636 556.144C133.996 556.144 133.476 555.624 133.476 554.985C133.476 554.346 133.996 553.825 134.636 553.825C135.275 553.825 135.796 554.346 135.796 554.985C135.796 555.624 135.275 556.144 134.636 556.144Z" fill="white"/>
<path d="M88.5675 511.641C87.9281 511.641 87.4076 511.121 87.4076 510.481C87.4076 509.842 87.9281 509.322 88.5675 509.322C89.2069 509.322 89.7274 509.842 89.7274 510.481C89.7274 511.121 89.2069 511.641 88.5675 511.641Z" fill="white"/>
<path d="M88.5675 526.475C87.9281 526.475 87.4076 525.955 87.4076 525.316C87.4076 524.677 87.9281 524.156 88.5675 524.156C89.2069 524.156 89.7274 524.677 89.7274 525.316C89.7274 525.955 89.2069 526.475 88.5675 526.475Z" fill="white"/>
<path d="M88.5675 541.31C87.9281 541.31 87.4076 540.789 87.4076 540.15C87.4076 539.511 87.9281 538.991 88.5675 538.991C89.2069 538.991 89.7274 539.511 89.7274 540.15C89.7274 540.789 89.2069 541.31 88.5675 541.31Z" fill="white"/>
<path d="M88.5675 556.144C87.9281 556.144 87.4076 555.624 87.4076 554.985C87.4076 554.346 87.9281 553.825 88.5675 553.825C89.2069 553.825 89.7274 554.346 89.7274 554.985C89.7274 555.624 89.2069 556.144 88.5675 556.144Z" fill="white"/>
<path d="M96.7016 519.058C96.0621 519.058 95.5417 518.538 95.5417 517.899C95.5417 517.26 96.0621 516.739 96.7016 516.739C97.341 516.739 97.8615 517.26 97.8615 517.899C97.8615 518.538 97.341 519.058 96.7016 519.058Z" fill="white"/>
<path d="M95.8837 533.551C95.4227 533.09 95.4227 532.362 95.8837 531.916C96.3447 531.455 97.0733 531.455 97.5194 531.916C97.9804 532.376 97.9804 533.105 97.5194 533.551C97.0733 534.012 96.3298 534.012 95.8837 533.551Z" fill="white"/>
<path d="M103.572 511.641C102.932 511.641 102.412 511.121 102.412 510.481C102.412 509.842 102.932 509.322 103.572 509.322C104.211 509.322 104.732 509.842 104.732 510.481C104.732 511.121 104.211 511.641 103.572 511.641Z" fill="white"/>
<path d="M103.572 526.475C102.932 526.475 102.412 525.955 102.412 525.316C102.412 524.677 102.932 524.156 103.572 524.156C104.211 524.156 104.732 524.677 104.732 525.316C104.732 525.955 104.211 526.475 103.572 526.475Z" fill="white"/>
<path d="M103.572 541.31C102.932 541.31 102.412 540.789 102.412 540.15C102.412 539.511 102.932 538.991 103.572 538.991C104.211 538.991 104.732 539.511 104.732 540.15C104.732 540.789 104.211 541.31 103.572 541.31Z" fill="white"/>
<path d="M96.7016 548.727C96.0621 548.727 95.5417 548.207 95.5417 547.567C95.5417 546.928 96.0621 546.408 96.7016 546.408C97.341 546.408 97.8615 546.928 97.8615 547.567C97.8615 548.207 97.341 548.727 96.7016 548.727Z" fill="white"/>
<path d="M103.572 556.144C102.932 556.144 102.412 555.624 102.412 554.985C102.412 554.346 102.932 553.825 103.572 553.825C104.211 553.825 104.732 554.346 104.732 554.985C104.732 555.624 104.211 556.144 103.572 556.144Z" fill="white"/>
<path opacity="0.7" d="M134.219 498.828H88.9392L88.5228 507.375H134.636L134.219 498.828Z" fill="#CF8E54"/>
<path d="M136.212 496.94H86.2626V504.625H136.212V496.94Z" fill="#8A232F"/>
<path d="M115.408 496.94H105.906V560.143H115.408V496.94Z" fill="#CF8E54"/>
<path d="M551.197 489.047C551.197 489.047 555.837 509.53 532.639 509.53H543.852C543.852 509.53 562.216 509.337 562.216 492.332L551.197 489.047Z" fill="#6E1E27"/>
<path d="M532.639 509.515C532.639 509.515 530.201 497.535 548.075 489.032C549.963 488.14 552.164 488.081 554.082 488.898L562.201 492.317C562.201 492.317 545.19 497.921 538.231 509.515H532.639Z" fill="#8A232F"/>
<path d="M514.111 489.047C514.111 489.047 509.471 509.53 532.669 509.53H521.457C521.457 509.53 503.092 509.337 503.092 492.332L514.111 489.047Z" fill="#6E1E27"/>
<path d="M532.669 509.515C532.669 509.515 535.108 497.535 517.234 489.032C515.345 488.14 513.145 488.081 511.226 488.898L503.107 492.317C503.107 492.317 520.119 497.921 527.078 509.515H532.669Z" fill="#8A232F"/>
<path d="M534.126 501.429C533.249 503.257 532.833 504.922 532.654 506.26C532.476 504.922 532.059 503.257 531.182 501.429C529.204 502.41 528.267 505.264 528.267 508.668C528.267 508.965 528.297 509.233 528.327 509.515H532.639H532.669H536.937C536.952 509.233 536.996 508.95 536.996 508.668C536.996 505.264 536.089 502.41 534.126 501.429Z" fill="#6E1E27"/>
<path d="M536.431 508.668C536.431 511.923 534.736 514.569 532.654 514.569C530.572 514.569 528.877 511.923 528.877 508.668C528.877 505.413 530.572 502.767 532.654 502.767C534.736 502.767 536.431 505.413 536.431 508.668Z" fill="#581A21"/>
<path d="M571.168 600.127H496.787L501.664 509.515H566.291L571.168 600.127Z" fill="#CF8E54"/>
<path d="M535.688 541.22C534.766 541.22 534.022 540.477 534.022 539.556C534.022 538.634 534.766 537.891 535.688 537.891C536.61 537.891 537.353 538.634 537.353 539.556C537.353 540.477 536.61 541.22 535.688 541.22Z" fill="white"/>
<path d="M535.688 562.491C536.608 562.491 537.353 561.746 537.353 560.826C537.353 559.907 536.608 559.162 535.688 559.162C534.768 559.162 534.022 559.907 534.022 560.826C534.022 561.746 534.768 562.491 535.688 562.491Z" fill="white"/>
<path d="M545.532 530.593C546.452 530.593 547.197 529.847 547.197 528.928C547.197 528.008 546.452 527.263 545.532 527.263C544.612 527.263 543.866 528.008 543.866 528.928C543.866 529.847 544.612 530.593 545.532 530.593Z" fill="white"/>
<path d="M545.532 551.863C544.61 551.863 543.866 551.12 543.866 550.198C543.866 549.277 544.61 548.534 545.532 548.534C546.454 548.534 547.197 549.277 547.197 550.198C547.197 551.12 546.454 551.863 545.532 551.863Z" fill="white"/>
<path d="M545.532 573.134C546.452 573.134 547.197 572.389 547.197 571.469C547.197 570.55 546.452 569.804 545.532 569.804C544.612 569.804 543.866 570.55 543.866 571.469C543.866 572.389 544.612 573.134 545.532 573.134Z" fill="white"/>
<path d="M535.688 583.762C534.766 583.762 534.022 583.018 534.022 582.097C534.022 581.175 534.766 580.432 535.688 580.432C536.61 580.432 537.353 581.175 537.353 582.097C537.353 583.018 536.61 583.762 535.688 583.762Z" fill="white"/>
<path d="M545.532 594.405C546.452 594.405 547.197 593.659 547.197 592.74C547.197 591.82 546.452 591.075 545.532 591.075C544.612 591.075 543.866 591.82 543.866 592.74C543.866 593.659 544.612 594.405 545.532 594.405Z" fill="white"/>
<path d="M557.19 541.22C558.11 541.22 558.856 540.475 558.856 539.556C558.856 538.636 558.11 537.891 557.19 537.891C556.27 537.891 555.525 538.636 555.525 539.556C555.525 540.475 556.27 541.22 557.19 541.22Z" fill="white"/>
<path d="M556.001 562.001C555.346 561.347 555.346 560.291 556.001 559.652C556.655 559.013 557.711 558.998 558.35 559.652C559.004 560.306 559.004 561.362 558.35 562.001C557.711 562.655 556.655 562.655 556.001 562.001Z" fill="white"/>
<path d="M567.034 530.593C567.954 530.593 568.7 529.847 568.7 528.928C568.7 528.008 567.954 527.263 567.034 527.263C566.114 527.263 565.369 528.008 565.369 528.928C565.369 529.847 566.114 530.593 567.034 530.593Z" fill="white"/>
<path d="M567.034 551.863C566.112 551.863 565.369 551.12 565.369 550.198C565.369 549.277 566.112 548.534 567.034 548.534C567.956 548.534 568.7 549.277 568.7 550.198C568.7 551.12 567.941 551.863 567.034 551.863Z" fill="white"/>
<path d="M567.034 573.134C567.954 573.134 568.7 572.389 568.7 571.469C568.7 570.55 567.954 569.804 567.034 569.804C566.114 569.804 565.369 570.55 565.369 571.469C565.369 572.389 566.114 573.134 567.034 573.134Z" fill="white"/>
<path d="M557.19 583.762C556.268 583.762 555.525 583.018 555.525 582.097C555.525 581.175 556.268 580.432 557.19 580.432C558.112 580.432 558.856 581.175 558.856 582.097C558.856 583.018 558.097 583.762 557.19 583.762Z" fill="white"/>
<path d="M567.034 594.405C567.954 594.405 568.7 593.659 568.7 592.74C568.7 591.82 567.954 591.075 567.034 591.075C566.114 591.075 565.369 591.82 565.369 592.74C565.369 593.659 566.114 594.405 567.034 594.405Z" fill="white"/>
<path d="M500.995 530.593C500.073 530.593 499.33 529.85 499.33 528.928C499.33 528.006 500.073 527.263 500.995 527.263C501.917 527.263 502.661 528.006 502.661 528.928C502.661 529.85 501.917 530.593 500.995 530.593Z" fill="white"/>
<path d="M500.995 551.863C500.073 551.863 499.33 551.12 499.33 550.198C499.33 549.277 500.073 548.534 500.995 548.534C501.917 548.534 502.661 549.277 502.661 550.198C502.661 551.12 501.917 551.863 500.995 551.863Z" fill="white"/>
<path d="M500.995 573.134C500.073 573.134 499.33 572.391 499.33 571.469C499.33 570.548 500.073 569.804 500.995 569.804C501.917 569.804 502.661 570.548 502.661 571.469C502.661 572.391 501.917 573.134 500.995 573.134Z" fill="white"/>
<path d="M500.995 594.39C500.073 594.39 499.33 593.647 499.33 592.725C499.33 591.804 500.073 591.06 500.995 591.06C501.917 591.06 502.661 591.804 502.661 592.725C502.661 593.647 501.917 594.39 500.995 594.39Z" fill="white"/>
<path d="M512.654 541.22C511.732 541.22 510.988 540.477 510.988 539.556C510.988 538.634 511.732 537.891 512.654 537.891C513.576 537.891 514.319 538.634 514.319 539.556C514.319 540.477 513.561 541.22 512.654 541.22Z" fill="white"/>
<path d="M511.464 562.001C510.81 561.347 510.81 560.292 511.464 559.652C512.118 558.998 513.174 558.998 513.814 559.652C514.468 560.306 514.468 561.362 513.814 562.001C513.174 562.655 512.118 562.655 511.464 562.001Z" fill="white"/>
<path d="M522.498 530.593C521.576 530.593 520.832 529.849 520.832 528.928C520.832 528.006 521.576 527.263 522.498 527.263C523.42 527.263 524.163 528.006 524.163 528.928C524.163 529.849 523.405 530.593 522.498 530.593Z" fill="white"/>
<path d="M522.498 551.863C521.576 551.863 520.832 551.12 520.832 550.198C520.832 549.277 521.576 548.534 522.498 548.534C523.42 548.534 524.163 549.277 524.163 550.198C524.163 551.12 523.405 551.863 522.498 551.863Z" fill="white"/>
<path d="M522.498 573.134C521.576 573.134 520.832 572.391 520.832 571.469C520.832 570.548 521.576 569.804 522.498 569.804C523.42 569.804 524.163 570.548 524.163 571.469C524.163 572.391 523.405 573.134 522.498 573.134Z" fill="white"/>
<path d="M512.654 583.762C511.732 583.762 510.988 583.018 510.988 582.097C510.988 581.175 511.732 580.432 512.654 580.432C513.576 580.432 514.319 581.175 514.319 582.097C514.319 583.018 513.561 583.762 512.654 583.762Z" fill="white"/>
<path d="M522.498 594.39C521.576 594.39 520.832 593.647 520.832 592.725C520.832 591.804 521.576 591.06 522.498 591.06C523.42 591.06 524.163 591.804 524.163 592.725C524.163 593.647 523.405 594.39 522.498 594.39Z" fill="white"/>
<path opacity="0.5" d="M566.439 512.22H501.516L500.921 523.25H567.034L566.439 512.22Z" fill="#CF8E54"/>
<path d="M569.295 509.515H497.694V520.544H569.295V509.515Z" fill="#CF8E54"/>
<path d="M539.465 509.515H525.844V600.127H539.465V509.515Z" fill="#8A232F"/>
<path d="M356.947 458.769H314.685V556.754C329.273 561.956 343.355 562.06 356.947 556.754V458.769Z" fill="#452516"/>
<path opacity="0.5" d="M356.947 515.238V469.62H314.685V507.315C320.306 504.224 326.73 500.76 333.258 494.25C341.853 502.841 350.315 512.265 356.947 515.238Z" fill="#452516"/>
<path d="M556.536 429.308C529.264 429.308 507.419 419.037 490.898 406.536C496.534 404.113 500.445 400.248 500.445 400.248C480.578 397.409 469.336 386.127 465.663 381.772C465.232 381.222 464.801 380.687 464.385 380.167C464.325 380.093 464.295 380.048 464.295 380.048V380.063C456.355 369.851 447.358 354.303 447.358 354.303H223.976C223.976 354.303 211.976 376.243 197.433 391.553C192.466 395.269 179.38 403.281 160.109 401.973C160.109 401.973 164.822 409.093 172.198 412.467C156.926 422.143 137.892 429.323 115.081 429.323C115.081 429.323 117.104 446 164.109 446L146.413 473.782C146.413 473.782 169.655 476.309 185.834 460.136L166.622 484.38C166.622 484.38 199.47 484.38 226.757 470.735L211.084 490.935C211.084 490.935 237.613 495.231 252.527 480.322L239.992 500.151C239.992 500.151 273.495 508.876 305.094 477.29L299.027 493.967C299.027 493.967 317.05 491.946 335.756 473.261C354.463 491.961 372.531 493.967 372.531 493.967L366.464 477.29C398.048 508.861 431.283 499.586 431.283 499.586L419.03 480.322C433.945 495.231 460.474 490.935 460.474 490.935L444.8 470.735C472.087 484.38 504.936 484.38 504.936 484.38L485.723 460.136C501.902 476.309 525.145 473.782 525.145 473.782L507.449 446C554.513 445.986 556.536 429.308 556.536 429.308Z" fill="#1F3633"/>
<path d="M218.356 392.029C218.356 392.029 203.143 405.258 185.953 405.258C185.953 405.258 189.611 412.021 198.355 410.891C198.355 410.891 178.042 430.705 155.499 431.835C155.499 431.835 169.73 437.29 184.659 433.634L168.778 457.074C168.778 457.074 188.912 452.749 202.727 440.917C202.727 440.917 207.099 450.876 221.746 453.7C221.746 453.7 212.735 431.166 213.865 421.593C213.865 421.593 218.37 426.945 226.965 423.57C216.66 409.628 218.356 392.029 218.356 392.029Z" fill="#213B37"/>
<path d="M451.596 390.914C451.596 390.914 469.069 401.051 479.76 401.051C479.76 401.051 477.233 406.12 474.125 406.12C474.125 406.12 482.571 423.303 502.006 427.242C502.006 427.242 500.029 434.288 487.642 431.181C487.642 431.181 488.564 444.633 505.382 455.96C505.382 455.96 489.813 456.242 474.392 440.471C474.392 440.471 471.864 447.517 459.18 445.54C459.18 445.54 465.946 438.286 464.459 424.135C464.459 424.135 461.292 433.634 447.983 431.954C448.399 431.315 459.388 418.442 456.86 407.458C456.86 407.458 454.109 413.998 448.83 413.166C448.845 413.151 455.611 403.088 451.596 390.914Z" fill="#213B37"/>
<path d="M304.127 431.597C294.402 433.069 287.859 429.694 287.859 429.694C286.803 447.427 301.808 451.872 301.808 451.872C301.808 451.872 287.651 458.977 278.149 453.343C268.929 471.017 236.943 474.807 236.943 474.807C248.349 467.063 261.45 448.052 261.45 448.052C261.45 448.052 250.252 447.844 242.014 442.136C242.014 442.136 259.546 440.233 266.312 423.764C266.312 423.764 259.13 423.972 249.196 418.487C249.196 418.487 276.454 414.474 287.22 397.157C287.22 397.172 290.818 422.307 304.127 431.597Z" fill="#213B37"/>
<path d="M369.438 439.178C371.995 449.375 357.452 463.065 357.452 463.065C365.631 463.406 373.438 456.896 373.438 456.896C378.613 476.725 411.283 483.726 411.283 483.726C399.386 475.907 397.572 458.992 397.572 458.992C404.204 465.666 418.792 459.348 418.792 459.348C418.792 459.348 400.621 451.961 397.557 443.696C397.557 443.696 403.743 444.098 409.662 439.356C409.662 439.356 391.208 439.594 387.565 426.439C387.565 426.439 395.193 429.263 402.494 424.685C402.494 424.685 379.193 417.58 374.345 394.674C374.345 394.674 365.75 418.65 354.924 426.811C354.924 426.811 364.843 429.323 369.006 422.411C369.006 422.411 360.62 439.341 350.731 446.744C350.761 446.758 365.319 445.807 369.438 439.178Z" fill="#213B37"/>
<path d="M329.273 446.863C329.273 446.863 337.972 461.043 317.912 472.176C317.912 472.161 314.343 453.135 329.273 446.863Z" fill="#213B37"/>
<path d="M256.572 388.729C256.572 388.729 259.873 407.041 241.39 410.341C241.39 410.341 237.925 398.628 256.572 388.729Z" fill="#213B37"/>
<path d="M433.425 434.555C433.425 434.555 421.588 437.796 421.305 421.326C421.32 421.326 431.179 424.983 433.425 434.555Z" fill="#213B37"/>
<path d="M493.352 339.9C474.972 339.9 459.894 329.569 447.879 315.508C457.291 314.973 465.069 307.317 465.069 307.317C444.458 304.374 433.142 292.349 429.915 288.38C416.666 263.245 410.465 238.348 410.465 238.348H335.786H261.152C261.152 238.348 255.234 262.16 242.579 286.716C236.958 291.874 226.876 298.845 211.857 300.985C211.857 300.985 219.486 308.492 228.78 309.161C216.021 326.344 199.307 339.885 178.265 339.885C178.265 339.885 207.188 360.873 222.043 347.837L200.868 367.532C200.868 367.532 227.783 370.936 236.884 361.854L217.552 381.936C217.552 381.936 251.472 390.081 281.227 360.338L268.721 380.791C268.721 380.791 297.347 378.71 311.934 364.114L299.428 379.647C299.428 379.647 317.763 382.486 335.771 364.485C349.318 385.325 376.1 387.346 376.1 387.346L359.653 364.114C374.241 378.695 397.067 376.495 397.067 376.495L390.345 360.323C420.101 390.066 454.02 381.921 454.02 381.921L434.689 361.839C443.789 370.936 470.704 367.517 470.704 367.517L449.529 347.822C464.429 360.888 493.352 339.9 493.352 339.9Z" fill="#274540"/>
<path d="M380.323 275.464C380.323 275.464 395.609 288.767 412.086 287.503C412.086 287.503 404.695 296.377 398.985 295.53C398.985 295.53 419.684 308.194 439.967 305.459C439.967 305.459 434.257 316.86 417.573 313.486C417.573 313.486 438.495 332.706 453.708 334.608C453.708 334.608 443.566 344.329 432.785 339.885L449.053 358.257L420.324 346.425C420.324 346.425 423.134 363.891 429.618 368.112C429.618 368.112 399.476 360.516 394.687 339.677C394.687 339.677 392.159 349.532 376.382 350.379C376.382 350.379 389.052 332.646 388.501 318.272C388.501 318.272 381.453 327.28 374.419 328.692C374.419 328.692 386.539 313.486 384.278 300.539C384.278 300.539 381.185 306.173 374.419 307.303C374.404 307.273 383.431 288.128 380.323 275.464Z" fill="#294943"/>
<path d="M298.64 299.112C290.759 303.899 282.298 299.112 282.298 299.112C282.58 308.12 303.429 319.952 303.429 319.952C289.911 324.456 283.71 316.295 283.71 316.295C285.406 328.41 303.711 339.38 303.711 339.38C292.439 339.944 280.9 331.502 280.9 331.502C272.454 352.906 250.193 356.845 250.193 356.845C256.676 349.249 256.111 329.807 256.111 329.807C242.312 340.227 224.274 332.616 224.274 332.616C246.252 324.456 262.862 305.861 262.862 305.861C253.286 308.67 238.639 301.639 238.639 301.639C255.546 301.639 265.97 291.502 265.97 291.502C262.312 294.876 249.628 290.372 249.628 290.372C260.617 288.678 280.9 273.189 280.9 273.189C280.9 273.189 283.696 289.822 298.64 299.112Z" fill="#294943"/>
<path d="M337.571 345.221C337.571 345.221 341.377 359.58 351.311 362.33C351.311 362.33 346.032 346.916 347.296 338.042C347.296 338.042 353.006 342.055 362.508 338.042C362.508 338.042 351.95 333.82 346.032 320.309C346.032 320.309 351.742 324.738 362.3 321.78C343.712 310.588 340.545 286.939 340.545 286.939C340.545 286.939 332.515 305.103 316.247 309.963C320.47 313.977 323.221 314.824 323.221 314.824C323.221 314.824 321.526 321.795 307.8 327.919C315.399 331.725 324.916 328.558 324.916 328.558C324.916 328.558 313.927 345.875 302.105 352.416C316.47 355.165 322.18 346.708 322.18 346.708C322.18 346.708 327.667 353.887 320.916 363.608C332.292 360.219 337.571 345.221 337.571 345.221Z" fill="#294943"/>
<path d="M280.677 373.552C280.677 373.552 294.194 374.816 299.8 359.61C299.8 359.625 287.116 358.242 280.677 373.552Z" fill="#294943"/>
<path d="M354.196 289.614C354.196 289.614 349.764 304.404 363.073 310.736C363.073 310.721 366.449 298.904 354.196 289.614Z" fill="#294943"/>
<path d="M242.564 284.977C257.539 283.713 272.29 281.81 286.804 278.674C301.332 275.582 315.578 271.361 330.091 267.348C333.719 266.367 337.422 265.49 341.08 264.568C344.783 263.765 348.486 262.888 352.233 262.19C359.742 260.941 367.341 259.856 374.984 259.693C390.271 259.113 405.513 261.134 420.056 265.088C420.458 265.192 420.696 265.623 420.592 266.025C420.487 266.396 420.145 266.619 419.774 266.575H419.759C404.859 264.865 390.018 264.107 375.341 265.415C360.664 266.679 346.27 269.979 331.875 273.962L321.005 276.831C317.362 277.782 313.748 278.793 310.061 279.625L304.544 280.919L298.982 282.078L293.421 283.208L287.8 284.07C272.825 286.418 257.583 287.102 242.564 286.047C242.252 286.032 242.029 285.764 242.044 285.452C242.074 285.214 242.297 285.006 242.564 284.977Z" fill="#CF8E54"/>
<path opacity="0.4" d="M251.308 267.645C251.308 267.645 259.145 268.061 264.424 264.048L256.929 280.948C256.929 280.948 284.424 279.254 296.99 270.068L295.235 274.646C295.235 274.646 313.317 277.782 322.195 270.499C322.195 270.499 323.667 284.01 317.54 286.656C317.54 286.656 341.734 284.233 350.612 271.138C350.612 271.138 367.267 278.852 380.367 278.733L378.152 270.395C378.152 270.395 390.301 281.379 412.695 277.262L409.32 268.284C409.32 268.284 414.316 270.395 421.499 268.596V219.604H251.308V267.645Z" fill="#274540"/>
<path d="M443.819 210.685C427.625 210.685 414.718 200.741 404.829 188.047C413.588 186.888 420.592 179.991 420.592 179.991C420.458 179.976 420.324 179.946 420.205 179.931C404.1 177.523 390.702 166.316 384.843 151.124C381.17 141.581 379.401 134.774 379.401 134.774H335.816H292.276C292.276 134.774 289.019 147.334 282.134 162.228C275.353 176.899 261.658 187.378 245.657 189.771C245.524 189.786 245.39 189.816 245.241 189.831C245.241 189.831 250.877 195.375 258.371 197.352C249.895 205.26 239.754 210.655 227.828 210.655C227.828 210.655 229.716 232.625 252.468 232.625L227.828 251.19C227.828 251.19 260.587 263.631 280.112 244.115L269.138 266.723C269.138 266.723 288.856 267.481 307.429 248.916L304.559 259.529C304.559 259.529 314.789 260.332 328.559 251.562C329.63 258.89 329.942 268.21 325.689 271.896C325.689 271.896 339.623 268.15 347.653 255.337C360.248 262.844 372.962 265.207 372.962 265.207L364.248 248.916C382.821 267.481 402.539 266.723 402.539 266.723L389.275 247.4C408.799 266.916 443.864 251.19 443.864 251.19L419.224 232.625C441.93 232.669 443.819 210.685 443.819 210.685Z" fill="#30554E"/>
<path d="M378.91 231.317C392.65 245.051 414.405 244.204 414.405 244.204L394.524 223.231C410.539 223.231 417.082 216.036 417.082 216.036C402.435 211.384 390.836 195.732 383.877 186.784C390.048 185.966 395.684 180.407 395.684 180.407C382.94 178.935 367.445 171.132 363.281 167.743C363.281 167.743 358.136 189.994 350.82 196.46C350.82 196.46 361.661 198.289 364.768 195.197C364.768 195.197 365.333 219.901 351.251 221.596C351.251 221.596 361.884 227.512 370.047 219.901C370.047 219.901 366.672 233.279 357.794 234.617C357.794 234.631 373.988 239.774 378.91 231.317Z" fill="#335952"/>
<path d="M309.897 168.456C301.733 176.334 275.606 187.081 265.39 192.105L278.907 191.258C272.944 196.832 264.394 210.195 245.806 217.017C245.806 217.017 255.427 223.498 271.442 223.498L251.724 242.509C251.724 242.509 267.918 249.124 287.354 230.96C293.837 235.746 290.447 248.975 290.447 248.975C308.975 238.273 303.473 228.567 306.789 222.502C306.789 222.502 314.953 228.418 323.414 222.502C308.484 210.67 307.354 198.853 307.354 198.853C307.354 198.853 314.953 208.991 321.154 205.899C321.169 205.914 308.499 185.357 309.897 168.456Z" fill="#335952"/>
<path d="M320.038 234.914C320.038 234.914 319.191 245.898 314.269 250.402C314.269 250.402 326.388 249.139 329.481 236.46C331.087 229.905 325.957 228.002 325.957 228.002C325.957 228.002 320.455 231.109 320.038 234.914Z" fill="#335952"/>
<path d="M359.475 254.029C359.475 254.029 348.694 252.439 345.853 237.56C345.853 237.545 356.515 234.483 359.475 254.029Z" fill="#335952"/>
<path d="M332.009 192.536C332.009 192.536 321.02 182.547 323.979 172.127C323.979 172.113 334.269 179.857 332.009 192.536Z" fill="#335952"/>
<path opacity="0.4" d="M281.45 164.264C281.45 164.264 287.309 164.621 293.376 160.816L287.532 172.365C287.532 172.365 323.845 170.18 336.381 159.27C336.381 159.27 357.081 175.888 382.717 170.686L377.721 160.935C377.721 160.935 382.999 164.279 391.877 162.585V143.856H282.298L281.45 164.264Z" fill="#30554E"/>
<path d="M335.801 146.279C346.79 159.538 371.059 160.296 371.059 160.296L361.958 143.246C375.029 156.312 401.379 148.924 401.379 148.924L382.419 136.424C401.751 136.424 404.026 121.649 404.026 121.649C355.132 121.649 335.801 26.9191 335.801 26.9191C335.801 26.9191 316.514 121.649 267.621 121.649C267.621 121.649 269.896 136.424 289.227 136.424L270.268 148.924C270.268 148.924 296.618 156.312 309.689 143.246L300.588 160.296C321.303 160.296 335.801 146.279 335.801 146.279Z" fill="#38645B"/>
<path d="M335.757 129.021C341.675 136.156 351.712 142.369 351.712 142.369L349.824 127.386C356.857 134.417 373.215 135.799 373.215 135.799L360.843 123.73C375.252 126.955 379.802 123.418 379.802 123.418C349.497 115.584 339.34 75.6142 336.619 61.1068C336.411 59.9771 334.82 59.9176 334.522 61.0324C330.79 75.2872 318.195 114.469 290.997 122.912C290.997 122.912 297.822 127.966 310.715 123.73L300.112 137.316C300.112 137.316 314.7 134.417 321.734 127.386L319.845 141.359C319.83 141.359 329.853 136.156 335.757 129.021Z" fill="#3C6B61"/>
<path d="M335.816 42.0211L319.34 50.6869L322.492 32.3445L309.154 19.3532L327.578 16.6776L335.816 0L344.054 16.6776L362.478 19.3532L349.14 32.3445L352.292 50.6869L335.816 42.0211Z" fill="#EECF6B"/>
<path opacity="0.4" d="M335.816 30.0554L319.34 50.6869L331.37 26.8299L309.154 19.3532L333.065 21.6126L335.816 0L338.567 21.6126L362.478 19.3532L340.262 26.8299L352.292 50.6869L335.816 30.0554Z" fill="#EECF6B"/>
<path d="M328.738 200.147L326.611 193.25L324.485 200.147L317.6 202.257L324.485 204.383L326.611 211.28L328.738 204.383L335.623 202.257L328.738 200.147Z" fill="white"/>
<path d="M345.14 86.5098L343.682 81.7681L342.225 86.5098L337.481 87.9664L342.225 89.4231L343.682 94.1648L345.14 89.4231L349.883 87.9664L345.14 86.5098Z" fill="white"/>
<path d="M367.698 338.473L366.166 333.523L364.635 338.473L359.683 340.004L364.635 341.535L366.166 346.485L367.698 341.535L372.65 340.004L367.698 338.473Z" fill="white"/>
<path d="M292.246 437.468L290.12 430.586L287.993 437.468L281.108 439.594L287.993 441.72L290.12 448.602L292.246 441.72L299.131 439.594L292.246 437.468Z" fill="white"/>
<path d="M363.207 600.127H308.425C306.7 600.127 305.257 598.834 305.064 597.11L297.347 526.148C297.123 524.157 298.7 522.403 300.707 522.403H370.925C372.932 522.403 374.508 524.142 374.285 526.148L366.568 597.11C366.389 598.834 364.932 600.127 363.207 600.127Z" fill="#892F14"/>
<path opacity="0.5" d="M296.945 522.403L298.343 535.216H373.304L374.687 522.403H296.945Z" fill="#892F14"/>
<path d="M378.97 530.37H292.662C290.818 530.37 289.331 528.883 289.331 527.04V519.34C289.331 517.497 290.818 516.011 292.662 516.011H378.97C380.814 516.011 382.301 517.497 382.301 519.34V527.04C382.301 528.868 380.814 530.37 378.97 530.37Z" fill="#892F14"/>
<path opacity="0.5" d="M362.597 465.666L350.909 473.707L351.638 459.542L340.381 450.921L354.077 447.234L358.255 435.432C358.478 434.793 359.341 434.689 359.712 435.254L366.538 445.733L380.724 446.09L371.817 457.119L375.847 470.705L362.597 465.666Z" fill="#38645B"/>
<path d="M360.872 463.466L349.184 471.507L349.913 457.342L338.656 448.721L352.352 445.034L356.53 433.232C356.753 432.593 357.616 432.489 358.002 433.054L364.828 443.533L379.014 443.89L370.107 454.919L374.137 468.505L360.872 463.466Z" fill="#EECF6B"/>
<path d="M359.891 435.997L359.534 432.682C359.504 432.429 359.296 432.251 359.043 432.281L358.954 432.296V432.281C358.865 431.211 358.627 429.204 357.051 429.204C355.475 429.204 355.593 431.493 355.683 432.563V432.578L355.594 432.593C355.341 432.608 355.162 432.831 355.177 433.069L355.4 436.383L359.891 435.997ZM358.344 432.34L357.333 432.429H357.304L356.292 432.519V432.504C356.233 431.775 356.129 429.798 357.11 429.798C358.092 429.798 358.3 431.582 358.359 432.325C358.345 432.34 358.344 432.34 358.344 432.34Z" fill="#CF8E54"/>
<path opacity="0.5" d="M359.341 434.689L359.252 433.678C359.207 433.158 358.776 432.771 358.255 432.757L357.259 432.742C357.259 432.742 357.066 432.771 357.214 432.846C358.285 433.366 358.91 434.154 359.177 434.733C359.341 435.09 359.341 434.689 359.341 434.689Z" fill="white"/>
<path opacity="0.5" d="M360.099 439.505L363.668 444.633C363.98 445.02 364.456 445.257 364.962 445.287L372.233 445.614L363.876 447.368C362.999 447.546 362.121 447.056 361.839 446.209L360.099 439.505Z" fill="white"/>
<path opacity="0.3" d="M345.095 450.267L351.311 455.306C351.816 455.707 352.069 456.346 351.995 456.985L350.835 467.375L355.4 455.856C355.802 454.845 355.266 453.715 354.24 453.358L345.095 450.267Z" fill="white"/>
<path opacity="0.5" d="M314.7 346.945L301.332 350.171L309.481 335.574L301.897 322.969L315.607 326.254L324.009 316.979C324.47 316.474 323.89 316.31 324.009 316.979L326.031 329.346L340.634 335.5L329.779 341.52L327.176 357.752L314.7 346.945Z" fill="#38645B"/>
<path d="M315.637 343.839L301.748 346.752L307.875 333.969L300.811 321.676L314.864 323.549L323.265 314.274C323.726 313.769 324.559 314.006 324.678 314.675L326.938 326.983L339.876 332.78L327.399 339.513L325.883 353.605L315.637 343.839Z" fill="#EECF6B"/>
<path d="M325.318 318.109L326.269 314.928C326.344 314.69 326.21 314.438 325.972 314.363L325.883 314.334V314.319C326.21 313.293 326.76 311.346 325.318 310.751C323.875 310.142 323.087 312.297 322.76 313.323V313.338L322.671 313.308C322.433 313.234 322.18 313.352 322.106 313.59L321.035 316.741L325.318 318.109ZM325.303 314.155L324.336 313.843L324.306 313.828L323.34 313.516V313.501C323.563 312.802 324.232 310.944 325.139 311.316C326.031 311.703 325.541 313.442 325.303 314.155C325.303 314.14 325.303 314.155 325.303 314.155Z" fill="#CF8E54"/>
<path opacity="0.5" d="M325.318 316.712L325.615 315.746C325.764 315.255 325.526 314.72 325.05 314.512L324.143 314.111C324.143 314.111 323.95 314.066 324.068 314.2C324.857 315.092 325.124 316.058 325.154 316.712C325.169 317.069 325.318 316.712 325.318 316.712Z" fill="white"/>
<path opacity="0.5" d="M324.158 321.438L325.481 327.548C325.63 328.023 325.972 328.425 326.418 328.648L333.006 331.754L324.619 330.149C323.741 329.985 323.132 329.183 323.191 328.291L324.158 321.438Z" fill="white"/>
<path opacity="0.3" d="M306.165 325.586L309.957 332.631C310.269 333.196 310.254 333.88 309.942 334.445L304.856 343.586L313.511 334.712C314.269 333.939 314.224 332.691 313.407 331.962L306.165 325.586Z" fill="white"/>
<path opacity="0.5" d="M380.263 234.869L372.694 242.836L371.817 229.488L361.244 224.316L371.876 220.57L373.482 210.685C373.572 210.15 373.111 210.284 373.482 210.685L380.204 218.117L392.68 215.903L388.011 224.658L393.319 236.698L380.263 234.869Z" fill="#38645B"/>
<path d="M379.535 232.372L371.475 240.354L370.033 229.102L359.95 223.9L370.211 219.054L371.817 209.169C371.906 208.634 372.575 208.426 372.947 208.827L379.817 216.111L391.029 214.386L385.572 224.331L390.672 234.468L379.535 232.372Z" fill="#EECF6B"/>
<path d="M374.851 210.878L374.107 208.322C374.048 208.129 373.854 208.025 373.661 208.069L373.587 208.084V208.069C373.363 207.237 372.888 205.691 371.653 205.914C370.419 206.137 370.836 207.921 371.059 208.753V208.768L370.984 208.783C370.791 208.827 370.672 209.035 370.731 209.229L371.371 211.815L374.851 210.878ZM373.126 208.233L372.337 208.441H372.308L371.52 208.649V208.634C371.371 208.069 371.014 206.523 371.772 206.39C372.546 206.271 372.962 207.638 373.126 208.233C373.126 208.218 373.126 208.218 373.126 208.233Z" fill="#CF8E54"/>
<path opacity="0.5" d="M374.241 209.942L374.018 209.154C373.899 208.753 373.512 208.5 373.111 208.574L372.323 208.693C372.323 208.693 372.174 208.738 372.308 208.783C373.23 209.035 373.824 209.57 374.122 210.001C374.3 210.239 374.241 209.942 374.241 209.942Z" fill="white"/>
<path opacity="0.5" d="M375.52 213.614L379.059 217.136C379.371 217.404 379.773 217.523 380.174 217.463L385.944 216.69L379.609 219.262C378.94 219.529 378.181 219.262 377.839 218.638L375.52 213.614Z" fill="white"/>
<path opacity="0.3" d="M365.229 224.212L370.835 227.289C371.282 227.541 371.579 228.002 371.624 228.522L372.174 236.876L374.137 227.155C374.315 226.308 373.735 225.49 372.873 225.356L365.229 224.212Z" fill="white"/>
<path opacity="0.5" d="M336.351 137.568L326.552 140.214L332.262 129.274L326.403 120.118L336.589 122.258L342.597 115.242C342.924 114.856 342.493 114.752 342.597 115.242L344.337 124.324L355.237 128.561L347.34 133.228L345.749 145.268L336.351 137.568Z" fill="#38645B"/>
<path d="M336.976 135.249L326.79 137.687L331.057 128.129L325.6 119.196L336.024 120.296L342.017 113.265C342.344 112.879 342.969 113.042 343.073 113.533L344.991 122.57L354.672 126.584L345.601 131.816L344.768 142.25L336.976 135.249Z" fill="#EECF6B"/>
<path d="M343.593 116.06L344.233 113.682C344.277 113.503 344.173 113.325 343.995 113.265L343.935 113.25C343.935 113.25 343.935 113.25 343.935 113.236C344.158 112.478 344.53 111.021 343.445 110.605C342.359 110.188 341.824 111.794 341.616 112.552V112.567L341.556 112.552C341.378 112.507 341.199 112.596 341.14 112.775L340.411 115.123L343.593 116.06ZM343.504 113.132L342.775 112.923H342.761L342.032 112.715V112.701C342.181 112.18 342.642 110.798 343.311 111.051C343.995 111.303 343.668 112.596 343.504 113.132Z" fill="#CF8E54"/>
<path opacity="0.5" d="M343.563 115.019L343.772 114.291C343.876 113.919 343.682 113.533 343.325 113.384L342.641 113.102C342.641 113.102 342.493 113.072 342.582 113.161C343.177 113.8 343.4 114.514 343.43 114.99C343.474 115.287 343.563 115.019 343.563 115.019Z" fill="white"/>
<path opacity="0.5" d="M342.82 118.527L343.92 123.016C344.039 123.373 344.292 123.655 344.634 123.804L349.556 125.959L343.326 124.949C342.671 124.845 342.21 124.265 342.225 123.611L342.82 118.527Z" fill="white"/>
<path opacity="0.3" d="M329.6 121.961L332.545 127.089C332.782 127.505 332.797 128.011 332.574 128.427L329.005 135.279L335.221 128.546C335.771 127.951 335.697 127.03 335.087 126.524L329.6 121.961Z" fill="white"/>
<path opacity="0.5" d="M444.934 434.139C447.046 440.872 443.298 448.037 436.562 450.148C429.826 452.258 422.658 448.513 420.547 441.779C418.435 435.046 422.183 427.881 428.919 425.77C435.655 423.66 442.823 427.405 444.934 434.139Z" fill="#38645B"/>
<path d="M446.882 432.132C448.994 438.866 445.247 446.03 438.51 448.141C431.774 450.252 424.606 446.506 422.495 439.772C420.383 433.039 424.131 425.874 430.867 423.764C437.603 421.653 444.771 425.399 446.882 432.132Z" fill="#8A232F"/>
<path opacity="0.3" d="M433.425 444.395C430.495 443.399 427.09 441.824 426.778 437.141C426.227 433.009 423.476 433.544 424.413 438.256C427.06 447.621 436.042 445.287 433.425 444.395Z" fill="white"/>
<path opacity="0.5" d="M444.027 434.288C443.165 436.146 442.109 433.158 439.893 431.449C437.677 429.739 435.12 429.962 435.982 428.104C436.845 426.246 439.343 426.127 441.559 427.822C443.789 429.531 444.89 432.43 444.027 434.288Z" fill="white"/>
<path d="M430.971 424.15C429.484 424.611 427.803 423.348 427.149 421.267C426.495 419.186 427.149 417.194 428.651 416.718C430.138 416.257 431.818 417.521 432.473 419.602C433.112 421.683 432.458 423.689 430.971 424.15ZM428.934 417.669C427.997 417.967 427.61 419.483 428.071 420.984C428.547 422.485 429.737 423.511 430.673 423.214C431.61 422.917 431.997 421.4 431.536 419.899C431.06 418.398 429.87 417.372 428.934 417.669Z" fill="#EECF6B"/>
<path d="M434.242 423.199L433.335 420.33C433.231 420.018 432.904 419.84 432.592 419.944C430.57 420.196 428.785 420.731 427.268 421.608C426.956 421.712 426.778 422.039 426.882 422.352L427.789 425.22C430.138 425.087 432.28 424.388 434.242 423.199Z" fill="#EECF6B"/>
<path opacity="0.5" d="M433.321 422.322L433.038 421.341C432.889 420.85 432.399 420.538 431.893 420.612L430.912 420.776C430.912 420.776 430.718 420.835 430.897 420.88C432.042 421.192 432.8 421.846 433.172 422.381C433.395 422.708 433.321 422.322 433.321 422.322Z" fill="white"/>
<path opacity="0.5" d="M270.253 423.853C268.677 430.735 261.821 435.031 254.951 433.455C248.066 431.879 243.769 425.027 245.345 418.16C246.921 411.278 253.777 406.982 260.647 408.557C267.517 410.118 271.829 416.971 270.253 423.853Z" fill="#38645B"/>
<path d="M271.205 425.235C267.933 431.493 260.215 433.901 253.955 430.631C247.695 427.361 245.286 419.646 248.557 413.389C251.829 407.131 259.546 404.723 265.807 407.993C272.067 411.263 274.476 418.992 271.205 425.235Z" fill="#8A232F"/>
<path opacity="0.3" d="M253.033 424.388C251.665 421.623 250.371 418.1 253.464 414.563C255.992 411.248 253.687 409.687 251.011 413.686C246.237 422.173 254.252 426.87 253.033 424.388Z" fill="white"/>
<path opacity="0.5" d="M267.665 424.745C265.747 425.458 267.115 422.59 266.758 419.81C266.401 417.03 264.438 415.395 266.357 414.682C268.275 413.968 270.134 415.648 270.506 418.428C270.862 421.207 269.598 424.031 267.665 424.745Z" fill="white"/>
<path d="M265.598 408.335C264.216 407.606 263.918 405.525 264.929 403.593C265.94 401.661 267.814 400.709 269.212 401.438C270.595 402.166 270.892 404.247 269.881 406.179C268.87 408.127 266.981 409.063 265.598 408.335ZM268.751 402.315C267.888 401.854 266.535 402.656 265.807 404.054C265.078 405.451 265.197 407.012 266.059 407.473C266.922 407.933 268.275 407.131 269.004 405.733C269.732 404.336 269.628 402.775 268.751 402.315Z" fill="#EECF6B"/>
<path d="M268.587 409.985L269.985 407.309C270.134 407.012 270.03 406.655 269.732 406.506C268.126 405.258 266.476 404.381 264.795 403.92C264.498 403.771 264.141 403.875 263.992 404.173L262.595 406.848C264.349 408.409 266.372 409.435 268.587 409.985Z" fill="#EECF6B"/>
<path opacity="0.5" d="M268.558 408.721L269.048 407.829C269.301 407.383 269.167 406.804 268.751 406.506L267.948 405.927C267.948 405.927 267.77 405.838 267.859 405.986C268.454 407.027 268.513 408.023 268.409 408.662C268.335 409.033 268.558 408.721 268.558 408.721Z" fill="white"/>
<path opacity="0.5" d="M404.784 311.955C409.141 317.499 408.19 325.526 402.643 329.896C397.096 334.251 389.066 333.3 384.695 327.756C380.338 322.211 381.289 314.185 386.836 309.815C392.383 305.444 400.412 306.411 404.784 311.955Z" fill="#38645B"/>
<path d="M406.857 324.522C411 318.815 409.731 310.831 404.021 306.69C398.312 302.548 390.325 303.817 386.182 309.524C382.039 315.231 383.308 323.215 389.017 327.357C394.727 331.498 402.714 330.229 406.857 324.522Z" fill="#8A232F"/>
<path opacity="0.3" d="M396.189 325.541C393.171 324.857 389.617 323.668 388.814 319.045C387.817 315.002 385.156 315.82 386.583 320.398C390.197 329.435 398.881 326.15 396.189 325.541Z" fill="white"/>
<path opacity="0.5" d="M405.662 314.378C405.007 316.325 403.639 313.456 401.245 311.985C398.851 310.528 396.353 311.019 397.007 309.071C397.661 307.124 400.145 306.738 402.524 308.209C404.918 309.681 406.316 312.431 405.662 314.378Z" fill="white"/>
<path d="M391.594 305.682C390.167 306.307 388.353 305.222 387.49 303.23C386.628 301.223 387.059 299.172 388.501 298.548C389.929 297.923 391.743 299.008 392.606 301C393.468 303.007 393.022 305.058 391.594 305.682ZM388.888 299.454C387.996 299.841 387.758 301.402 388.382 302.843C389.007 304.285 390.301 305.177 391.193 304.791C392.085 304.404 392.323 302.843 391.698 301.401C391.074 299.945 389.78 299.053 388.888 299.454Z" fill="#EECF6B"/>
<path d="M394.747 304.389L393.542 301.625C393.409 301.327 393.067 301.179 392.754 301.312C390.762 301.773 389.052 302.502 387.639 303.527C387.341 303.661 387.193 304.003 387.327 304.315L388.531 307.08C390.866 306.693 392.933 305.772 394.747 304.389Z" fill="#EECF6B"/>
<path opacity="0.5" d="M393.736 303.616L393.349 302.68C393.156 302.204 392.635 301.937 392.13 302.085L391.163 302.353C391.163 302.353 390.985 302.442 391.148 302.472C392.323 302.665 393.141 303.23 393.572 303.72C393.855 303.988 393.736 303.616 393.736 303.616Z" fill="white"/>
<path opacity="0.5" d="M304.648 223.216C304.811 230.261 299.22 236.118 292.172 236.281C285.123 236.445 279.264 230.856 279.101 223.81C278.937 216.765 284.528 210.908 291.577 210.745C298.64 210.581 304.484 216.155 304.648 223.216Z" fill="#38645B"/>
<path d="M305.927 224.316C304.291 231.183 297.391 235.419 290.536 233.784C283.666 232.149 279.428 225.252 281.063 218.4C282.699 211.533 289.599 207.296 296.454 208.931C303.324 210.566 307.562 217.463 305.927 224.316Z" fill="#8A232F"/>
<path opacity="0.3" d="M288.097 227.972C286.09 225.624 283.963 222.532 286.09 218.34C287.725 214.505 285.108 213.554 283.502 218.088C280.959 227.482 289.882 230.068 288.097 227.972Z" fill="white"/>
<path opacity="0.5" d="M302.373 224.702C300.677 225.862 301.317 222.74 300.276 220.139C299.25 217.538 296.93 216.423 298.625 215.264C300.321 214.104 302.521 215.278 303.562 217.88C304.603 220.511 304.068 223.558 302.373 224.702Z" fill="white"/>
<path d="M296.335 209.318C294.819 208.961 294.016 207.014 294.521 204.888C295.027 202.763 296.618 201.395 298.135 201.752C299.651 202.109 300.454 204.056 299.949 206.181C299.443 208.307 297.867 209.689 296.335 209.318ZM297.912 202.703C296.96 202.48 295.845 203.58 295.473 205.111C295.101 206.642 295.607 208.129 296.558 208.366C297.51 208.589 298.625 207.489 298.997 205.958C299.369 204.427 298.863 202.941 297.912 202.703Z" fill="#EECF6B"/>
<path d="M299.636 210.18L300.335 207.252C300.41 206.94 300.216 206.613 299.889 206.538C298.016 205.721 296.216 205.275 294.476 205.245C294.164 205.171 293.837 205.364 293.763 205.691L293.064 208.619C295.146 209.69 297.361 210.195 299.636 210.18Z" fill="#EECF6B"/>
<path opacity="0.5" d="M299.295 208.961L299.562 207.98C299.696 207.475 299.428 206.954 298.952 206.776L298.031 206.404C298.031 206.404 297.837 206.36 297.956 206.494C298.774 207.356 299.086 208.307 299.146 208.946C299.161 209.333 299.295 208.961 299.295 208.961Z" fill="white"/>
<path d="M480.013 394.407C468.846 397.469 457.455 399.847 445.916 401.378C434.361 402.776 422.688 403.43 411 403.117C399.312 402.88 387.654 401.572 376.159 399.535C364.649 397.469 353.333 394.57 342.18 391.256C331.057 387.837 320.113 383.987 309.258 380.033C298.432 376.02 287.621 372.096 276.751 368.528C265.866 365.05 254.832 362.003 243.561 360.398C232.304 358.703 220.824 358.421 209.389 359.669C209.076 359.699 208.779 359.476 208.749 359.164C208.719 358.867 208.913 358.599 209.195 358.525C220.541 355.998 232.363 355.507 244.022 356.474C255.695 357.455 267.175 359.996 278.372 363.162C300.796 369.509 322.239 378.16 344.173 384.671C355.118 388.045 366.181 390.884 377.378 393.069C388.561 395.343 399.892 396.726 411.268 397.469C422.659 398.153 434.094 398.108 445.529 397.365C456.964 396.607 468.34 394.987 479.731 393.144H479.746C480.088 393.084 480.43 393.322 480.474 393.679C480.534 394.006 480.326 394.318 480.013 394.407Z" fill="#CF8E54"/>
<path d="M410.495 196.401C398.39 197.426 386.048 196.089 374.226 193.339C368.308 192.016 362.478 190.351 356.724 188.716L348.129 186.189C345.273 185.342 342.418 184.524 339.563 183.796C328.188 180.63 316.678 178.4 304.96 177.702C293.242 176.973 281.406 177.821 269.48 179.233H269.465C269.212 179.262 268.989 179.084 268.959 178.846C268.929 178.623 269.063 178.43 269.271 178.37C280.751 174.684 292.841 172.514 305.079 172.365C308.142 172.365 311.206 172.246 314.254 172.603C317.302 172.856 320.381 173.019 323.399 173.525C326.433 173.956 329.466 174.431 332.426 175.115L336.901 176.067C338.389 176.408 339.846 176.795 341.318 177.181C344.262 177.939 347.162 178.787 350.047 179.649C352.947 180.511 355.817 181.358 358.672 182.265L367.207 184.94L375.728 187.482C387.089 190.767 398.628 193.041 410.509 194.067C411.164 194.127 411.64 194.691 411.595 195.345C411.521 195.895 411.06 196.356 410.495 196.401Z" fill="#CF8E54"/>
<path d="M335.563 475.372C319.89 476.472 304.098 473.47 289.183 468.787C281.688 466.498 274.387 463.644 267.16 460.701C259.963 457.713 252.899 454.458 245.851 451.233L224.869 441.378C217.909 438.078 210.876 435.016 203.797 432.088C189.626 426.365 174.994 421.653 159.603 420.449C159.261 420.419 158.993 420.122 159.023 419.78C159.053 419.468 159.306 419.215 159.603 419.2C167.41 418.621 175.306 419.349 183.039 420.746C190.771 422.203 198.355 424.328 205.745 426.9C213.166 429.397 220.378 432.415 227.53 435.462C234.668 438.568 241.702 441.838 248.736 445.034C255.725 448.319 262.728 451.53 269.762 454.622C276.766 457.758 283.874 460.642 291.027 463.317C305.362 468.579 320.187 472.548 335.548 473.648C336.024 473.678 336.396 474.094 336.351 474.584C336.336 475.001 335.98 475.342 335.563 475.372Z" fill="#CF8E54"/>
<path d="M292.826 110.932C299.042 111.496 305.198 110.278 311.488 108.687L321.02 106.086C324.247 105.209 327.518 104.421 330.82 103.648C332.485 103.321 334.151 102.979 335.831 102.682C337.526 102.429 339.206 102.132 340.902 101.909L346.032 101.463C347.742 101.344 349.467 101.359 351.192 101.329C358.062 101.374 364.932 102.385 371.401 104.436C371.921 104.599 372.204 105.149 372.04 105.67C371.906 106.101 371.505 106.368 371.074 106.353H371.044C364.397 106.116 357.898 106.175 351.474 106.844C345.051 107.513 338.701 108.761 332.351 110.322C325.987 111.794 319.622 113.667 312.901 114.93C309.525 115.54 306.09 116.045 302.536 116.075C299.027 116.223 295.369 115.614 291.978 114.573C290.982 114.261 290.432 113.206 290.744 112.225C291.012 111.363 291.845 110.828 292.707 110.902L292.826 110.932Z" fill="#CF8E54"/>
<path d="M310.417 127.788C312.315 127.788 313.852 126.25 313.852 124.354C313.852 122.458 312.315 120.92 310.417 120.92C308.52 120.92 306.982 122.458 306.982 124.354C306.982 126.25 308.52 127.788 310.417 127.788Z" fill="white"/>
<path d="M334.701 168.293C336.598 168.293 338.136 166.755 338.136 164.859C338.136 162.963 336.598 161.425 334.701 161.425C332.804 161.425 331.266 162.963 331.266 164.859C331.266 166.755 332.804 168.293 334.701 168.293Z" fill="white"/>
<path d="M363.014 205.914C364.911 205.914 366.449 204.377 366.449 202.48C366.449 200.584 364.911 199.047 363.014 199.047C361.117 199.047 359.579 200.584 359.579 202.48C359.579 204.377 361.117 205.914 363.014 205.914Z" fill="white"/>
<path d="M250.341 312.163C252.239 312.163 253.776 310.626 253.776 308.729C253.776 306.833 252.239 305.296 250.341 305.296C248.444 305.296 246.906 306.833 246.906 308.729C246.906 310.626 248.444 312.163 250.341 312.163Z" fill="white"/>
<path d="M202.608 454.414C204.505 454.414 206.043 452.876 206.043 450.98C206.043 449.084 204.505 447.546 202.608 447.546C200.711 447.546 199.173 449.084 199.173 450.98C199.173 452.876 200.711 454.414 202.608 454.414Z" fill="white"/>
<path d="M413.632 462.113C413.632 464.016 412.101 465.547 410.197 465.547C408.294 465.547 406.762 464.016 406.762 462.113C406.762 460.211 408.294 458.68 410.197 458.68C412.101 458.68 413.632 460.211 413.632 462.113Z" fill="white"/>
<path d="M303.622 416.584C305.519 416.584 307.057 415.047 307.057 413.15C307.057 411.254 305.519 409.717 303.622 409.717C301.725 409.717 300.187 411.254 300.187 413.15C300.187 415.047 301.725 416.584 303.622 416.584Z" fill="white"/>
<path d="M429.722 341.014C429.722 342.917 428.19 344.448 426.287 344.448C424.383 344.448 422.852 342.917 422.852 341.014C422.852 339.112 424.383 337.581 426.287 337.581C428.19 337.581 429.722 339.127 429.722 341.014Z" fill="white"/>
<path d="M360.516 150.574C360.516 151.57 359.713 152.373 358.716 152.373C357.72 152.373 356.917 151.57 356.917 150.574C356.917 149.578 357.72 148.776 358.716 148.776C359.713 148.776 360.516 149.578 360.516 150.574Z" fill="white"/>
<path d="M345.526 234.765C345.526 235.761 344.723 236.564 343.727 236.564C342.731 236.564 341.928 235.761 341.928 234.765C341.928 233.769 342.731 232.967 343.727 232.967C344.723 232.967 345.526 233.769 345.526 234.765Z" fill="white"/>
<path d="M361.631 301.907C361.631 302.903 360.828 303.705 359.831 303.705C358.835 303.705 358.032 302.903 358.032 301.907C358.032 300.911 358.835 300.108 359.831 300.108C360.813 300.093 361.631 300.911 361.631 301.907Z" fill="white"/>
<path d="M275.874 339.35C275.874 340.346 275.071 341.148 274.075 341.148C273.078 341.148 272.275 340.346 272.275 339.35C272.275 338.354 273.078 337.551 274.075 337.551C275.071 337.551 275.874 338.354 275.874 339.35Z" fill="white"/>
<path d="M231.605 403.013C231.605 404.009 230.802 404.812 229.806 404.812C228.809 404.812 228.006 404.009 228.006 403.013C228.006 402.017 228.809 401.215 229.806 401.215C230.802 401.215 231.605 402.017 231.605 403.013Z" fill="white"/>
<path d="M415.61 407.175C415.61 408.171 414.807 408.974 413.811 408.974C412.814 408.974 412.011 408.171 412.011 407.175C412.011 406.179 412.814 405.377 413.811 405.377C414.807 405.377 415.61 406.179 415.61 407.175Z" fill="white"/>
<path d="M327.072 453.507C327.072 454.503 326.269 455.305 325.273 455.305C324.277 455.305 323.474 454.503 323.474 453.507C323.474 452.511 324.277 451.708 325.273 451.708C326.269 451.708 327.072 452.511 327.072 453.507Z" fill="white"/>
<path d="M289.331 193.71C289.331 194.706 288.528 195.509 287.532 195.509C286.536 195.509 285.733 194.706 285.733 193.71C285.733 192.715 286.536 191.912 287.532 191.912C288.528 191.912 289.331 192.715 289.331 193.71Z" fill="white"/>
<path opacity="0.5" d="M333.318 515.074C333.318 515.074 343.98 543.064 387.089 563.056V513.499L333.318 515.074Z" fill="#892F14"/>
<path opacity="0.5" d="M333.258 515.045C333.258 515.045 310.016 544.922 298.67 544.922L276.974 515.045H333.258Z" fill="#892F14"/>
<path d="M602.782 575.75H518.23V601.436H602.782V575.75Z" fill="#58886B"/>
<path d="M527.39 585.144C527.39 585.828 526.84 586.393 526.141 586.393C525.457 586.393 524.892 585.843 524.892 585.144C524.892 584.461 525.442 583.896 526.141 583.896C526.84 583.911 527.39 584.461 527.39 585.144Z" fill="white"/>
<path d="M550.29 585.144C550.29 585.828 549.74 586.393 549.041 586.393C548.357 586.393 547.792 585.843 547.792 585.144C547.792 584.461 548.342 583.896 549.041 583.896C549.74 583.911 550.29 584.461 550.29 585.144Z" fill="white"/>
<path d="M573.19 585.144C573.19 585.828 572.64 586.393 571.941 586.393C571.257 586.393 570.692 585.843 570.692 585.144C570.692 584.461 571.242 583.896 571.941 583.896C572.64 583.911 573.19 584.461 573.19 585.144Z" fill="white"/>
<path d="M596.091 585.144C596.091 585.828 595.541 586.393 594.842 586.393C594.158 586.393 593.593 585.843 593.593 585.144C593.593 584.461 594.143 583.896 594.842 583.896C595.526 583.911 596.091 584.461 596.091 585.144Z" fill="white"/>
<path d="M538.84 591.12C538.84 591.803 538.29 592.368 537.591 592.368C536.907 592.368 536.342 591.818 536.342 591.12C536.342 590.436 536.892 589.871 537.591 589.871C538.29 589.871 538.84 590.436 538.84 591.12Z" fill="white"/>
<path d="M561.74 591.12C561.74 591.803 561.19 592.368 560.491 592.368C559.807 592.368 559.242 591.818 559.242 591.12C559.242 590.436 559.792 589.871 560.491 589.871C561.19 589.871 561.74 590.436 561.74 591.12Z" fill="white"/>
<path d="M584.641 591.12C584.641 591.803 584.09 592.368 583.392 592.368C582.708 592.368 582.142 591.818 582.142 591.12C582.142 590.436 582.693 589.871 583.392 589.871C584.09 589.871 584.641 590.436 584.641 591.12Z" fill="white"/>
<path d="M527.39 597.08C527.39 597.764 526.84 598.329 526.141 598.329C525.457 598.329 524.892 597.779 524.892 597.08C524.892 596.382 525.442 595.832 526.141 595.832C526.84 595.847 527.39 596.397 527.39 597.08Z" fill="white"/>
<path d="M550.29 597.08C550.29 597.764 549.74 598.329 549.041 598.329C548.357 598.329 547.792 597.779 547.792 597.08C547.792 596.382 548.342 595.832 549.041 595.832C549.74 595.847 550.29 596.397 550.29 597.08Z" fill="white"/>
<path d="M573.19 597.08C573.19 597.764 572.64 598.329 571.941 598.329C571.257 598.329 570.692 597.779 570.692 597.08C570.692 596.382 571.242 595.832 571.941 595.832C572.64 595.847 573.19 596.397 573.19 597.08Z" fill="white"/>
<path d="M596.091 597.08C596.091 597.764 595.541 598.329 594.842 598.329C594.158 598.329 593.593 597.779 593.593 597.08C593.593 596.382 594.143 595.832 594.842 595.832C595.526 595.847 596.091 596.397 596.091 597.08Z" fill="white"/>
<path opacity="0.5" d="M518.23 575.75V582.35L602.574 584.208L602.768 575.75H518.23Z" fill="#426650"/>
<path d="M605.177 571.796H516.133V579.868H605.177V571.796Z" fill="#58886B"/>
<path d="M200.214 539.496C200.214 539.496 203.322 553.216 187.782 553.216H195.292C195.292 553.216 207.589 553.082 207.589 541.696L200.214 539.496Z" fill="#AD7746"/>
<path d="M187.782 553.216C187.782 553.216 186.146 545.189 198.132 539.496C199.396 538.902 200.868 538.857 202.162 539.407L207.604 541.696C207.604 541.696 196.214 545.457 191.544 553.216H187.782Z" fill="#CF8E54"/>
<path d="M175.365 539.496C175.365 539.496 172.258 553.216 187.797 553.216H180.287C180.287 553.216 167.99 553.082 167.99 541.696L175.365 539.496Z" fill="#AD7746"/>
<path d="M187.797 553.216C187.797 553.216 189.433 545.189 177.447 539.496C176.183 538.902 174.711 538.857 173.417 539.407L167.975 541.696C167.975 541.696 179.366 545.457 184.035 553.216H187.797Z" fill="#CF8E54"/>
<path d="M188.764 547.805C188.184 549.039 187.901 550.154 187.782 551.046C187.663 550.154 187.381 549.039 186.801 547.805C185.477 548.459 184.838 550.377 184.838 552.651C184.838 552.844 184.868 553.038 184.868 553.216H187.752H187.767H190.622C190.637 553.023 190.652 552.844 190.652 552.651C190.697 550.362 190.087 548.459 188.764 547.805Z" fill="#8A5F38"/>
<path d="M190.31 552.651C190.31 554.836 189.18 556.605 187.782 556.605C186.384 556.605 185.254 554.836 185.254 552.651C185.254 550.466 186.384 548.697 187.782 548.697C189.18 548.697 190.31 550.466 190.31 552.651Z" fill="#AD7746"/>
<path d="M213.597 613.921H163.752L167.023 553.216H210.326L213.597 613.921Z" fill="#8A232F"/>
<path opacity="0.5" d="M210.415 555.03H166.919L166.532 562.417H210.816L210.415 555.03Z" fill="#CF8E54"/>
<path d="M212.333 553.216H164.361V560.604H212.333V553.216Z" fill="#6E1C25"/>
<path d="M158.056 574.323H224.244" stroke="white" stroke-width="1.19525" stroke-miterlimit="10"/>
<path d="M158.056 581.398H224.244" stroke="white" stroke-width="1.19525" stroke-miterlimit="10"/>
<path d="M158.056 588.474H224.244" stroke="white" stroke-width="1.19525" stroke-miterlimit="10"/>
<path d="M158.056 595.549H224.244" stroke="white" stroke-width="1.19525" stroke-miterlimit="10"/>
<path d="M192.362 553.216H183.232V613.921H192.362V553.216Z" fill="#CF8E54"/>
<path d="M388.1 540.135H383.981C383.089 540.135 382.345 540.834 382.315 541.741C382.241 544.312 382.42 550.912 384.605 556.575H387.49C389.661 550.912 389.855 544.297 389.78 541.741C389.736 540.834 389.007 540.135 388.1 540.135Z" fill="#8A232F"/>
<path opacity="0.4" d="M386.196 552.8C385.959 551.001 385.096 548.341 382.405 545.635C382.613 548.757 383.178 552.874 384.605 556.59H386.182H386.196H387.475C388.858 553.008 389.438 549.054 389.646 545.977C387.223 548.549 386.42 551.076 386.196 552.8Z" fill="#8A232F"/>
<path d="M398.851 542.588C398.851 542.588 402.019 556.575 386.182 556.575H393.84C393.84 556.575 406.375 556.442 406.375 544.833L398.851 542.588Z" fill="#6E1E27"/>
<path d="M386.182 556.575C386.182 556.575 384.516 548.385 396.725 542.588C398.018 541.979 399.52 541.934 400.829 542.499L406.375 544.833C406.375 544.833 394.762 548.653 390.003 556.575H386.182Z" fill="#8A232F"/>
<path d="M373.527 542.588C373.527 542.588 370.36 556.575 386.197 556.575H378.538C378.538 556.575 366.003 556.442 366.003 544.833L373.527 542.588Z" fill="#6E1E27"/>
<path d="M386.197 556.575C386.197 556.575 387.862 548.385 375.653 542.588C374.36 541.979 372.858 541.934 371.549 542.499L366.003 544.833C366.003 544.833 377.616 548.653 382.375 556.575H386.197Z" fill="#8A232F"/>
<path d="M387.193 551.046C386.598 552.294 386.315 553.439 386.196 554.346C386.077 553.439 385.795 552.294 385.2 551.046C383.847 551.715 383.208 553.662 383.208 555.996C383.208 556.189 383.237 556.382 383.252 556.575H386.196H386.211H389.126C389.141 556.382 389.17 556.189 389.17 555.996C389.156 553.662 388.531 551.715 387.193 551.046Z" fill="#6E1E27"/>
<path d="M388.769 555.996C388.769 558.225 387.609 560.024 386.197 560.024C384.769 560.024 383.624 558.225 383.624 555.996C383.624 553.766 384.784 551.968 386.197 551.968C387.609 551.968 388.769 553.766 388.769 555.996Z" fill="#581A21"/>
<path d="M468.816 556.575H359.817V610.116H468.816V556.575Z" fill="#58886B"/>
<path d="M387.089 572.524C387.089 573.446 386.345 574.189 385.423 574.189C384.501 574.189 383.758 573.446 383.758 572.524C383.758 571.603 384.501 570.86 385.423 570.86C386.345 570.86 387.089 571.603 387.089 572.524Z" fill="white"/>
<path d="M417.751 572.524C417.751 573.446 417.008 574.189 416.086 574.189C415.164 574.189 414.42 573.446 414.42 572.524C414.42 571.603 415.164 570.86 416.086 570.86C417.008 570.86 417.751 571.603 417.751 572.524Z" fill="white"/>
<path d="M370.092 597.363C371.012 597.363 371.757 596.617 371.757 595.698C371.757 594.778 371.012 594.033 370.092 594.033C369.172 594.033 368.427 594.778 368.427 595.698C368.427 596.617 369.172 597.363 370.092 597.363Z" fill="white"/>
<path d="M402.42 595.698C402.42 596.619 401.677 597.363 400.755 597.363C399.833 597.363 399.089 596.619 399.089 595.698C399.089 594.776 399.833 594.033 400.755 594.033C401.677 594.033 402.42 594.776 402.42 595.698Z" fill="white"/>
<path d="M371.757 562.684C371.757 563.606 371.014 564.349 370.092 564.349C369.17 564.349 368.427 563.606 368.427 562.684C368.427 561.763 369.17 561.02 370.092 561.02C371.014 561.02 371.757 561.763 371.757 562.684Z" fill="white"/>
<path d="M402.42 562.684C402.42 563.606 401.677 564.349 400.755 564.349C399.833 564.349 399.089 563.606 399.089 562.684C399.089 561.763 399.833 561.02 400.755 561.02C401.677 561.02 402.42 561.763 402.42 562.684Z" fill="white"/>
<path d="M433.098 562.684C433.098 563.606 432.354 564.349 431.432 564.349C430.51 564.349 429.767 563.606 429.767 562.684C429.767 561.763 430.51 561.02 431.432 561.02C432.354 561.02 433.098 561.763 433.098 562.684Z" fill="white"/>
<path d="M385.423 606.237C386.343 606.237 387.089 605.491 387.089 604.572C387.089 603.652 386.343 602.907 385.423 602.907C384.504 602.907 383.758 603.652 383.758 604.572C383.758 605.491 384.504 606.237 385.423 606.237Z" fill="white"/>
<path d="M416.101 606.237C417.021 606.237 417.766 605.491 417.766 604.572C417.766 603.652 417.021 602.907 416.101 602.907C415.181 602.907 414.435 603.652 414.435 604.572C414.435 605.491 415.181 606.237 416.101 606.237Z" fill="white"/>
<path d="M448.488 572.524C448.488 573.446 447.745 574.189 446.823 574.189C445.901 574.189 445.157 573.446 445.157 572.524C445.157 571.603 445.901 570.86 446.823 570.86C447.745 570.86 448.488 571.603 448.488 572.524Z" fill="white"/>
<path d="M462.169 597.363C463.089 597.363 463.834 596.617 463.834 595.698C463.834 594.778 463.089 594.033 462.169 594.033C461.249 594.033 460.503 594.778 460.503 595.698C460.503 596.617 461.249 597.363 462.169 597.363Z" fill="white"/>
<path d="M463.834 562.684C463.834 563.606 463.091 564.349 462.169 564.349C461.247 564.349 460.503 563.606 460.503 562.684C460.503 561.763 461.247 561.02 462.169 561.02C463.091 561.02 463.834 561.763 463.834 562.684Z" fill="white"/>
<path d="M448.488 604.572C448.488 605.493 447.745 606.237 446.823 606.237C445.901 606.237 445.157 605.493 445.157 604.572C445.157 603.65 445.901 602.907 446.823 602.907C447.745 602.907 448.488 603.65 448.488 604.572Z" fill="white"/>
<path d="M468.816 577.296H359.817V589.366H468.816V577.296Z" fill="#8A232F"/>
<path d="M392.234 556.546H380.159V610.116H392.234V556.546Z" fill="#8A232F"/>
<path d="M422.078 569.611L425.409 610.116H468.831V570.325L422.078 569.611Z" fill="#58886B"/>
<path d="M491.374 571.975H426.391L429.722 610.116H485.411L491.374 571.975Z" fill="#77AA8A"/>
<path d="M426.391 571.975L451.105 596.174C453.812 598.819 458.08 599.028 461.009 596.634L491.374 571.975" fill="#80B394"/>
<path d="M426.391 571.975L449.306 592.071C453.128 595.43 458.779 595.683 462.883 592.695L491.374 571.975H426.391Z" fill="#80B394"/>
</g>
<defs>
<clipPath id="clip0_96_2256">
<rect width="673" height="635.504" fill="white"/>
</clipPath>
</defs>
</svg>
